Georama-BlackItalic.ufo
<glyph name="exclam" format="2">
  <advance width="270.0"/>
  <unicode hex="0021"/>
  <outline>
    <contour>
      <point x="41.599999999999994" y="259.0" type="line"/>
      <point x="218.8" y="259.0" type="line"/>
      <point x="314.2" y="740.0" type="line"/>
      <point x="106.0" y="740.0" type="line"/>
    </contour>
    <contour>
      <point x="-7.599999999999998" y="71.8" type="curve" smooth="yes"/>
      <point x="-7.599999999999998" y="17.6"/>
      <point x="21.400000000000006" y="-10.0"/>
      <point x="89.8" y="-10.0" type="curve" smooth="yes"/>
      <point x="181.20000000000002" y="-10.0"/>
      <point x="223.79999999999998" y="61.4"/>
      <point x="223.79999999999998" y="140.8" type="curve" smooth="yes"/>
      <point x="223.79999999999998" y="195.0"/>
      <point x="194.8" y="222.6"/>
      <point x="126.80000000000001" y="222.6" type="curve" smooth="yes"/>
      <point x="34.6" y="222.6"/>
      <point x="-7.599999999999998" y="150.4"/>
    </contour>
  </outline>
</glyph>
<glyph name="numbersign" format="2">
  <advance width="672.0"/>
  <unicode hex="0023"/>
  <outline>
    <contour>
      <point x="108.0" y="400.59999999999997" type="line"/>
      <point x="159.2" y="400.59999999999997" type="line"/>
      <point x="129.0" y="295.79999999999995" type="line"/>
      <point x="76.6" y="295.79999999999995" type="line"/>
      <point x="50.8" y="135.60000000000002" type="line"/>
      <point x="86.60000000000001" y="135.60000000000002" type="line"/>
      <point x="51.0" y="0.0" type="line"/>
      <point x="231.20000000000002" y="0.0" type="line"/>
      <point x="266.8" y="135.60000000000002" type="line"/>
      <point x="312.8" y="135.60000000000002" type="line"/>
      <point x="277.2" y="0.0" type="line"/>
      <point x="456.79999999999995" y="0.0" type="line"/>
      <point x="492.40000000000003" y="135.60000000000002" type="line"/>
      <point x="562.4" y="135.60000000000002" type="line"/>
      <point x="587.8000000000001" y="295.79999999999995" type="line"/>
      <point x="535.5999999999999" y="295.79999999999995" type="line"/>
      <point x="565.0" y="400.59999999999997" type="line"/>
      <point x="619.1999999999999" y="400.59999999999997" type="line"/>
      <point x="645.5999999999999" y="561.2" type="line"/>
      <point x="607.4" y="561.2" type="line"/>
      <point x="644.0" y="700.0" type="line"/>
      <point x="463.80000000000007" y="700.0" type="line"/>
      <point x="427.2" y="561.2" type="line"/>
      <point x="381.2" y="561.2" type="line"/>
      <point x="417.8" y="700.0" type="line"/>
      <point x="238.20000000000002" y="700.0" type="line"/>
      <point x="201.6" y="561.2" type="line"/>
      <point x="134.0" y="561.2" type="line"/>
    </contour>
    <contour>
      <point x="338.79999999999995" y="400.59999999999997" type="line"/>
      <point x="384.8" y="400.59999999999997" type="line"/>
      <point x="355.2" y="295.79999999999995" type="line"/>
      <point x="309.2" y="295.79999999999995" type="line"/>
    </contour>
  </outline>
</glyph>
<glyph name="dollar" format="2">
  <advance width="672.0"/>
  <unicode hex="0024"/>
  <outline>
    <contour>
      <point x="640.6000000000001" y="671.2" type="line"/>
      <point x="602.2" y="684.8"/>
      <point x="550.2" y="700.2"/>
      <point x="486.20000000000005" y="706.2" type="curve"/>
      <point x="501.6" y="803.8" type="line"/>
      <point x="340.6" y="803.8" type="line"/>
      <point x="323.4" y="698.6" type="line"/>
      <point x="190.8" y="675.1999999999999"/>
      <point x="94.60000000000001" y="603.1999999999999"/>
      <point x="94.60000000000001" y="472.79999999999995" type="curve" smooth="yes"/>
      <point x="94.60000000000001" y="255.6"/>
      <point x="386.6" y="266.40000000000003"/>
      <point x="386.6" y="204.39999999999998" type="curve" smooth="yes"/>
      <point x="386.6" y="177.6"/>
      <point x="363.4" y="165.4"/>
      <point x="309.0" y="165.4" type="curve" smooth="yes"/>
      <point x="234.0" y="165.4"/>
      <point x="154.79999999999998" y="182.2"/>
      <point x="81.6" y="210.6" type="curve"/>
      <point x="18.6" y="38.8" type="line"/>
      <point x="73.39999999999999" y="15.399999999999999"/>
      <point x="142.0" y="-0.40000000000000036"/>
      <point x="211.4" y="-6.0" type="curve"/>
      <point x="196.4" y="-105.0" type="line"/>
      <point x="357.0" y="-105.0" type="line"/>
      <point x="372.0" y="-2.2" type="line"/>
      <point x="505.20000000000005" y="24.0"/>
      <point x="606.8000000000001" y="95.2"/>
      <point x="606.8000000000001" y="227.6" type="curve" smooth="yes"/>
      <point x="606.8000000000001" y="442.4"/>
      <point x="318.59999999999997" y="425.0"/>
      <point x="318.59999999999997" y="490.4" type="curve" smooth="yes"/>
      <point x="318.59999999999997" y="516.1999999999999"/>
      <point x="344.4" y="527.2"/>
      <point x="394.20000000000005" y="527.2" type="curve" smooth="yes"/>
      <point x="449.4" y="527.2"/>
      <point x="514.8000000000001" y="520.8000000000001"/>
      <point x="577.6" y="496.2" type="curve"/>
    </contour>
  </outline>
</glyph>
<glyph name="ampersand" format="2">
  <advance width="743.0000000000001"/>
  <unicode hex="0026"/>
  <outline>
    <contour>
      <point x="315.6" y="-10.0" type="curve" smooth="yes"/>
      <point x="533.8000000000001" y="-10.0"/>
      <point x="662.1999999999999" y="130.4"/>
      <point x="655.0" y="306.6" type="curve"/>
      <point x="496.6" y="296.8" type="line"/>
      <point x="528.0" y="217.4"/>
      <point x="445.8" y="155.4"/>
      <point x="345.0" y="155.4" type="curve" smooth="yes"/>
      <point x="264.0" y="155.4"/>
      <point x="220.0" y="189.2"/>
      <point x="220.0" y="239.40000000000003" type="curve" smooth="yes"/>
      <point x="220.0" y="290.0"/>
      <point x="252.8" y="334.8"/>
      <point x="311.0" y="334.8" type="curve" smooth="yes"/>
      <point x="357.8" y="334.8" type="line"/>
      <point x="388.0" y="453.0" type="line"/>
      <point x="366.6" y="456.6" type="line" smooth="yes"/>
      <point x="322.0" y="463.40000000000003"/>
      <point x="303.8" y="481.2"/>
      <point x="303.8" y="505.19999999999993" type="curve" smooth="yes"/>
      <point x="303.8" y="533.4"/>
      <point x="332.2" y="550.4000000000001"/>
      <point x="365.8" y="550.4000000000001" type="curve" smooth="yes"/>
      <point x="394.79999999999995" y="550.4000000000001"/>
      <point x="420.8" y="544.0"/>
      <point x="453.0" y="524.0" type="curve"/>
      <point x="555.0" y="652.8000000000001" type="line"/>
      <point x="491.0" y="691.4"/>
      <point x="427.4" y="710.0"/>
      <point x="342.8" y="710.0" type="curve" smooth="yes"/>
      <point x="193.20000000000002" y="710.0"/>
      <point x="97.2" y="630.4"/>
      <point x="97.2" y="536.4" type="curve" smooth="yes"/>
      <point x="97.2" y="486.8"/>
      <point x="128.2" y="446.8"/>
      <point x="184.40000000000003" y="416.4" type="curve"/>
      <point x="81.2" y="394.8"/>
      <point x="8.599999999999998" y="326.0"/>
      <point x="8.599999999999998" y="209.8" type="curve" smooth="yes"/>
      <point x="8.599999999999998" y="80.2"/>
      <point x="110.8" y="-10.0"/>
    </contour>
    <contour>
      <point x="454.0" y="211.4" type="line"/>
      <point x="459.2" y="244.2"/>
      <point x="473.80000000000007" y="265.2"/>
      <point x="501.4" y="265.2" type="curve" smooth="yes"/>
      <point x="545.4" y="265.2"/>
      <point x="599.1999999999999" y="258.8"/>
      <point x="632.4000000000001" y="258.8" type="curve" smooth="yes"/>
      <point x="716.4" y="258.8"/>
      <point x="772.2" y="343.40000000000003"/>
      <point x="758.4" y="442.8" type="curve"/>
      <point x="636.2" y="442.8" type="line"/>
      <point x="634.6000000000001" y="389.2"/>
      <point x="611.4" y="378.79999999999995"/>
      <point x="563.5999999999999" y="378.79999999999995" type="curve" smooth="yes"/>
      <point x="535.2" y="378.79999999999995"/>
      <point x="507.99999999999994" y="386.0"/>
      <point x="479.6" y="386.0" type="curve" smooth="yes"/>
      <point x="384.20000000000005" y="386.0"/>
      <point x="341.8" y="316.2"/>
      <point x="336.6" y="237.60000000000002" type="curve"/>
    </contour>
  </outline>
</glyph>
<glyph name="quotesingle" format="2">
  <advance width="228.2"/>
  <unicode hex="0027"/>
  <outline>
    <contour>
      <point x="51.8" y="427.0" type="line"/>
      <point x="220.6" y="427.0" type="line"/>
      <point x="273.6" y="700.0" type="line"/>
      <point x="88.6" y="700.0" type="line"/>
    </contour>
  </outline>
</glyph>
<glyph name="parenleft" format="2">
  <advance width="343.4"/>
  <unicode hex="0028"/>
  <outline>
    <contour>
      <point x="27.8" y="89.2" type="curve" smooth="yes"/>
      <point x="27.8" y="-79.80000000000001"/>
      <point x="89.4" y="-201.20000000000002"/>
      <point x="241.79999999999998" y="-220.0" type="curve"/>
      <point x="268.4" y="-61.2" type="line"/>
      <point x="215.4" y="-37.4"/>
      <point x="193.2" y="5.200000000000002"/>
      <point x="193.2" y="86.8" type="curve" smooth="yes"/>
      <point x="193.2" y="216.4"/>
      <point x="247.39999999999998" y="573.8"/>
      <point x="371.6" y="588.0" type="curve"/>
      <point x="397.0" y="750.0" type="line"/>
      <point x="127.6" y="750.8000000000001"/>
      <point x="27.8" y="353.20000000000005"/>
    </contour>
  </outline>
</glyph>
<glyph name="parenright" format="2">
  <advance width="343.4"/>
  <unicode hex="0029"/>
  <outline>
    <contour>
      <point x="312.2" y="440.8" type="curve" smooth="yes"/>
      <point x="312.2" y="611.8"/>
      <point x="250.6" y="731.1999999999999"/>
      <point x="98.2" y="750.0" type="curve"/>
      <point x="71.60000000000001" y="589.2" type="line"/>
      <point x="124.6" y="565.4"/>
      <point x="146.8" y="522.8"/>
      <point x="146.8" y="441.2" type="curve" smooth="yes"/>
      <point x="146.8" y="311.6"/>
      <point x="92.6" y="-43.8"/>
      <point x="-31.6" y="-58.0" type="curve"/>
      <point x="-57.0" y="-220.0" type="line"/>
      <point x="212.4" y="-217.6"/>
      <point x="312.2" y="180.79999999999998"/>
    </contour>
  </outline>
</glyph>
<glyph name="asterisk" format="2">
  <advance width="388.0"/>
  <unicode hex="002A"/>
  <outline>
    <contour>
      <point x="141.0" y="369.6" type="line"/>
      <point x="220.0" y="445.4" type="line"/>
      <point x="273.8" y="369.59999999999997" type="line"/>
      <point x="355.0" y="423.59999999999997" type="line"/>
      <point x="323.0" y="515.6" type="line"/>
      <point x="417.59999999999997" y="561.4" type="line"/>
      <point x="405.0" y="650.8" type="line"/>
      <point x="307.6" y="633.1999999999999" type="line"/>
      <point x="312.4" y="736.0" type="line"/>
      <point x="222.40000000000003" y="736.0" type="line"/>
      <point x="193.20000000000002" y="633.1999999999999" type="line"/>
      <point x="103.0" y="650.8" type="line"/>
      <point x="61.2" y="561.4" type="line"/>
      <point x="138.4" y="515.6" type="line"/>
      <point x="78.19999999999999" y="423.59999999999997" type="line"/>
    </contour>
  </outline>
</glyph>
<glyph name="plus" format="2">
  <advance width="529.0"/>
  <unicode hex="002B"/>
  <outline>
    <contour>
      <point x="152.0" y="132.6" type="line"/>
      <point x="330.79999999999995" y="132.6" type="line"/>
      <point x="347.2" y="237.0" type="line"/>
      <point x="473.0" y="237.0" type="line"/>
      <point x="501.6" y="415.0" type="line"/>
      <point x="375.8" y="415.0" type="line"/>
      <point x="392.6" y="519.0" type="line"/>
      <point x="214.60000000000002" y="519.0" type="line"/>
      <point x="197.0" y="415.0" type="line"/>
      <point x="72.39999999999999" y="415.0" type="line"/>
      <point x="43.8" y="237.0" type="line"/>
      <point x="169.20000000000002" y="237.0" type="line"/>
    </contour>
  </outline>
</glyph>
<glyph name="comma" format="2">
  <advance width="262.4"/>
  <unicode hex="002C"/>
  <outline>
    <contour>
      <point x="10.4" y="111.0" type="line"/>
      <point x="9.399999999999999" y="80.0"/>
      <point x="5.4" y="51.6"/>
      <point x="2.0" y="33.8" type="curve" smooth="yes"/>
      <point x="-9.0" y="-26.2"/>
      <point x="-40.8" y="-101.80000000000001"/>
      <point x="-79.0" y="-155.4" type="curve"/>
      <point x="74.6" y="-186.20000000000002" type="line"/>
      <point x="145.4" y="-106.8"/>
      <point x="201.6" y="-22.800000000000004"/>
      <point x="201.6" y="79.4" type="curve" smooth="yes"/>
      <point x="201.6" y="91.0"/>
      <point x="200.60000000000002" y="102.0"/>
      <point x="199.39999999999998" y="112.0" type="curve"/>
    </contour>
  </outline>
</glyph>
<glyph name="hyphen" format="2">
  <advance width="361.79999999999995"/>
  <unicode hex="002D"/>
  <outline>
    <contour>
      <point x="32.2" y="226.0" type="line"/>
      <point x="312.79999999999995" y="226.0" type="line"/>
      <point x="343.8" y="413.6" type="line"/>
      <point x="63.199999999999996" y="413.6" type="line"/>
    </contour>
  </outline>
</glyph>
<glyph name="period" format="2">
  <advance width="267.6"/>
  <unicode hex="002E"/>
  <outline>
    <contour>
      <point x="-8.4" y="73.6" type="curve" smooth="yes"/>
      <point x="-8.4" y="18.8"/>
      <point x="20.000000000000004" y="-8.2"/>
      <point x="89.0" y="-8.2" type="curve" smooth="yes"/>
      <point x="180.4" y="-8.2"/>
      <point x="222.4" y="63.2"/>
      <point x="222.4" y="143.8" type="curve" smooth="yes"/>
      <point x="222.4" y="197.4"/>
      <point x="194.0" y="224.4"/>
      <point x="126.0" y="224.4" type="curve" smooth="yes"/>
      <point x="33.2" y="224.4"/>
      <point x="-8.4" y="152.2"/>
    </contour>
  </outline>
</glyph>
<glyph name="slash" format="2">
  <advance width="463.6"/>
  <unicode hex="002F"/>
  <outline>
    <contour>
      <point x="-79.0" y="-210.0" type="line"/>
      <point x="90.60000000000001" y="-210.0" type="line"/>
      <point x="539.6" y="740.0" type="line"/>
      <point x="368.4" y="740.0" type="line"/>
    </contour>
  </outline>
</glyph>
<glyph name="zero" format="2">
  <advance width="672"/>
  <unicode hex="0030"/>
  <outline>
    <contour>
      <point x="320" y="-10" type="curve" smooth="yes"/>
      <point x="543" y="-10"/>
      <point x="654" y="205"/>
      <point x="654" y="438" type="curve" smooth="yes"/>
      <point x="654" y="621"/>
      <point x="570" y="710"/>
      <point x="375" y="710" type="curve" smooth="yes"/>
      <point x="152" y="710"/>
      <point x="41" y="495"/>
      <point x="41" y="262" type="curve" smooth="yes"/>
      <point x="41" y="79"/>
      <point x="125" y="-10"/>
    </contour>
    <contour>
      <point x="318" y="167" type="curve" smooth="yes"/>
      <point x="284" y="167"/>
      <point x="261" y="180"/>
      <point x="261" y="235" type="curve" smooth="yes"/>
      <point x="261" y="322"/>
      <point x="299" y="533"/>
      <point x="377" y="533" type="curve" smooth="yes"/>
      <point x="411" y="533"/>
      <point x="434" y="519"/>
      <point x="434" y="464" type="curve" smooth="yes"/>
      <point x="434" y="377"/>
      <point x="396" y="167"/>
    </contour>
  </outline>
</glyph>
<glyph name="one" format="2">
  <advance width="672.0"/>
  <unicode hex="0031"/>
  <outline>
    <contour>
      <point x="82.2" y="0.0" type="line"/>
      <point x="548.4" y="0.0" type="line"/>
      <point x="577.1999999999999" y="176.0" type="line"/>
      <point x="456.40000000000003" y="176.0" type="line"/>
      <point x="541.4" y="700.0" type="line"/>
      <point x="436.2" y="700.0" type="line"/>
      <point x="150.4" y="606.4" type="line"/>
      <point x="166.4" y="414.2" type="line"/>
      <point x="286.20000000000005" y="452.6" type="line"/>
      <point x="242.00000000000003" y="176.0" type="line"/>
      <point x="110.4" y="176.0" type="line"/>
    </contour>
  </outline>
</glyph>
<glyph name="two" format="2">
  <advance width="672"/>
  <unicode hex="0032"/>
  <outline>
    <contour>
      <point x="52" y="138" type="curve"/>
      <point x="31" y="0" type="line"/>
      <point x="554" y="0" type="line"/>
      <point x="583" y="170" type="line"/>
      <point x="368" y="170" type="line"/>
      <point x="486" y="271"/>
      <point x="599" y="375"/>
      <point x="599" y="525" type="curve" smooth="yes"/>
      <point x="599" y="645"/>
      <point x="506" y="710"/>
      <point x="385" y="710" type="curve" smooth="yes"/>
      <point x="292" y="710"/>
      <point x="188" y="680"/>
      <point x="116" y="638" type="curve"/>
      <point x="148" y="446" type="line"/>
      <point x="202" y="470"/>
      <point x="254" y="489"/>
      <point x="301" y="489" type="curve" smooth="yes"/>
      <point x="346" y="489"/>
      <point x="363" y="467"/>
      <point x="363" y="440" type="curve" smooth="yes"/>
      <point x="363" y="347"/>
      <point x="204" y="208"/>
    </contour>
  </outline>
</glyph>
<glyph name="four" format="2">
  <advance width="672"/>
  <unicode hex="0034"/>
  <outline>
    <contour>
      <point x="1" y="84" type="line"/>
      <point x="301" y="84" type="line"/>
      <point x="288" y="0" type="line"/>
      <point x="508" y="0" type="line"/>
      <point x="521" y="84" type="line"/>
      <point x="601" y="84" type="line"/>
      <point x="626" y="244" type="line"/>
      <point x="547" y="244" type="line"/>
      <point x="622" y="700" type="line"/>
      <point x="436" y="700" type="line"/>
      <point x="24" y="228" type="line"/>
    </contour>
    <contour>
      <point x="190" y="244" type="line"/>
      <point x="367" y="444" type="line"/>
      <point x="332" y="244" type="line"/>
    </contour>
  </outline>
</glyph>
<glyph name="five" format="2">
  <advance width="672"/>
  <unicode hex="0035"/>
  <outline>
    <contour>
      <point x="21" y="34" type="line"/>
      <point x="88" y="2"/>
      <point x="164" y="-10"/>
      <point x="259" y="-10" type="curve" smooth="yes"/>
      <point x="499" y="-10"/>
      <point x="599" y="115"/>
      <point x="599" y="270" type="curve" smooth="yes"/>
      <point x="599" y="388"/>
      <point x="532" y="435"/>
      <point x="395" y="437" type="curve" smooth="yes"/>
      <point x="318" y="438" type="line"/>
      <point x="330" y="519" type="line"/>
      <point x="607" y="519" type="line"/>
      <point x="636" y="700" type="line"/>
      <point x="218" y="700" type="line"/>
      <point x="104" y="285" type="line"/>
      <point x="110" y="275" type="line"/>
      <point x="293" y="275" type="line" smooth="yes"/>
      <point x="365" y="275"/>
      <point x="381" y="259"/>
      <point x="381" y="232" type="curve" smooth="yes"/>
      <point x="381" y="199"/>
      <point x="356" y="167"/>
      <point x="263" y="167" type="curve" smooth="yes"/>
      <point x="195" y="167"/>
      <point x="128" y="187"/>
      <point x="86" y="202" type="curve"/>
    </contour>
  </outline>
</glyph>
<glyph name="seven" format="2">
  <advance width="672.0"/>
  <unicode hex="0037"/>
  <note>
9
</note>
  <outline>
    <contour>
      <point x="116.19999999999999" y="0.0" type="curve"/>
      <point x="340.40000000000003" y="0.0" type="line"/>
      <point x="363.2" y="115.79999999999998"/>
      <point x="405.40000000000003" y="200.4"/>
      <point x="509.6" y="354.0" type="curve" smooth="yes"/>
      <point x="646.2" y="553.6" type="line"/>
      <point x="669.4" y="700.0" type="line"/>
      <point x="142.2" y="700.0" type="line"/>
      <point x="112.39999999999999" y="514.6" type="line"/>
      <point x="398.00000000000006" y="514.6" type="line"/>
      <point x="278.2" y="355.6" type="line" smooth="yes"/>
      <point x="183.0" y="228.8"/>
      <point x="137.4" y="127.80000000000001"/>
    </contour>
  </outline>
</glyph>
<glyph name="eight" format="2">
  <advance width="734.0"/>
  <unicode hex="0038"/>
  <outline>
    <contour>
      <point x="350.0" y="-10.0" type="curve" smooth="yes"/>
      <point x="531.0" y="-10.0"/>
      <point x="674.0" y="31.0"/>
      <point x="674.0" y="217.0" type="curve" smooth="yes"/>
      <point x="674.0" y="483.0"/>
      <point x="270.0" y="370.0"/>
      <point x="270.0" y="521.0" type="curve" smooth="yes"/>
      <point x="270.0" y="550.0"/>
      <point x="347.0" y="552.0"/>
      <point x="419.0" y="552.0" type="curve" smooth="yes"/>
      <point x="508.0" y="552.0"/>
      <point x="559.0" y="524.0"/>
      <point x="559.0" y="483.0" type="curve" smooth="yes"/>
      <point x="559.0" y="437.0"/>
      <point x="504.0" y="431.0"/>
      <point x="472.0" y="416.0" type="curve"/>
      <point x="545.0" y="347.0" type="line"/>
      <point x="620.0" y="386.0"/>
      <point x="710.0" y="431.0"/>
      <point x="710.0" y="529.0" type="curve" smooth="yes"/>
      <point x="710.0" y="624.0"/>
      <point x="627.0" y="710.0"/>
      <point x="427.0" y="710.0" type="curve" smooth="yes"/>
      <point x="238.0" y="710.0"/>
      <point x="111.0" y="643.0"/>
      <point x="111.0" y="513.0" type="curve" smooth="yes"/>
      <point x="111.0" y="257.0"/>
      <point x="512.0" y="366.0"/>
      <point x="512.0" y="203.0" type="curve" smooth="yes"/>
      <point x="512.0" y="135.0"/>
      <point x="440.0" y="141.0"/>
      <point x="357.0" y="141.0" type="curve" smooth="yes"/>
      <point x="258.0" y="141.0"/>
      <point x="193.0" y="180.0"/>
      <point x="193.0" y="222.0" type="curve" smooth="yes"/>
      <point x="193.0" y="278.0"/>
      <point x="268.0" y="288.0"/>
      <point x="309.0" y="293.0" type="curve"/>
      <point x="232.0" y="375.0" type="line"/>
      <point x="131.0" y="364.0"/>
      <point x="30.0" y="293.0"/>
      <point x="30.0" y="201.0" type="curve" smooth="yes"/>
      <point x="30.0" y="87.0"/>
      <point x="131.0" y="-10.0"/>
    </contour>
  </outline>
</glyph>
<glyph name="nine" format="2">
  <advance width="672"/>
  <unicode hex="0039"/>
  <outline>
    <contour>
      <point x="384" y="710" type="curve" smooth="yes"/>
      <point x="196" y="710"/>
      <point x="77" y="605"/>
      <point x="77" y="438" type="curve" smooth="yes"/>
      <point x="77" y="305"/>
      <point x="154" y="243"/>
      <point x="279" y="243" type="curve" smooth="yes"/>
      <point x="340" y="243"/>
      <point x="392" y="256"/>
      <point x="442" y="297" type="curve"/>
      <point x="453" y="429" type="line"/>
      <point x="425" y="412"/>
      <point x="389" y="396"/>
      <point x="353" y="396" type="curve" smooth="yes"/>
      <point x="294" y="396"/>
      <point x="275" y="418"/>
      <point x="275" y="453" type="curve" smooth="yes"/>
      <point x="275" y="503"/>
      <point x="315" y="538"/>
      <point x="364" y="538" type="curve" smooth="yes"/>
      <point x="419" y="538"/>
      <point x="443" y="507"/>
      <point x="443" y="456" type="curve" smooth="yes"/>
      <point x="443" y="369"/>
      <point x="430" y="289"/>
      <point x="384" y="236" type="curve" smooth="yes"/>
      <point x="348" y="194"/>
      <point x="304" y="168"/>
      <point x="222" y="168" type="curve" smooth="yes"/>
      <point x="173" y="168"/>
      <point x="136" y="180"/>
      <point x="99" y="194" type="curve"/>
      <point x="30" y="30" type="line"/>
      <point x="65" y="12"/>
      <point x="144" y="-10"/>
      <point x="237" y="-10" type="curve" smooth="yes"/>
      <point x="499" y="-10"/>
      <point x="649" y="187"/>
      <point x="649" y="453" type="curve" smooth="yes"/>
      <point x="649" y="616"/>
      <point x="553" y="710"/>
    </contour>
  </outline>
</glyph>
<glyph name="less" format="2">
  <advance width="526.0"/>
  <unicode hex="003C"/>
  <outline>
    <contour>
      <point x="456.6" y="73.2" type="line"/>
      <point x="483.4" y="243.6" type="line"/>
      <point x="224.2" y="314.4" type="line"/>
      <point x="507.0" y="385.4" type="line"/>
      <point x="533.8" y="556.0" type="line"/>
      <point x="57.4" y="408.2" type="line"/>
      <point x="28.400000000000002" y="225.4" type="line"/>
    </contour>
  </outline>
</glyph>
<glyph name="equal" format="2">
  <advance width="504.2"/>
  <unicode hex="003D"/>
  <outline>
    <contour>
      <point x="455.2" y="286.6" type="line"/>
      <point x="53.6" y="286.6" type="line"/>
      <point x="26.200000000000003" y="108.6" type="line"/>
      <point x="427.8" y="108.6" type="line"/>
    </contour>
    <contour>
      <point x="490.2" y="521.2" type="line"/>
      <point x="88.8" y="521.2" type="line"/>
      <point x="61.2" y="343.2" type="line"/>
      <point x="462.8" y="343.2" type="line"/>
    </contour>
  </outline>
</glyph>
<glyph name="greater" format="2">
  <advance width="526.0"/>
  <unicode hex="003E"/>
  <outline>
    <contour>
      <point x="481.2" y="225.39999999999998" type="line"/>
      <point x="509.40000000000003" y="402.20000000000005" type="line"/>
      <point x="82.60000000000001" y="552.0" type="line"/>
      <point x="55.0" y="385.4" type="line"/>
      <point x="315.20000000000005" y="314.40000000000003" type="line"/>
      <point x="32.2" y="243.6" type="line"/>
      <point x="5.0" y="73.19999999999999" type="line"/>
    </contour>
  </outline>
</glyph>
<glyph name="question" format="2">
  <advance width="487.4"/>
  <unicode hex="003F"/>
  <outline>
    <contour>
      <point x="128.60000000000002" y="259.0" type="line"/>
      <point x="306.40000000000003" y="259.0" type="line"/>
      <point x="317.59999999999997" y="320.4" type="line"/>
      <point x="432.59999999999997" y="358.0"/>
      <point x="519.4000000000001" y="445.40000000000003"/>
      <point x="519.4000000000001" y="568.8000000000001" type="curve" smooth="yes"/>
      <point x="519.4000000000001" y="694.0"/>
      <point x="431.4" y="750.0"/>
      <point x="311.6" y="750.0" type="curve" smooth="yes"/>
      <point x="227.4" y="750.0"/>
      <point x="134.6" y="726.5999999999999"/>
      <point x="73.8" y="685.0" type="curve"/>
      <point x="106.4" y="509.40000000000003" type="line"/>
      <point x="154.79999999999998" y="535.4"/>
      <point x="195.4" y="550.0"/>
      <point x="236.40000000000003" y="550.0" type="curve" smooth="yes"/>
      <point x="271.2" y="550.0"/>
      <point x="287.4" y="536.1999999999999"/>
      <point x="287.4" y="516.2" type="curve" smooth="yes"/>
      <point x="287.4" y="473.40000000000003"/>
      <point x="246.4" y="444.59999999999997"/>
      <point x="150.6" y="420.0" type="curve"/>
    </contour>
    <contour>
      <point x="78.0" y="70.6" type="curve" smooth="yes"/>
      <point x="78.0" y="17.0"/>
      <point x="106.39999999999998" y="-10.0"/>
      <point x="174.2" y="-10.0" type="curve" smooth="yes"/>
      <point x="265.59999999999997" y="-10.0"/>
      <point x="308.2" y="59.0"/>
      <point x="308.20000000000005" y="140.20000000000002" type="curve" smooth="yes"/>
      <point x="308.2" y="195.0"/>
      <point x="280.40000000000003" y="222.6"/>
      <point x="213.0" y="222.6" type="curve" smooth="yes"/>
      <point x="119.0" y="222.6"/>
      <point x="78.0" y="150.4"/>
    </contour>
  </outline>
</glyph>
<glyph name="at" format="2">
  <advance width="1044.0"/>
  <unicode hex="0040"/>
  <outline>
    <contour>
      <point x="469.0" y="-121.0" type="curve" smooth="yes"/>
      <point x="533.0" y="-121.0"/>
      <point x="645.0" y="-104.0"/>
      <point x="715.0" y="-83.0" type="curve"/>
      <point x="700.0" y="-12.0" type="line"/>
      <point x="620.0" y="-30.0"/>
      <point x="540.0" y="-41.0"/>
      <point x="471.0" y="-41.0" type="curve" smooth="yes"/>
      <point x="279.0" y="-41.0"/>
      <point x="133.0" y="50.0"/>
      <point x="133.0" y="275.0" type="curve" smooth="yes"/>
      <point x="133.0" y="433.0"/>
      <point x="284.0" y="647.0"/>
      <point x="576.0" y="647.0" type="curve" smooth="yes"/>
      <point x="803.0" y="647.0"/>
      <point x="920.0" y="524.0"/>
      <point x="920.0" y="327.0" type="curve" smooth="yes"/>
      <point x="920.0" y="279.0"/>
      <point x="904.0" y="166.0"/>
      <point x="800.0" y="166.0" type="curve" smooth="yes"/>
      <point x="735.0" y="166.0"/>
      <point x="725.0" y="200.0"/>
      <point x="743.0" y="274.0" type="curve" smooth="yes"/>
      <point x="807.0" y="519.0" type="line"/>
      <point x="740.0" y="548.0"/>
      <point x="672.0" y="566.0"/>
      <point x="592.0" y="566.0" type="curve" smooth="yes"/>
      <point x="354.0" y="566.0"/>
      <point x="254.0" y="360.0"/>
      <point x="254.0" y="219.0" type="curve" smooth="yes"/>
      <point x="254.0" y="110.0"/>
      <point x="310.0" y="53.0"/>
      <point x="407.0" y="53.0" type="curve" smooth="yes"/>
      <point x="482.0" y="53.0"/>
      <point x="551.0" y="105.0"/>
      <point x="603.0" y="156.0" type="curve"/>
      <point x="622.0" y="62.0"/>
      <point x="685.0" y="48.0"/>
      <point x="762.0" y="48.0" type="curve" smooth="yes"/>
      <point x="938.0" y="48.0"/>
      <point x="1004.0" y="190.0"/>
      <point x="1004.0" y="339.0" type="curve" smooth="yes"/>
      <point x="1004.0" y="578.0"/>
      <point x="829.0" y="726.0"/>
      <point x="593.0" y="726.0" type="curve" smooth="yes"/>
      <point x="233.0" y="726.0"/>
      <point x="48.0" y="486.0"/>
      <point x="48.0" y="257.0" type="curve" smooth="yes"/>
      <point x="48.0" y="21.0"/>
      <point x="205.0" y="-121.0"/>
    </contour>
    <contour>
      <point x="494.0" y="218.0" type="curve" smooth="yes"/>
      <point x="450.0" y="218.0"/>
      <point x="427.0" y="238.0"/>
      <point x="427.0" y="271.0" type="curve" smooth="yes"/>
      <point x="427.0" y="295.0"/>
      <point x="491.0" y="435.0"/>
      <point x="575.0" y="435.0" type="curve" smooth="yes"/>
      <point x="598.0" y="435.0"/>
      <point x="612.0" y="432.0"/>
      <point x="634.0" y="424.0" type="curve"/>
      <point x="585.0" y="229.0" type="line" smooth="yes"/>
      <point x="568.0" y="228.0"/>
      <point x="529.0" y="218.0"/>
    </contour>
  </outline>
</glyph>
<glyph name="A" format="2">
  <advance width="666.6"/>
  <unicode hex="0041"/>
  <anchor x="290.2" y="0.0" name="bottom"/>
  <anchor x="620.2" y="0.0" name="ogonek"/>
  <anchor x="398.4" y="700.0" name="top"/>
  <outline>
    <contour>
      <point x="-41.6" y="0.0" type="line"/>
      <point x="193.60000000000002" y="0.0" type="line"/>
      <point x="227.0" y="97.6" type="line"/>
      <point x="382.2" y="97.6" type="line"/>
      <point x="386.0" y="0.0" type="line"/>
      <point x="620.2" y="0.0" type="line"/>
      <point x="537.8" y="704.0" type="line"/>
      <point x="258.0" y="704.0" type="line"/>
    </contour>
    <contour>
      <point x="292.4" y="269.6" type="line"/>
      <point x="375.2" y="545.6" type="line"/>
      <point x="374.4" y="269.6" type="line"/>
    </contour>
  </outline>
</glyph>
<glyph name="B" format="2">
  <advance width="641.8"/>
  <unicode hex="0042"/>
  <outline>
    <contour>
      <point x="0.20000000000000284" y="5.0" type="line"/>
      <point x="110.80000000000001" y="-5.2"/>
      <point x="189.0" y="-10.0"/>
      <point x="288.40000000000003" y="-10.0" type="curve" smooth="yes"/>
      <point x="474.40000000000003" y="-10.0"/>
      <point x="626.6000000000001" y="70.8"/>
      <point x="626.6000000000001" y="251.2" type="curve" smooth="yes"/>
      <point x="626.6000000000001" y="317.20000000000005"/>
      <point x="594.6" y="370.8"/>
      <point x="526.1999999999999" y="389.6" type="curve"/>
      <point x="600.4" y="426.6"/>
      <point x="645.4000000000001" y="482.2"/>
      <point x="645.4000000000001" y="565.8000000000001" type="curve" smooth="yes"/>
      <point x="645.4000000000001" y="658.2"/>
      <point x="574.1999999999999" y="710.0"/>
      <point x="388.0" y="710.0" type="curve" smooth="yes"/>
      <point x="329.6" y="710.0"/>
      <point x="238.0" y="706.6"/>
      <point x="110.6" y="695.0" type="curve"/>
    </contour>
    <contour>
      <point x="284.8" y="428.0" type="line"/>
      <point x="300.8" y="531.4" type="line"/>
      <point x="330.4" y="533.8000000000001"/>
      <point x="336.2" y="535.4"/>
      <point x="362.0" y="535.4" type="curve" smooth="yes"/>
      <point x="415.8" y="535.4"/>
      <point x="429.59999999999997" y="526.6"/>
      <point x="429.59999999999997" y="498.2" type="curve" smooth="yes"/>
      <point x="429.59999999999997" y="445.0"/>
      <point x="394.4" y="428.0"/>
      <point x="368.80000000000007" y="428.0" type="curve" smooth="yes"/>
    </contour>
    <contour>
      <point x="259.0" y="270.2" type="line"/>
      <point x="344.0" y="270.2" type="line" smooth="yes"/>
      <point x="391.2" y="270.2"/>
      <point x="403.8" y="258.79999999999995"/>
      <point x="403.8" y="235.0" type="curve" smooth="yes"/>
      <point x="403.8" y="179.39999999999998"/>
      <point x="371.79999999999995" y="161.0"/>
      <point x="296.40000000000003" y="161.0" type="curve" smooth="yes"/>
      <point x="285.8" y="161.0"/>
      <point x="259.6" y="161.8"/>
      <point x="242.0" y="164.4" type="curve"/>
    </contour>
  </outline>
</glyph>
<glyph name="C" format="2">
  <advance width="599"/>
  <unicode hex="0043"/>
  <anchor x="307" y="0" name="bottom"/>
  <anchor x="416" y="700" name="top"/>
  <outline>
    <contour>
      <point x="352" y="-10" type="curve" smooth="yes"/>
      <point x="418" y="-10"/>
      <point x="476" y="-3"/>
      <point x="544" y="14" type="curve"/>
      <point x="532" y="188" type="line"/>
      <point x="484" y="180"/>
      <point x="440" y="172"/>
      <point x="393" y="172" type="curve" smooth="yes"/>
      <point x="302" y="172"/>
      <point x="254" y="192"/>
      <point x="254" y="282" type="curve" smooth="yes"/>
      <point x="254" y="421"/>
      <point x="311" y="528"/>
      <point x="420" y="528" type="curve" smooth="yes"/>
      <point x="473" y="528"/>
      <point x="533" y="516"/>
      <point x="575" y="503" type="curve"/>
      <point x="630" y="671" type="line"/>
      <point x="560" y="700"/>
      <point x="481" y="710"/>
      <point x="404" y="710" type="curve" smooth="yes"/>
      <point x="171" y="710"/>
      <point x="30" y="534"/>
      <point x="30" y="252" type="curve" smooth="yes"/>
      <point x="30" y="69"/>
      <point x="140" y="-10"/>
    </contour>
  </outline>
</glyph>
<glyph name="D" format="2">
  <advance width="684"/>
  <unicode hex="0044"/>
  <anchor x="291" y="0" name="bottom"/>
  <anchor x="353" y="350" name="center"/>
  <anchor x="365" y="700" name="top"/>
  <outline>
    <contour>
      <point x="276" y="-10" type="curve" smooth="yes"/>
      <point x="541" y="-10"/>
      <point x="674" y="156"/>
      <point x="674" y="420" type="curve" smooth="yes"/>
      <point x="674" y="606"/>
      <point x="576" y="710"/>
      <point x="355" y="710" type="curve" smooth="yes"/>
      <point x="282" y="710"/>
      <point x="206" y="707"/>
      <point x="111" y="699" type="curve"/>
      <point x="-1" y="3" type="line"/>
      <point x="81" y="-5"/>
      <point x="163" y="-10"/>
    </contour>
    <contour>
      <point x="300" y="157" type="curve" smooth="yes"/>
      <point x="272" y="157"/>
      <point x="263" y="159"/>
      <point x="241" y="160" type="curve"/>
      <point x="301" y="535" type="line"/>
      <point x="315" y="536"/>
      <point x="332" y="537"/>
      <point x="358" y="537" type="curve" smooth="yes"/>
      <point x="421" y="537"/>
      <point x="453" y="493"/>
      <point x="453" y="415" type="curve" smooth="yes"/>
      <point x="453" y="263"/>
      <point x="398" y="157"/>
    </contour>
  </outline>
</glyph>
<glyph name="E" format="2">
  <advance width="588.8000000000001"/>
  <unicode hex="0045"/>
  <anchor x="260.80000000000007" y="0.0" name="bottom"/>
  <anchor x="522.4000000000001" y="0.0" name="ogonek"/>
  <anchor x="363.8" y="700.0" name="top"/>
  <anchor x="87.313" y="700.0" name="topleft"/>
  <outline>
    <contour>
      <point x="-1.3999999999999986" y="0.0" type="line"/>
      <point x="522.4000000000001" y="0.0" type="line"/>
      <point x="551.0" y="176.8" type="line"/>
      <point x="241.0" y="176.8" type="line"/>
      <point x="255.39999999999998" y="268.8" type="line"/>
      <point x="524.0" y="268.8" type="line"/>
      <point x="551.0" y="429.6" type="line"/>
      <point x="281.8" y="429.6" type="line"/>
      <point x="296.2" y="520.2" type="line"/>
      <point x="589.6" y="520.2" type="line"/>
      <point x="619.4" y="700.0" type="line"/>
      <point x="110.6" y="700.0" type="line"/>
    </contour>
  </outline>
</glyph>
<glyph name="F" format="2">
  <advance width="563.6"/>
  <unicode hex="0046"/>
  <outline>
    <contour>
      <point x="-2.0" y="0.0" type="line"/>
      <point x="215.2" y="0.0" type="line"/>
      <point x="247.39999999999998" y="201.2" type="line"/>
      <point x="493.20000000000005" y="201.2" type="line"/>
      <point x="522.8000000000001" y="383.0" type="line"/>
      <point x="276.40000000000003" y="383.0" type="line"/>
      <point x="297.4" y="514.2" type="line"/>
      <point x="583.6" y="514.2" type="line"/>
      <point x="614.6" y="700.0" type="line"/>
      <point x="110.6" y="700.0" type="line"/>
    </contour>
  </outline>
</glyph>
<glyph name="G" format="2">
  <advance width="642.6"/>
  <unicode hex="0047"/>
  <anchor x="324.6" y="0.0" name="bottom"/>
  <anchor x="421.6" y="700.0" name="top"/>
  <outline>
    <contour>
      <point x="323.80000000000007" y="-10.0" type="curve" smooth="yes"/>
      <point x="431.40000000000003" y="-10.0"/>
      <point x="517.0" y="10.0"/>
      <point x="575.0000000000001" y="41.2" type="curve"/>
      <point x="636.4000000000001" y="420.2" type="line"/>
      <point x="365.6" y="420.2" type="line"/>
      <point x="340.40000000000003" y="262.0" type="line"/>
      <point x="420.59999999999997" y="262.0" type="line"/>
      <point x="405.6" y="168.2" type="line"/>
      <point x="393.6" y="163.0"/>
      <point x="371.8" y="158.8"/>
      <point x="345.20000000000005" y="158.8" type="curve" smooth="yes"/>
      <point x="276.0" y="158.8"/>
      <point x="243.4" y="184.4"/>
      <point x="243.4" y="264.59999999999997" type="curve" smooth="yes"/>
      <point x="243.4" y="404.79999999999995"/>
      <point x="305.0" y="529.0"/>
      <point x="427.0" y="529.0" type="curve" smooth="yes"/>
      <point x="491.6" y="529.0"/>
      <point x="542.8" y="516.6"/>
      <point x="589.0" y="505.20000000000005" type="curve"/>
      <point x="653.8000000000001" y="676.1999999999999" type="line"/>
      <point x="579.2" y="701.2"/>
      <point x="504.20000000000005" y="710.0"/>
      <point x="418.00000000000006" y="710.0" type="curve" smooth="yes"/>
      <point x="142.6" y="710.0"/>
      <point x="26.8" y="476.6"/>
      <point x="26.8" y="249.60000000000002" type="curve" smooth="yes"/>
      <point x="26.8" y="79.8"/>
      <point x="135.39999999999998" y="-10.0"/>
    </contour>
  </outline>
</glyph>
<glyph name="H" format="2">
  <advance width="675.5999999999999"/>
  <unicode hex="0048"/>
  <anchor x="294.244" y="0.0" name="bottom"/>
  <anchor x="349.679" y="350.0" name="center"/>
  <anchor x="405.11300000000006" y="700.0" name="top"/>
  <anchor x="87.313" y="700.0" name="topleft"/>
  <outline>
    <contour>
      <point x="-2.0" y="0.0" type="line"/>
      <point x="215.2" y="0.0" type="line"/>
      <point x="251.6" y="231.8" type="line"/>
      <point x="411.6" y="231.8" type="line"/>
      <point x="375.0" y="0.0" type="line"/>
      <point x="588.0" y="0.0" type="line"/>
      <point x="700.5999999999999" y="700.0" type="line"/>
      <point x="487.4" y="700.0" type="line"/>
      <point x="441.4" y="417.2" type="line"/>
      <point x="281.4" y="417.2" type="line"/>
      <point x="327.8" y="700.0" type="line"/>
      <point x="110.6" y="700.0" type="line"/>
    </contour>
  </outline>
</glyph>
<glyph name="I" format="2">
  <advance width="302.8"/>
  <unicode hex="0049"/>
  <anchor x="107.6664" y="0.0" name="bottom"/>
  <anchor x="217.0168" y="6.0" name="ogonek"/>
  <anchor x="218.58780000000002" y="700.0" name="top"/>
  <anchor x="87.1878" y="700.0" name="topleft"/>
  <outline>
    <contour>
      <point x="-2.0" y="0.0" type="line"/>
      <point x="215.2" y="0.0" type="line"/>
      <point x="327.8" y="700.0" type="line"/>
      <point x="110.6" y="700.0" type="line"/>
    </contour>
  </outline>
</glyph>
<glyph name="J" format="2">
  <advance width="517.4000000000001"/>
  <unicode hex="004A"/>
  <anchor x="213.8664" y="0.0" name="bottom"/>
  <anchor x="333.40000000000003" y="700.0" name="top"/>
  <outline>
    <contour>
      <point x="-30.599999999999998" y="29.6" type="line"/>
      <point x="39.8" y="4.800000000000001"/>
      <point x="117.60000000000001" y="-10.0"/>
      <point x="198.20000000000002" y="-10.0" type="curve" smooth="yes"/>
      <point x="359.00000000000006" y="-10.0"/>
      <point x="444.00000000000006" y="71.6"/>
      <point x="472.0" y="239.4" type="curve" smooth="yes"/>
      <point x="546.8" y="700.0" type="line"/>
      <point x="124.8" y="700.0" type="line"/>
      <point x="94.8" y="516.8" type="line"/>
      <point x="299.6" y="516.8" type="line"/>
      <point x="264.6" y="296.4" type="line" smooth="yes"/>
      <point x="250.60000000000005" y="208.20000000000002"/>
      <point x="223.0" y="185.2"/>
      <point x="165.4" y="185.2" type="curve" smooth="yes"/>
      <point x="132.4" y="185.2"/>
      <point x="85.6" y="194.60000000000002"/>
      <point x="28.200000000000003" y="209.2" type="curve"/>
    </contour>
  </outline>
</glyph>
<glyph name="K" format="2">
  <advance width="661.8"/>
  <unicode hex="004B"/>
  <anchor x="308.0" y="0.0" name="bottom"/>
  <anchor x="403.4" y="700.0" name="top"/>
  <outline>
    <contour>
      <point x="-2.6000000000000014" y="0.0" type="line"/>
      <point x="215.6" y="0.0" type="line"/>
      <point x="327.2" y="700.0" type="line"/>
      <point x="111.4" y="700.0" type="line"/>
    </contour>
    <contour>
      <point x="540.8" y="-9.6" type="curve" smooth="yes"/>
      <point x="557.6" y="-9.6"/>
      <point x="592.4" y="-4.0"/>
      <point x="601.6" y="-0.6000000000000001" type="curve"/>
      <point x="627.8" y="220.2" type="line"/>
      <point x="620.4" y="220.4"/>
      <point x="614.0" y="220.0"/>
      <point x="607.6" y="220.0" type="curve" smooth="yes"/>
      <point x="571.6" y="220.0"/>
      <point x="533.8" y="233.0"/>
      <point x="485.6" y="276.8" type="curve" smooth="yes"/>
      <point x="253.4" y="485.4" type="line"/>
      <point x="221.6" y="247.2" type="line"/>
      <point x="397.0" y="52.8" type="line" smooth="yes"/>
      <point x="436.0" y="13.399999999999999"/>
      <point x="485.4" y="-9.6"/>
    </contour>
    <contour>
      <point x="397.6" y="284.8" type="line"/>
      <point x="542.2" y="377.8"/>
      <point x="643.4" y="489.6"/>
      <point x="698.0" y="614.8" type="curve"/>
      <point x="534.6" y="707.6" type="line"/>
      <point x="462.4" y="585.4"/>
      <point x="375.6" y="476.4"/>
      <point x="283.2" y="411.0" type="curve"/>
    </contour>
  </outline>
</glyph>
<glyph name="L" format="2">
  <advance width="554.0"/>
  <unicode hex="004C"/>
  <anchor x="251.6" y="0.0" name="bottom"/>
  <anchor x="288.879" y="350.0" name="center"/>
  <anchor x="219.2" y="700.0" name="top"/>
  <anchor x="400.2" y="700.0" name="topright"/>
  <outline>
    <contour>
      <point x="-2.0" y="0.0" type="line"/>
      <point x="489.6" y="0.0" type="line"/>
      <point x="520.6" y="184.8" type="line"/>
      <point x="245.4" y="184.8" type="line"/>
      <point x="327.8" y="700.0" type="line"/>
      <point x="110.6" y="700.0" type="line"/>
    </contour>
  </outline>
</glyph>
<glyph name="M" format="2">
  <advance width="766.4"/>
  <unicode hex="004D"/>
  <outline>
    <contour>
      <point x="-2.6000000000000014" y="0.0" type="line"/>
      <point x="197.6" y="0.0" type="line"/>
      <point x="255.0" y="379.6" type="line"/>
      <point x="307.6" y="113.6" type="line"/>
      <point x="402.0" y="113.6" type="line"/>
      <point x="542.8" y="380.8" type="line"/>
      <point x="479.79999999999995" y="0.0" type="line"/>
      <point x="678.8" y="0.0" type="line"/>
      <point x="791.4" y="700.0" type="line"/>
      <point x="561.2" y="700.0" type="line"/>
      <point x="395.0" y="387.8" type="line"/>
      <point x="324.6" y="700.0" type="line"/>
      <point x="110.6" y="700.0" type="line"/>
    </contour>
  </outline>
</glyph>
<glyph name="N" format="2">
  <advance width="656"/>
  <unicode hex="004E"/>
  <anchor x="288" y="0" name="bottom"/>
  <anchor x="396" y="700" name="top"/>
  <outline>
    <contour>
      <point x="-2" y="0" type="line"/>
      <point x="190" y="0" type="line"/>
      <point x="245" y="332" type="line"/>
      <point x="367" y="0" type="line"/>
      <point x="568" y="0" type="line"/>
      <point x="681" y="700" type="line"/>
      <point x="488" y="700" type="line"/>
      <point x="429" y="345" type="line"/>
      <point x="312" y="700" type="line"/>
      <point x="111" y="700" type="line"/>
    </contour>
  </outline>
</glyph>
<glyph name="P" format="2">
  <advance width="670"/>
  <unicode hex="0050"/>
  <outline>
    <contour>
      <point x="-2" y="0" type="line"/>
      <point x="214" y="0" type="line"/>
      <point x="241" y="161" type="line"/>
      <point x="293" y="157"/>
      <point x="307" y="157"/>
      <point x="335" y="157" type="curve" smooth="yes"/>
      <point x="575" y="157"/>
      <point x="685" y="271"/>
      <point x="685" y="488" type="curve" smooth="yes"/>
      <point x="685" y="640"/>
      <point x="601" y="710"/>
      <point x="391" y="710" type="curve" smooth="yes"/>
      <point x="341" y="710"/>
      <point x="241" y="707"/>
      <point x="111" y="701" type="curve"/>
    </contour>
    <contour>
      <point x="301" y="532" type="line"/>
      <point x="346" y="534"/>
      <point x="354" y="535"/>
      <point x="387" y="535" type="curve" smooth="yes"/>
      <point x="447" y="535"/>
      <point x="465" y="510"/>
      <point x="465" y="456" type="curve" smooth="yes"/>
      <point x="465" y="393"/>
      <point x="431" y="333"/>
      <point x="324" y="333" type="curve" smooth="yes"/>
      <point x="309" y="333"/>
      <point x="299" y="334"/>
      <point x="269" y="336" type="curve"/>
    </contour>
  </outline>
</glyph>
<glyph name="Q" format="2">
  <advance width="682.2"/>
  <unicode hex="0051"/>
  <note>
14
</note>
  <outline>
    <contour>
      <point x="489.00000000000006" y="-181.4" type="curve" smooth="yes"/>
      <point x="517.2" y="-181.4"/>
      <point x="546.6" y="-177.4"/>
      <point x="576.6" y="-169.0" type="curve"/>
      <point x="588.6000000000001" y="2.6000000000000014" type="line"/>
      <point x="577.6" y="-1.1999999999999993"/>
      <point x="563.6" y="-3.1999999999999993"/>
      <point x="547.8" y="-3.1999999999999993" type="curve" smooth="yes"/>
      <point x="510.0" y="-3.1999999999999993"/>
      <point x="476.80000000000007" y="11.8"/>
      <point x="466.59999999999997" y="31.4" type="curve"/>
      <point x="279.40000000000003" y="14.6" type="line"/>
      <point x="297.2" y="-129.79999999999998"/>
      <point x="390.40000000000003" y="-181.4"/>
    </contour>
    <component base="O"/>
  </outline>
</glyph>
<glyph name="S" format="2">
  <advance width="597"/>
  <unicode hex="0053"/>
  <anchor x="280" y="0" name="bottom"/>
  <anchor x="369" y="700" name="top"/>
  <outline>
    <contour>
      <point x="608" y="667" type="line"/>
      <point x="541" y="694"/>
      <point x="465" y="710"/>
      <point x="379" y="710" type="curve" smooth="yes"/>
      <point x="147" y="710"/>
      <point x="48" y="618"/>
      <point x="48" y="466" type="curve" smooth="yes"/>
      <point x="48" y="257"/>
      <point x="343" y="274"/>
      <point x="343" y="203" type="curve" smooth="yes"/>
      <point x="343" y="181"/>
      <point x="325" y="162"/>
      <point x="265" y="162" type="curve" smooth="yes"/>
      <point x="191" y="162"/>
      <point x="116" y="177"/>
      <point x="33" y="207" type="curve"/>
      <point x="-28" y="42" type="line"/>
      <point x="45" y="10"/>
      <point x="139" y="-10"/>
      <point x="250" y="-10" type="curve" smooth="yes"/>
      <point x="481" y="-10"/>
      <point x="577" y="84"/>
      <point x="577" y="226" type="curve" smooth="yes"/>
      <point x="577" y="439"/>
      <point x="284" y="428"/>
      <point x="284" y="494" type="curve" smooth="yes"/>
      <point x="284" y="522"/>
      <point x="302" y="539"/>
      <point x="365" y="539" type="curve" smooth="yes"/>
      <point x="431" y="539"/>
      <point x="496" y="528"/>
      <point x="551" y="507" type="curve"/>
    </contour>
  </outline>
</glyph>
<glyph name="T" format="2">
  <advance width="617.5999999999999"/>
  <unicode hex="0054"/>
  <anchor x="265.0664" y="0.0" name="bottom"/>
  <anchor x="320.7274" y="350.0" name="center"/>
  <anchor x="375.9878" y="700.0" name="top"/>
  <outline>
    <contour>
      <point x="640.2" y="524.8" type="line"/>
      <point x="670.8000000000001" y="700.0" type="line"/>
      <point x="84.2" y="700.0" type="line"/>
      <point x="53.2" y="524.8" type="line"/>
      <point x="238.8" y="524.8" type="line"/>
      <point x="155.8" y="0.0" type="line"/>
      <point x="373.0" y="0.0" type="line"/>
      <point x="455.6" y="524.8" type="line"/>
    </contour>
  </outline>
</glyph>
<glyph name="U" format="2">
  <advance width="664.0000000000001"/>
  <unicode hex="0055"/>
  <anchor x="288.644" y="0.0" name="bottom"/>
  <anchor x="387.00000000000006" y="0.0" name="ogonek"/>
  <anchor x="399.51300000000003" y="700.0" name="top"/>
  <anchor x="674.6" y="700.0" name="topright"/>
  <outline>
    <contour>
      <point x="283.79999999999995" y="-10.0" type="curve" smooth="yes"/>
      <point x="485.8" y="-10.0"/>
      <point x="591.1999999999999" y="67.8"/>
      <point x="619.1999999999999" y="239.2" type="curve" smooth="yes"/>
      <point x="693.4000000000001" y="700.0" type="line"/>
      <point x="479.0" y="700.0" type="line"/>
      <point x="403.8" y="229.20000000000002" type="line" smooth="yes"/>
      <point x="397.8" y="188.2"/>
      <point x="368.2" y="168.6"/>
      <point x="315.20000000000005" y="168.6" type="curve" smooth="yes"/>
      <point x="262.0" y="168.6"/>
      <point x="237.2" y="189.8"/>
      <point x="244.2" y="229.20000000000002" type="curve" smooth="yes"/>
      <point x="320.8" y="700.0" type="line"/>
      <point x="106.39999999999999" y="700.0" type="line"/>
      <point x="32.2" y="239.2" type="line" smooth="yes"/>
      <point x="27.6" y="209.0"/>
      <point x="26.000000000000004" y="191.2"/>
      <point x="26.000000000000004" y="175.0" type="curve" smooth="yes"/>
      <point x="26.000000000000004" y="49.400000000000006"/>
      <point x="109.2" y="-10.0"/>
    </contour>
  </outline>
</glyph>
<glyph name="V" format="2">
  <advance width="636"/>
  <unicode hex="0056"/>
  <outline>
    <contour>
      <point x="396" y="0" type="line"/>
      <point x="603" y="355"/>
      <point x="668" y="504"/>
      <point x="695" y="677" type="curve" smooth="yes"/>
      <point x="696" y="685"/>
      <point x="697" y="692"/>
      <point x="698" y="700" type="curve"/>
      <point x="464" y="700" type="line"/>
      <point x="464" y="696"/>
      <point x="465" y="691"/>
      <point x="465" y="683" type="curve" smooth="yes"/>
      <point x="465" y="539"/>
      <point x="379" y="370"/>
      <point x="310" y="192" type="curve"/>
      <point x="300" y="700" type="line"/>
      <point x="64" y="700" type="line"/>
      <point x="143" y="0" type="line"/>
    </contour>
  </outline>
</glyph>
<glyph name="W" format="2">
  <advance width="990.0"/>
  <unicode hex="0057"/>
  <anchor x="446.0" y="0.0" name="bottom"/>
  <anchor x="555.0" y="700.0" name="top"/>
  <outline>
    <contour>
      <point x="779.0" y="0.0" type="line"/>
      <point x="987.0" y="465.0"/>
      <point x="1039.0" y="578.0"/>
      <point x="1047.0" y="692.0" type="curve" smooth="yes"/>
      <point x="1047.0" y="694.0"/>
      <point x="1047.0" y="698.0"/>
      <point x="1048.0" y="700.0" type="curve"/>
      <point x="872.0" y="700.0" type="line"/>
      <point x="872.0" y="698.0"/>
      <point x="872.0" y="696.0"/>
      <point x="872.0" y="692.0" type="curve" smooth="yes"/>
      <point x="865.0" y="538.0"/>
      <point x="821.0" y="472.0"/>
      <point x="692.0" y="185.0" type="curve"/>
      <point x="635.0" y="663.0" type="line"/>
      <point x="468.0" y="663.0" type="line"/>
      <point x="419.0" y="510.0"/>
      <point x="348.0" y="296.0"/>
      <point x="285.0" y="177.0" type="curve"/>
      <point x="245.0" y="700.0" type="line"/>
      <point x="65.0" y="700.0" type="line"/>
      <point x="135.0" y="0.0" type="line"/>
      <point x="323.0" y="0.0" type="line"/>
      <point x="402.0" y="150.0"/>
      <point x="465.0" y="285.0"/>
      <point x="510.0" y="372.0" type="curve"/>
      <point x="580.0" y="0.0" type="line"/>
    </contour>
  </outline>
</glyph>
<glyph name="X" format="2">
  <advance width="686.0"/>
  <unicode hex="0058"/>
  <outline>
    <contour>
      <point x="464.0" y="-1.0" type="line"/>
      <point x="647.0" y="2.0" type="line"/>
      <point x="497.0" y="360.0" type="line"/>
      <point x="658.0" y="613.0"/>
      <point x="708.0" y="632.0"/>
      <point x="726.0" y="702.0" type="curve"/>
      <point x="551.0" y="705.0" type="line"/>
      <point x="529.0" y="624.0"/>
      <point x="463.0" y="542.0"/>
      <point x="367.0" y="462.0" type="curve"/>
      <point x="269.0" y="701.0" type="line"/>
      <point x="90.0" y="698.0" type="line"/>
      <point x="208.0" y="364.0" type="line"/>
      <point x="63.0" y="193.0"/>
      <point x="7.0" y="136.0"/>
      <point x="-17.0" y="0.0" type="curve"/>
      <point x="167.0" y="0.0" type="line"/>
      <point x="191.0" y="126.0"/>
      <point x="219.0" y="138.0"/>
      <point x="344.0" y="262.0" type="curve"/>
    </contour>
  </outline>
</glyph>
<glyph name="Y" format="2">
  <advance width="620.4"/>
  <unicode hex="0059"/>
  <anchor x="266.6" y="0.0" name="bottom"/>
  <anchor x="381.2" y="700.0" name="top"/>
  <anchor x="85.8" y="700.0" name="topleft"/>
  <outline>
    <contour>
      <point x="160.6" y="0.0" type="line"/>
      <point x="374.4" y="0.0" type="line"/>
      <point x="410.0" y="215.2" type="line"/>
      <point x="577.8" y="428.2"/>
      <point x="638.4" y="537.6"/>
      <point x="683.0" y="670.2" type="curve" smooth="yes"/>
      <point x="685.4" y="679.6"/>
      <point x="690.0" y="691.0"/>
      <point x="693.4" y="701.4" type="curve"/>
      <point x="450.0" y="700.4" type="line"/>
      <point x="448.6" y="690.8"/>
      <point x="446.6" y="681.6"/>
      <point x="445.6" y="672.4" type="curve" smooth="yes"/>
      <point x="422.6" y="570.2"/>
      <point x="400.2" y="491.8"/>
      <point x="332.4" y="375.0" type="curve"/>
      <point x="308.4" y="699.6" type="line"/>
      <point x="62.4" y="699.6" type="line"/>
      <point x="196.0" y="215.2" type="line"/>
    </contour>
  </outline>
</glyph>
<glyph name="Z" format="2">
  <advance width="607"/>
  <unicode hex="005A"/>
  <anchor x="260" y="0" name="bottom"/>
  <anchor x="316" y="350" name="center"/>
  <anchor x="367" y="700" name="top"/>
  <outline>
    <contour>
      <point x="-23" y="0" type="line"/>
      <point x="539" y="0" type="line"/>
      <point x="568" y="174" type="line"/>
      <point x="281" y="174" type="line"/>
      <point x="614" y="528" type="line"/>
      <point x="642" y="700" type="line"/>
      <point x="103" y="700" type="line"/>
      <point x="74" y="526" type="line"/>
      <point x="347" y="526" type="line"/>
      <point x="4" y="168" type="line"/>
    </contour>
  </outline>
</glyph>
<glyph name="bracketleft" format="2">
  <advance width="343.4"/>
  <unicode hex="005B"/>
  <outline>
    <contour>
      <point x="150.8" y="-58.0" type="line"/>
      <point x="255.4" y="588.0" type="line"/>
      <point x="372.79999999999995" y="588.0" type="line"/>
      <point x="397.79999999999995" y="740.0" type="line"/>
      <point x="117.80000000000001" y="740.0" type="line"/>
      <point x="-36.400000000000006" y="-210.0" type="line"/>
      <point x="242.59999999999997" y="-210.0" type="line"/>
      <point x="268.2" y="-58.0" type="line"/>
    </contour>
  </outline>
</glyph>
<glyph name="backslash" format="2">
  <advance width="405.4"/>
  <unicode hex="005C"/>
  <outline>
    <contour>
      <point x="230.20000000000002" y="740.0" type="line"/>
      <point x="70.6" y="740.0" type="line"/>
      <point x="207.39999999999998" y="-210.0" type="line"/>
      <point x="366.4" y="-210.0" type="line"/>
    </contour>
  </outline>
</glyph>
<glyph name="bracketright" format="2">
  <advance width="343.4"/>
  <unicode hex="005D"/>
  <outline>
    <contour>
      <point x="-32.400000000000006" y="-58.0" type="line"/>
      <point x="-57.0" y="-210.0" type="line"/>
      <point x="222.0" y="-210.0" type="line"/>
      <point x="377.2" y="740.0" type="line"/>
      <point x="97.2" y="740.0" type="line"/>
      <point x="71.6" y="588.0" type="line"/>
      <point x="189.0" y="588.0" type="line"/>
      <point x="83.8" y="-58.0" type="line"/>
    </contour>
  </outline>
</glyph>
<glyph name="asciicircum" format="2">
  <advance width="528.0"/>
  <unicode hex="005E"/>
  <outline>
    <contour>
      <point x="39.599999999999994" y="226.0" type="line"/>
      <point x="194.4" y="226.0" type="line"/>
      <point x="296.40000000000003" y="493.19999999999993" type="line"/>
      <point x="318.6" y="226.0" type="line"/>
      <point x="472.8" y="226.0" type="line"/>
      <point x="419.2" y="700.0" type="line"/>
      <point x="239.0" y="700.0" type="line"/>
    </contour>
  </outline>
</glyph>
<glyph name="underscore" format="2">
  <advance width="714.4000000000001"/>
  <unicode hex="005F"/>
  <outline>
    <contour>
      <point x="-69.0" y="-209.4" type="line"/>
      <point x="628.2" y="-209.4" type="line"/>
      <point x="656.4" y="-41.4" type="line"/>
      <point x="-40.8" y="-41.4" type="line"/>
    </contour>
  </outline>
</glyph>
<glyph name="f" format="2">
  <advance width="404.0"/>
  <unicode hex="0066"/>
  <outline>
    <contour>
      <point x="25.8" y="-220.0" type="curve" smooth="yes"/>
      <point x="145.4" y="-220.0"/>
      <point x="215.0" y="-144.6"/>
      <point x="238.20000000000002" y="0.0" type="curve" smooth="yes"/>
      <point x="293.4" y="349.4" type="line"/>
      <point x="395.0" y="349.4" type="line"/>
      <point x="421.0" y="511.0" type="line"/>
      <point x="319.0" y="511.0" type="line"/>
      <point x="326.0" y="554.8000000000001"/>
      <point x="347.20000000000005" y="567.0"/>
      <point x="383.20000000000005" y="567.0" type="curve" smooth="yes"/>
      <point x="406.0" y="567.0"/>
      <point x="437.6" y="561.6"/>
      <point x="456.6" y="555.0" type="curve"/>
      <point x="510.20000000000005" y="719.0" type="line"/>
      <point x="469.2" y="737.0"/>
      <point x="417.2" y="750.0"/>
      <point x="357.20000000000005" y="750.0" type="curve" smooth="yes"/>
      <point x="222.8" y="750.0"/>
      <point x="129.6" y="666.4"/>
      <point x="108.6" y="511.0" type="curve"/>
      <point x="46.0" y="498.79999999999995" type="line"/>
      <point x="21.2" y="349.4" type="line"/>
      <point x="82.6" y="349.4" type="line"/>
      <point x="30.400000000000002" y="17.2" type="line" smooth="yes"/>
      <point x="24.2" y="-21.599999999999998"/>
      <point x="8.399999999999999" y="-37.2"/>
      <point x="-13.399999999999997" y="-37.2" type="curve" smooth="yes"/>
      <point x="-22.4" y="-37.2"/>
      <point x="-34.0" y="-36.4"/>
      <point x="-46.4" y="-32.199999999999996" type="curve"/>
      <point x="-92.2" y="-198.4" type="line"/>
      <point x="-54.8" y="-213.2"/>
      <point x="-18.199999999999996" y="-220.0"/>
    </contour>
  </outline>
</glyph>
<glyph name="g" format="2">
  <advance width="593"/>
  <unicode hex="0067"/>
  <note>
16
</note>
  <anchor x="213" y="-216" name="bottom"/>
  <anchor x="342" y="550" name="top"/>
  <outline>
    <contour>
      <point x="-21" y="-173" type="line"/>
      <point x="48" y="-201"/>
      <point x="132" y="-220"/>
      <point x="222" y="-220" type="curve" smooth="yes"/>
      <point x="397" y="-220"/>
      <point x="491" y="-132"/>
      <point x="519" y="45" type="curve" smooth="yes"/>
      <point x="597" y="529" type="line"/>
      <point x="555" y="543"/>
      <point x="435" y="560"/>
      <point x="359" y="560" type="curve" smooth="yes"/>
      <point x="109" y="560"/>
      <point x="16" y="420"/>
      <point x="16" y="197" type="curve" smooth="yes"/>
      <point x="16" y="85"/>
      <point x="73" y="17"/>
      <point x="176" y="17" type="curve" smooth="yes"/>
      <point x="207" y="17"/>
      <point x="269" y="29"/>
      <point x="311" y="55" type="curve"/>
      <point x="308" y="30" type="line" smooth="yes"/>
      <point x="300" y="-33"/>
      <point x="265" y="-45"/>
      <point x="210" y="-45" type="curve" smooth="yes"/>
      <point x="155" y="-45"/>
      <point x="87" y="-29"/>
      <point x="33" y="-12" type="curve"/>
    </contour>
    <contour>
      <point x="364" y="393" type="curve"/>
      <point x="332" y="189" type="line"/>
      <point x="315" y="182"/>
      <point x="297" y="178"/>
      <point x="285" y="178" type="curve" smooth="yes"/>
      <point x="248" y="178"/>
      <point x="233" y="203"/>
      <point x="233" y="251" type="curve" smooth="yes"/>
      <point x="233" y="326"/>
      <point x="268" y="400"/>
      <point x="325" y="400" type="curve" smooth="yes"/>
      <point x="344" y="400"/>
      <point x="355" y="397"/>
    </contour>
  </outline>
</glyph>
<glyph name="h" format="2">
  <advance width="578.0"/>
  <unicode hex="0068"/>
  <note>
16
</note>
  <anchor x="250.8" y="0.0" name="bottom"/>
  <anchor x="307.00239999999997" y="380.0" name="center"/>
  <anchor x="355.6" y="740.0" name="top"/>
  <outline>
    <contour>
      <point x="523.4" y="184.39999999999998" type="curve" smooth="yes"/>
      <point x="523.4" y="204.0"/>
      <point x="562.6" y="406.20000000000005"/>
      <point x="562.6" y="439.8" type="curve" smooth="yes"/>
      <point x="562.6" y="509.59999999999997"/>
      <point x="521.1999999999999" y="560.0"/>
      <point x="429.20000000000005" y="560.0" type="curve" smooth="yes"/>
      <point x="378.40000000000003" y="560.0"/>
      <point x="342.20000000000005" y="547.6"/>
      <point x="283.0" y="512.0" type="curve"/>
      <point x="319.8" y="740.0" type="line"/>
      <point x="109.0" y="740.0" type="line"/>
      <point x="-9.4" y="0.0" type="line"/>
      <point x="201.8" y="0.0" type="line"/>
      <point x="260.8" y="366.0" type="line"/>
      <point x="279.20000000000005" y="375.0"/>
      <point x="298.59999999999997" y="380.6"/>
      <point x="312.8" y="380.6" type="curve" smooth="yes"/>
      <point x="332.2" y="380.6"/>
      <point x="340.79999999999995" y="371.0"/>
      <point x="340.79999999999995" y="355.40000000000003" type="curve" smooth="yes"/>
      <point x="340.79999999999995" y="335.6"/>
      <point x="302.59999999999997" y="133.8"/>
      <point x="302.59999999999997" y="100.60000000000001" type="curve" smooth="yes"/>
      <point x="302.59999999999997" y="33.8"/>
      <point x="357.00000000000006" y="-10.0"/>
      <point x="436.20000000000005" y="-10.0" type="curve" smooth="yes"/>
      <point x="472.2" y="-10.0"/>
      <point x="512.1999999999999" y="-2.4000000000000004"/>
      <point x="538.8000000000001" y="9.0" type="curve"/>
      <point x="552.0" y="171.79999999999998" type="line"/>
      <point x="547.8000000000001" y="170.79999999999998"/>
      <point x="541.4" y="170.4"/>
      <point x="537.8" y="170.4" type="curve" smooth="yes"/>
      <point x="528.4" y="170.4"/>
      <point x="523.4" y="175.2"/>
    </contour>
  </outline>
</glyph>
<glyph name="i" format="2">
  <advance width="281.40000000000003"/>
  <unicode hex="0069"/>
  <note>
Ajuster pts sur points
8
</note>
  <anchor x="97.1776" y="0.0" name="bottom"/>
  <anchor x="202.8" y="0.0" name="ogonek"/>
  <anchor x="184.22240000000002" y="550.0" name="top"/>
  <outline>
    <contour>
      <point x="-8.4" y="0.0" type="line"/>
      <point x="202.8" y="0.0" type="line"/>
      <point x="289.4" y="550.0" type="line"/>
      <point x="79.0" y="550.0" type="line"/>
    </contour>
    <contour>
      <point x="222.4" y="790.0" type="curve" smooth="yes"/>
      <point x="123.60000000000001" y="790.0"/>
      <point x="80.2" y="729.8"/>
      <point x="80.2" y="654.0" type="curve" smooth="yes"/>
      <point x="80.19999999999999" y="599.0"/>
      <point x="113.8" y="569.4"/>
      <point x="186.0" y="569.4" type="curve" smooth="yes"/>
      <point x="274.2" y="569.4"/>
      <point x="327.8" y="625.2"/>
      <point x="327.8" y="706.4" type="curve" smooth="yes"/>
      <point x="327.8" y="761.0"/>
      <point x="293.6" y="790.0"/>
    </contour>
  </outline>
</glyph>
<glyph name="j" format="2">
  <advance width="294.0"/>
  <unicode hex="006A"/>
  <note>
idem /i
12
</note>
  <outline>
    <contour>
      <point x="235.4" y="790.0" type="curve" smooth="yes"/>
      <point x="136.20000000000002" y="790.0"/>
      <point x="93.2" y="729.8"/>
      <point x="93.2" y="654.0" type="curve" smooth="yes"/>
      <point x="93.2" y="599.0"/>
      <point x="127.8" y="569.4"/>
      <point x="200.0" y="569.4" type="curve" smooth="yes"/>
      <point x="287.6" y="569.4"/>
      <point x="340.8" y="625.2"/>
      <point x="340.79999999999995" y="706.4" type="curve" smooth="yes"/>
      <point x="340.8" y="761.0"/>
      <point x="306.6" y="790.0"/>
    </contour>
    <contour>
      <point x="303.4" y="550.0" type="line"/>
      <point x="92.0" y="550.0" type="line"/>
      <point x="8.200000000000003" y="23.200000000000003" type="line" smooth="yes"/>
      <point x="1.6" y="-18.4"/>
      <point x="-11.199999999999996" y="-37.2"/>
      <point x="-37.0" y="-37.2" type="curve" smooth="yes"/>
      <point x="-45.0" y="-37.2"/>
      <point x="-56.599999999999994" y="-36.8"/>
      <point x="-67.60000000000001" y="-33.0" type="curve"/>
      <point x="-113.2" y="-206.0" type="line"/>
      <point x="-75.39999999999999" y="-216.0"/>
      <point x="-33.400000000000006" y="-220.0"/>
      <point x="-8.399999999999999" y="-220.0" type="curve" smooth="yes"/>
      <point x="135.2" y="-220.0"/>
      <point x="193.60000000000002" y="-136.39999999999998"/>
      <point x="220.60000000000002" y="34.2" type="curve" smooth="yes"/>
    </contour>
  </outline>
</glyph>
<glyph name="l" format="2">
  <advance width="324.59999999999997"/>
  <unicode hex="006C"/>
  <anchor x="137.4" y="0.0" name="bottom"/>
  <anchor x="182.2024" y="380.0" name="center"/>
  <anchor x="214.0" y="740.0" name="top"/>
  <anchor x="342.2" y="740.0" name="topright"/>
  <outline>
    <contour>
      <point x="108.6" y="740.0" type="line"/>
      <point x="18.200000000000003" y="169.6" type="line" smooth="yes"/>
      <point x="15.000000000000002" y="148.79999999999998"/>
      <point x="12.799999999999999" y="128.4"/>
      <point x="12.799999999999999" y="111.60000000000001" type="curve" smooth="yes"/>
      <point x="12.799999999999999" y="29.799999999999997"/>
      <point x="54.8" y="-10.0"/>
      <point x="140.39999999999998" y="-10.0" type="curve" smooth="yes"/>
      <point x="190.79999999999998" y="-10.0"/>
      <point x="244.2" y="1.6"/>
      <point x="285.0" y="19.0" type="curve"/>
      <point x="298.2" y="186.2" type="line"/>
      <point x="279.20000000000005" y="182.0"/>
      <point x="267.2" y="180.0"/>
      <point x="256.0" y="180.0" type="curve" smooth="yes"/>
      <point x="242.2" y="180.0"/>
      <point x="234.8" y="185.8"/>
      <point x="234.8" y="200.79999999999998" type="curve" smooth="yes"/>
      <point x="234.8" y="205.8"/>
      <point x="235.39999999999998" y="212.4"/>
      <point x="236.8" y="220.6" type="curve" smooth="yes"/>
      <point x="319.4" y="740.0" type="line"/>
    </contour>
  </outline>
</glyph>
<glyph name="m" format="2">
  <advance width="845.1999999999999"/>
  <unicode hex="006D"/>
  <note>
24&gt;23 points
un point de trop dans la jointure avec 2e jambage
</note>
  <outline>
    <contour>
      <point x="701.6" y="-10.0" type="curve" smooth="yes"/>
      <point x="737.6" y="-10.0"/>
      <point x="781.2" y="-2.4000000000000004"/>
      <point x="806.0000000000001" y="9.0" type="curve"/>
      <point x="819.2" y="171.79999999999998" type="line"/>
      <point x="815.0" y="170.79999999999998"/>
      <point x="808.6" y="170.4"/>
      <point x="805.0" y="170.4" type="curve" smooth="yes"/>
      <point x="795.6000000000001" y="170.4"/>
      <point x="790.6000000000001" y="177.0"/>
      <point x="790.6000000000001" y="188.0" type="curve" smooth="yes"/>
      <point x="790.6000000000001" y="218.4"/>
      <point x="829.8" y="410.40000000000003"/>
      <point x="829.8" y="443.4" type="curve" smooth="yes"/>
      <point x="829.8" y="508.4"/>
      <point x="787.0" y="560.0"/>
      <point x="694.4000000000001" y="560.0" type="curve" smooth="yes"/>
      <point x="636.8000000000001" y="560.0"/>
      <point x="595.2" y="543.0"/>
      <point x="532.6" y="497.2" type="curve"/>
      <point x="518.1999999999999" y="535.0"/>
      <point x="486.0" y="560.0"/>
      <point x="423.2" y="560.0" type="curve" smooth="yes"/>
      <point x="375.6" y="560.0"/>
      <point x="325.4" y="545.0"/>
      <point x="261.2" y="502.8" type="curve"/>
      <point x="268.8" y="550.0" type="line"/>
      <point x="78.6" y="550.0" type="line"/>
      <point x="-8.399999999999999" y="0.0" type="line"/>
      <point x="202.39999999999998" y="0.0" type="line"/>
      <point x="260.8" y="369.6" type="line"/>
      <point x="274.59999999999997" y="376.40000000000003"/>
      <point x="287.6" y="380.6"/>
      <point x="298.8" y="380.6" type="curve" smooth="yes"/>
      <point x="317.4" y="380.6"/>
      <point x="327.4" y="370.6"/>
      <point x="327.4" y="351.8" type="curve" smooth="yes"/>
      <point x="327.4" y="339.6"/>
      <point x="295.4" y="144.4"/>
      <point x="271.6" y="0.0" type="curve"/>
      <point x="480.2" y="0.0" type="line"/>
      <point x="498.59999999999997" y="112.19999999999999"/>
      <point x="516.4" y="225.4"/>
      <point x="534.8" y="337.59999999999997" type="curve" smooth="yes"/>
      <point x="535.8" y="343.79999999999995"/>
      <point x="538.6" y="361.6"/>
      <point x="539.6" y="366.4" type="curve"/>
      <point x="555.2" y="376.2"/>
      <point x="567.2" y="379.40000000000003"/>
      <point x="578.6" y="379.40000000000003" type="curve" smooth="yes"/>
      <point x="598.8000000000001" y="379.40000000000003"/>
      <point x="607.0" y="369.40000000000003"/>
      <point x="607.0" y="353.4" type="curve" smooth="yes"/>
      <point x="607.0" y="334.0"/>
      <point x="569.2" y="140.0"/>
      <point x="569.2" y="102.4" type="curve" smooth="yes"/>
      <point x="569.2" y="30.2"/>
      <point x="622.4" y="-10.0"/>
    </contour>
  </outline>
</glyph>
<glyph name="n" format="2">
  <advance width="578.0"/>
  <unicode hex="006E"/>
  <note>
16
</note>
  <anchor x="256.2" y="0.0" name="bottom"/>
  <anchor x="327.8" y="550.0" name="top"/>
  <outline>
    <contour>
      <point x="78.6" y="550.0" type="line"/>
      <point x="-8.399999999999999" y="0.0" type="line"/>
      <point x="202.0" y="0.0" type="line"/>
      <point x="261.4" y="366.0" type="line"/>
      <point x="275.79999999999995" y="373.8"/>
      <point x="297.8" y="380.59999999999997"/>
      <point x="313.0" y="380.59999999999997" type="curve" smooth="yes"/>
      <point x="332.0" y="380.59999999999997"/>
      <point x="341.4" y="372.2"/>
      <point x="341.4" y="355.4" type="curve" smooth="yes"/>
      <point x="341.4" y="327.4"/>
      <point x="303.2" y="144.0"/>
      <point x="303.2" y="97.60000000000001" type="curve" smooth="yes"/>
      <point x="303.2" y="34.4"/>
      <point x="356.4" y="-10.0"/>
      <point x="435.6" y="-10.0" type="curve" smooth="yes"/>
      <point x="471.6" y="-10.0"/>
      <point x="514.0" y="-2.4000000000000004"/>
      <point x="538.8" y="9.0" type="curve"/>
      <point x="552.0" y="171.79999999999998" type="line"/>
      <point x="547.8" y="170.79999999999998"/>
      <point x="541.4" y="170.4"/>
      <point x="537.8000000000001" y="170.4" type="curve" smooth="yes"/>
      <point x="528.4" y="170.4"/>
      <point x="523.4000000000001" y="175.2"/>
      <point x="523.4000000000001" y="184.39999999999998" type="curve" smooth="yes"/>
      <point x="523.4000000000001" y="204.0"/>
      <point x="563.1999999999999" y="406.20000000000005"/>
      <point x="563.1999999999999" y="439.8" type="curve" smooth="yes"/>
      <point x="563.1999999999999" y="515.1999999999999"/>
      <point x="512.6" y="560.0"/>
      <point x="427.79999999999995" y="560.0" type="curve" smooth="yes"/>
      <point x="373.4" y="560.0"/>
      <point x="315.6" y="543.8"/>
      <point x="263.0" y="502.8" type="curve"/>
      <point x="270.0" y="550.0" type="line"/>
    </contour>
  </outline>
</glyph>
<glyph name="o" format="2">
  <advance width="572"/>
  <unicode hex="006F"/>
  <note>
8
</note>
  <anchor x="242" y="0" name="bottom"/>
  <anchor x="286" y="275" name="center"/>
  <anchor x="346" y="0" name="ogonek"/>
  <anchor x="318" y="550" name="top"/>
  <anchor x="475" y="540" name="topright"/>
  <outline>
    <contour>
      <point x="271" y="-10" type="curve" smooth="yes"/>
      <point x="464" y="-10"/>
      <point x="553" y="127"/>
      <point x="553" y="329" type="curve" smooth="yes"/>
      <point x="553" y="482"/>
      <point x="463" y="561"/>
      <point x="309" y="561" type="curve" smooth="yes"/>
      <point x="108" y="561"/>
      <point x="19" y="425"/>
      <point x="19" y="222" type="curve" smooth="yes"/>
      <point x="19" y="69"/>
      <point x="109" y="-10"/>
    </contour>
    <contour>
      <point x="276" y="152" type="curve" smooth="yes"/>
      <point x="253" y="151"/>
      <point x="233" y="161"/>
      <point x="231" y="194" type="curve" smooth="yes"/>
      <point x="227" y="268"/>
      <point x="245" y="397"/>
      <point x="296" y="399" type="curve" smooth="yes"/>
      <point x="318" y="400"/>
      <point x="339" y="390"/>
      <point x="341" y="357" type="curve" smooth="yes"/>
      <point x="345" y="283"/>
      <point x="327" y="154"/>
    </contour>
  </outline>
</glyph>
<glyph name="p" format="2">
  <advance width="587"/>
  <unicode hex="0070"/>
  <note>
14 point
</note>
  <outline>
    <contour>
      <point x="-41" y="-210" type="line"/>
      <point x="169" y="-210" type="line"/>
      <point x="202" y="-1" type="line"/>
      <point x="221" y="-5"/>
      <point x="250" y="-9"/>
      <point x="283" y="-9" type="curve" smooth="yes"/>
      <point x="484" y="-9"/>
      <point x="575" y="155"/>
      <point x="575" y="365" type="curve" smooth="yes"/>
      <point x="575" y="490"/>
      <point x="525" y="560"/>
      <point x="418" y="560" type="curve" smooth="yes"/>
      <point x="356" y="560"/>
      <point x="313" y="537"/>
      <point x="269" y="507" type="curve"/>
      <point x="271" y="550" type="line"/>
      <point x="79" y="550" type="line"/>
    </contour>
    <contour>
      <point x="266" y="151" type="curve" smooth="yes"/>
      <point x="253" y="151"/>
      <point x="240" y="153"/>
      <point x="228" y="157" type="curve"/>
      <point x="261" y="366" type="line"/>
      <point x="275" y="372"/>
      <point x="296" y="378"/>
      <point x="316" y="378" type="curve" smooth="yes"/>
      <point x="349" y="378"/>
      <point x="361" y="361"/>
      <point x="361" y="314" type="curve" smooth="yes"/>
      <point x="361" y="246"/>
      <point x="336" y="151"/>
    </contour>
  </outline>
</glyph>
<glyph name="q" format="2">
  <advance width="589"/>
  <unicode hex="0071"/>
  <note>
12
</note>
  <outline>
    <contour>
      <point x="593" y="529" type="line"/>
      <point x="535" y="543"/>
      <point x="440" y="560"/>
      <point x="351" y="560" type="curve" smooth="yes"/>
      <point x="128" y="560"/>
      <point x="13" y="414"/>
      <point x="13" y="183" type="curve" smooth="yes"/>
      <point x="13" y="59"/>
      <point x="68" y="-10"/>
      <point x="183" y="-10" type="curve" smooth="yes"/>
      <point x="225" y="-10"/>
      <point x="261" y="5"/>
      <point x="303" y="33" type="curve"/>
      <point x="265" y="-210" type="line"/>
      <point x="474" y="-210" type="line"/>
    </contour>
    <contour>
      <point x="360" y="389" type="curve"/>
      <point x="327" y="182" type="line"/>
      <point x="311" y="175"/>
      <point x="292" y="169"/>
      <point x="274" y="169" type="curve" smooth="yes"/>
      <point x="247" y="169"/>
      <point x="226" y="179"/>
      <point x="226" y="237" type="curve" smooth="yes"/>
      <point x="226" y="305"/>
      <point x="257" y="396"/>
      <point x="320" y="396" type="curve" smooth="yes"/>
      <point x="339" y="396"/>
      <point x="350" y="393"/>
    </contour>
  </outline>
</glyph>
<glyph name="r" format="2">
  <advance width="411.0"/>
  <unicode hex="0072"/>
  <anchor x="93.60000000000001" y="0.0" name="bottom"/>
  <anchor x="277.8" y="550.0" name="top"/>
  <outline>
    <contour>
      <point x="266.8" y="550.0" type="line"/>
      <point x="79.39999999999999" y="550.0" type="line"/>
      <point x="-8.799999999999997" y="0.0" type="line"/>
      <point x="200.60000000000002" y="0.0" type="line"/>
      <point x="255.39999999999998" y="336.40000000000003" type="line"/>
      <point x="286.8" y="350.6"/>
      <point x="309.4" y="354.20000000000005"/>
      <point x="332.59999999999997" y="354.20000000000005" type="curve" smooth="yes"/>
      <point x="350.2" y="354.20000000000005"/>
      <point x="371.79999999999995" y="351.20000000000005"/>
      <point x="394.40000000000003" y="345.2" type="curve"/>
      <point x="456.4" y="549.4" type="line"/>
      <point x="434.6" y="557.4000000000001"/>
      <point x="414.8" y="560.0"/>
      <point x="394.40000000000003" y="560.0" type="curve" smooth="yes"/>
      <point x="350.8" y="560.0"/>
      <point x="316.8" y="541.0"/>
      <point x="257.4" y="489.0" type="curve"/>
    </contour>
  </outline>
</glyph>
<glyph name="s" format="2">
  <advance width="540.0"/>
  <unicode hex="0073"/>
  <anchor x="238.0" y="0.0" name="bottom"/>
  <anchor x="318.0" y="550.0" name="top"/>
  <outline>
    <contour>
      <point x="-19.0" y="39.0" type="line"/>
      <point x="43.0" y="11.0"/>
      <point x="120.0" y="-10.0"/>
      <point x="234.0" y="-10.0" type="curve" smooth="yes"/>
      <point x="396.0" y="-10.0"/>
      <point x="505.0" y="27.0"/>
      <point x="505.0" y="188.0" type="curve" smooth="yes"/>
      <point x="505.0" y="424.0"/>
      <point x="189.0" y="294.0"/>
      <point x="189.0" y="389.0" type="curve" smooth="yes"/>
      <point x="189.0" y="407.0"/>
      <point x="223.0" y="399.0"/>
      <point x="303.0" y="399.0" type="curve" smooth="yes"/>
      <point x="360.0" y="399.0"/>
      <point x="425.0" y="387.0"/>
      <point x="479.0" y="368.0" type="curve"/>
      <point x="521.0" y="525.0" type="line"/>
      <point x="472.0" y="545.0"/>
      <point x="391.0" y="560.0"/>
      <point x="312.0" y="560.0" type="curve" smooth="yes"/>
      <point x="119.0" y="560.0"/>
      <point x="33.0" y="488.0"/>
      <point x="33.0" y="366.0" type="curve" smooth="yes"/>
      <point x="33.0" y="144.0"/>
      <point x="350.0" y="249.0"/>
      <point x="350.0" y="151.0" type="curve" smooth="yes"/>
      <point x="350.0" y="135.0"/>
      <point x="315.0" y="146.0"/>
      <point x="238.0" y="146.0" type="curve" smooth="yes"/>
      <point x="160.0" y="146.0"/>
      <point x="78.0" y="167.0"/>
      <point x="29.0" y="189.0" type="curve"/>
    </contour>
  </outline>
</glyph>
<glyph name="t" format="2">
  <advance width="391.40000000000003"/>
  <unicode hex="0074"/>
  <anchor x="175.2" y="0.0" name="bottom"/>
  <anchor x="194.60000000000002" y="275.0" name="center"/>
  <anchor x="240.8" y="658.4" name="top"/>
  <anchor x="390.59999999999997" y="775.0" name="topright"/>
  <outline>
    <contour>
      <point x="350.8" y="183.0" type="line"/>
      <point x="323.20000000000005" y="177.8"/>
      <point x="307.8" y="174.4"/>
      <point x="293.59999999999997" y="174.4" type="curve" smooth="yes"/>
      <point x="269.4" y="174.4"/>
      <point x="260.0" y="186.20000000000002"/>
      <point x="260.0" y="205.8" type="curve" smooth="yes"/>
      <point x="260.0" y="212.0"/>
      <point x="260.6" y="218.8"/>
      <point x="261.6" y="226.60000000000002" type="curve" smooth="yes"/>
      <point x="288.8" y="388.40000000000003" type="line"/>
      <point x="385.79999999999995" y="388.40000000000003" type="line"/>
      <point x="413.79999999999995" y="550.0" type="line"/>
      <point x="315.6" y="550.0" type="line"/>
      <point x="332.79999999999995" y="658.4" type="line"/>
      <point x="148.4" y="658.4" type="line"/>
      <point x="107.4" y="550.0" type="line"/>
      <point x="43.8" y="538.4" type="line"/>
      <point x="17.6" y="389.0" type="line"/>
      <point x="78.2" y="389.0" type="line"/>
      <point x="49.60000000000001" y="210.4" type="line" smooth="yes"/>
      <point x="44.60000000000001" y="179.8"/>
      <point x="40.8" y="143.0"/>
      <point x="40.8" y="119.60000000000001" type="curve" smooth="yes"/>
      <point x="40.8" y="16.4"/>
      <point x="106.2" y="-10.0"/>
      <point x="180.60000000000002" y="-10.0" type="curve" smooth="yes"/>
      <point x="238.40000000000003" y="-10.0"/>
      <point x="285.6" y="0.0"/>
      <point x="336.0" y="17.8" type="curve"/>
    </contour>
  </outline>
</glyph>
<glyph name="u" format="2">
  <advance width="578.4"/>
  <unicode hex="0075"/>
  <note>
15
</note>
  <anchor x="248.2" y="0.0" name="bottom"/>
  <anchor x="537.0" y="19.4" name="ogonek"/>
  <anchor x="328.5336" y="550.0" name="top"/>
  <anchor x="561.2" y="550.0" name="topright"/>
  <outline>
    <contour>
      <point x="152.8" y="-10.0" type="curve" smooth="yes"/>
      <point x="206.39999999999998" y="-10.0"/>
      <point x="260.0" y="11.399999999999999"/>
      <point x="312.4" y="54.8" type="curve"/>
      <point x="329.0" y="19.4"/>
      <point x="371.0" y="-10.0"/>
      <point x="425.79999999999995" y="-10.0" type="curve" smooth="yes"/>
      <point x="465.0" y="-10.0"/>
      <point x="508.20000000000005" y="2.4000000000000004"/>
      <point x="537.0" y="23.8" type="curve"/>
      <point x="549.4" y="171.2" type="line"/>
      <point x="542.4" y="169.0"/>
      <point x="537.6" y="169.0"/>
      <point x="535.2" y="169.0" type="curve" smooth="yes"/>
      <point x="527.0" y="169.0"/>
      <point x="521.1999999999999" y="174.4"/>
      <point x="521.1999999999999" y="187.79999999999998" type="curve" smooth="yes"/>
      <point x="521.1999999999999" y="192.4"/>
      <point x="522.2" y="200.4"/>
      <point x="579.2" y="550.0" type="curve"/>
      <point x="369.80000000000007" y="550.0" type="line"/>
      <point x="310.6" y="181.6" type="line"/>
      <point x="296.6" y="173.79999999999998"/>
      <point x="276.0" y="167.4"/>
      <point x="259.40000000000003" y="167.4" type="curve" smooth="yes"/>
      <point x="240.2" y="167.4"/>
      <point x="229.4" y="176.4"/>
      <point x="230.6" y="197.6" type="curve" smooth="yes"/>
      <point x="241.4" y="278.40000000000003"/>
      <point x="257.6" y="373.2"/>
      <point x="287.4" y="550.0" type="curve"/>
      <point x="77.4" y="550.0" type="line"/>
      <point x="26.400000000000006" y="237.6"/>
      <point x="10.399999999999999" y="158.79999999999998"/>
      <point x="10.399999999999999" y="111.6" type="curve" smooth="yes"/>
      <point x="10.399999999999999" y="38.599999999999994"/>
      <point x="59.2" y="-10.0"/>
    </contour>
  </outline>
</glyph>
<glyph name="v" format="2">
  <advance width="537.8"/>
  <unicode hex="0076"/>
  <outline>
    <contour>
      <point x="329.6" y="0.3999999999999999" type="line"/>
      <point x="449.8" y="178.6"/>
      <point x="551.2" y="362.0"/>
      <point x="568.4" y="550.0" type="curve"/>
      <point x="348.0" y="550.0" type="line"/>
      <point x="342.8" y="425.2"/>
      <point x="294.6" y="292.8"/>
      <point x="238.4" y="177.0" type="curve"/>
      <point x="253.2" y="550.0" type="line"/>
      <point x="29.8" y="549.8" type="line"/>
      <point x="77.0" y="0.3999999999999999" type="line"/>
    </contour>
  </outline>
</glyph>
<glyph name="w" format="2">
  <advance width="773.0"/>
  <unicode hex="0077"/>
  <note>
15
</note>
  <anchor x="339.8" y="0.0" name="bottom"/>
  <anchor x="413.4" y="550.0" name="top"/>
  <outline>
    <contour>
      <point x="587.8" y="0.0" type="line"/>
      <point x="705.6" y="192.8"/>
      <point x="795.0" y="385.8"/>
      <point x="795.2" y="550.0" type="curve"/>
      <point x="597.8" y="550.0" type="line"/>
      <point x="592.8" y="425.0"/>
      <point x="555.2" y="299.0"/>
      <point x="492.6" y="173.4" type="curve"/>
      <point x="540.2" y="550.4" type="line"/>
      <point x="306.4" y="550.4" type="line"/>
      <point x="270.6" y="409.2"/>
      <point x="232.0" y="298.2"/>
      <point x="191.8" y="174.2" type="curve"/>
      <point x="241.6" y="550.0" type="line"/>
      <point x="36.6" y="549.8" type="line"/>
      <point x="27.599999999999994" y="0.0" type="line"/>
      <point x="283.6" y="0.0" type="line"/>
      <point x="318.2" y="90.0"/>
      <point x="358.0" y="206.2"/>
      <point x="382.2" y="288.6" type="curve"/>
      <point x="349.4" y="0.0" type="line"/>
    </contour>
  </outline>
</glyph>
<glyph name="x" format="2">
  <advance width="571.6"/>
  <unicode hex="0078"/>
  <outline>
    <contour>
      <point x="388.6" y="550.0" type="line"/>
      <point x="382.0" y="471.0"/>
      <point x="365.8" y="429.2"/>
      <point x="308.6" y="358.2" type="curve"/>
      <point x="301.4" y="550.2" type="line"/>
      <point x="71.4" y="550.8" type="line"/>
      <point x="127.8" y="278.6" type="line"/>
      <point x="67.2" y="207.6"/>
      <point x="-3.0" y="116.6"/>
      <point x="-27.0" y="0.0" type="curve"/>
      <point x="203.0" y="0.0" type="line"/>
      <point x="226.2" y="103.0"/>
      <point x="266.6" y="160.2"/>
      <point x="288.0" y="197.0" type="curve"/>
      <point x="295.6" y="-0.7999999999999998" type="line"/>
      <point x="530.0" y="-0.8" type="line"/>
      <point x="468.2" y="277.0" type="line"/>
      <point x="546.6" y="371.6"/>
      <point x="588.6" y="469.8"/>
      <point x="611.2" y="550.0" type="curve"/>
    </contour>
  </outline>
</glyph>
<glyph name="y" format="2">
  <advance width="562.0"/>
  <unicode hex="0079"/>
  <anchor x="442.0" y="0.0" name="bottom"/>
  <anchor x="320.0" y="550.0" name="top"/>
  <outline>
    <contour>
      <point x="426.0" y="546.0" type="line"/>
      <point x="437.0" y="477.0"/>
      <point x="354.0" y="320.0"/>
      <point x="260.0" y="153.0" type="curve"/>
      <point x="205.0" y="550.0" type="line"/>
      <point x="33.0" y="548.0" type="line"/>
      <point x="131.0" y="-4.0" type="line"/>
      <point x="180.0" y="-4.0" type="line"/>
      <point x="142.0" y="-64.0"/>
      <point x="97.0" y="-126.0"/>
      <point x="38.0" y="-208.0" type="curve"/>
      <point x="201.0" y="-210.0" type="line"/>
      <point x="386.0" y="100.0"/>
      <point x="595.0" y="384.0"/>
      <point x="596.0" y="548.0" type="curve"/>
    </contour>
  </outline>
</glyph>
<glyph name="z" format="2">
  <advance width="526.4"/>
  <unicode hex="007A"/>
  <anchor x="227.2" y="0.0" name="bottom"/>
  <anchor x="265.4" y="275.0" name="center"/>
  <anchor x="309.2" y="550.0" name="top"/>
  <outline>
    <contour>
      <point x="-12.0" y="0.0" type="line"/>
      <point x="459.2" y="0.0" type="line"/>
      <point x="485.6" y="165.0" type="line"/>
      <point x="273.6" y="165.0" type="line"/>
      <point x="503.8" y="394.4" type="line"/>
      <point x="533.4" y="550.0" type="line"/>
      <point x="83.6" y="550.0" type="line"/>
      <point x="56.2" y="383.8" type="line"/>
      <point x="249.6" y="383.8" type="line"/>
      <point x="10.8" y="146.0" type="line"/>
    </contour>
  </outline>
</glyph>
<glyph name="braceleft" format="2">
  <advance width="343.4"/>
  <unicode hex="007B"/>
  <outline>
    <contour>
      <point x="10.600000000000001" y="-79.0" type="curve" smooth="yes"/>
      <point x="10.600000000000001" y="-174.0"/>
      <point x="70.8" y="-210.0"/>
      <point x="145.0" y="-210.0" type="curve" smooth="yes"/>
      <point x="243.20000000000002" y="-210.0" type="line"/>
      <point x="268.8" y="-58.0" type="line"/>
      <point x="228.8" y="-58.0" type="line" smooth="yes"/>
      <point x="206.39999999999998" y="-58.0"/>
      <point x="196.20000000000002" y="-46.2"/>
      <point x="196.20000000000002" y="-23.599999999999998" type="curve" smooth="yes"/>
      <point x="196.20000000000002" y="43.0"/>
      <point x="251.2" y="94.6"/>
      <point x="251.2" y="164.4" type="curve" smooth="yes"/>
      <point x="251.2" y="202.2"/>
      <point x="238.2" y="236.60000000000002"/>
      <point x="198.2" y="265.0" type="curve"/>
      <point x="260.4" y="305.2"/>
      <point x="293.8" y="359.0"/>
      <point x="293.8" y="426.6" type="curve" smooth="yes"/>
      <point x="293.8" y="457.2"/>
      <point x="284.4" y="478.8"/>
      <point x="284.4" y="515.4" type="curve" smooth="yes"/>
      <point x="284.4" y="549.0"/>
      <point x="298.4" y="588.0"/>
      <point x="334.6" y="588.0" type="curve" smooth="yes"/>
      <point x="373.4" y="588.0" type="line"/>
      <point x="397.79999999999995" y="740.0" type="line"/>
      <point x="299.59999999999997" y="740.0" type="line" smooth="yes"/>
      <point x="170.6" y="740.0"/>
      <point x="106.80000000000001" y="635.4"/>
      <point x="106.80000000000001" y="510.6" type="curve" smooth="yes"/>
      <point x="106.80000000000001" y="469.20000000000005"/>
      <point x="117.6" y="440.8"/>
      <point x="117.6" y="408.59999999999997" type="curve" smooth="yes"/>
      <point x="117.6" y="373.4"/>
      <point x="106.0" y="343.0"/>
      <point x="73.8" y="343.0" type="curve" smooth="yes"/>
      <point x="58.99999999999999" y="343.0" type="line"/>
      <point x="34.0" y="186.4" type="line"/>
      <point x="48.800000000000004" y="186.4" type="line" smooth="yes"/>
      <point x="70.60000000000001" y="186.4"/>
      <point x="78.0" y="177.20000000000002"/>
      <point x="78.0" y="158.2" type="curve" smooth="yes"/>
      <point x="78.0" y="102.2"/>
      <point x="10.600000000000001" y="19.2"/>
    </contour>
  </outline>
</glyph>
<glyph name="bar" format="2">
  <advance width="234.8"/>
  <unicode hex="007C"/>
  <outline>
    <contour>
      <point x="284.2" y="790.6" type="line"/>
      <point x="115.19999999999999" y="790.6" type="line"/>
      <point x="-45.0" y="-210.0" type="line"/>
      <point x="124.2" y="-210.0" type="line"/>
    </contour>
  </outline>
</glyph>
<glyph name="braceright" format="2">
  <advance width="343.4"/>
  <unicode hex="007D"/>
  <outline>
    <contour>
      <point x="329.8" y="609.0" type="curve" smooth="yes"/>
      <point x="329.8" y="704.6"/>
      <point x="269.0" y="740.6"/>
      <point x="194.79999999999998" y="740.6" type="curve" smooth="yes"/>
      <point x="96.6" y="740.6" type="line"/>
      <point x="71.0" y="588.6" type="line"/>
      <point x="105.0" y="588.6" type="line" smooth="yes"/>
      <point x="128.0" y="588.6"/>
      <point x="138.79999999999998" y="576.2"/>
      <point x="138.79999999999998" y="553.5999999999999" type="curve" smooth="yes"/>
      <point x="138.79999999999998" y="485.8"/>
      <point x="83.80000000000001" y="446.2"/>
      <point x="83.80000000000001" y="363.8" type="curve" smooth="yes"/>
      <point x="83.80000000000001" y="327.8"/>
      <point x="96.19999999999999" y="293.40000000000003"/>
      <point x="137.40000000000003" y="265.59999999999997" type="curve"/>
      <point x="75.2" y="224.8"/>
      <point x="41.2" y="172.20000000000002"/>
      <point x="41.2" y="104.0" type="curve" smooth="yes"/>
      <point x="41.2" y="73.4"/>
      <point x="50.599999999999994" y="51.8"/>
      <point x="50.599999999999994" y="16.400000000000002" type="curve" smooth="yes"/>
      <point x="50.599999999999994" y="-17.2"/>
      <point x="37.2" y="-57.4"/>
      <point x="1.0" y="-57.4" type="curve" smooth="yes"/>
      <point x="-33.0" y="-57.4" type="line"/>
      <point x="-57.4" y="-210.0" type="line"/>
      <point x="40.2" y="-210.0" type="line" smooth="yes"/>
      <point x="169.2" y="-210.0"/>
      <point x="233.0" y="-97.6"/>
      <point x="233.0" y="8.0" type="curve" smooth="yes"/>
      <point x="233.0" y="65.6"/>
      <point x="222.2" y="96.4"/>
      <point x="222.2" y="124.4" type="curve" smooth="yes"/>
      <point x="222.2" y="158.4"/>
      <point x="235.0" y="187.60000000000002"/>
      <point x="266.0" y="187.60000000000002" type="curve" smooth="yes"/>
      <point x="280.8" y="187.60000000000002" type="line"/>
      <point x="305.8" y="343.6" type="line"/>
      <point x="291.0" y="343.6" type="line" smooth="yes"/>
      <point x="269.2" y="343.6"/>
      <point x="261.8" y="352.8"/>
      <point x="261.8" y="371.8" type="curve" smooth="yes"/>
      <point x="261.8" y="428.40000000000003"/>
      <point x="329.8" y="502.40000000000003"/>
    </contour>
  </outline>
</glyph>
<glyph name="asciitilde" format="2">
  <advance width="531.8"/>
  <unicode hex="007E"/>
  <outline>
    <contour>
      <point x="469.40000000000003" y="228.6" type="curve"/>
      <point x="495.8" y="404.59999999999997" type="line"/>
      <point x="465.2" y="378.6"/>
      <point x="432.4" y="369.4"/>
      <point x="395.0" y="369.4" type="curve" smooth="yes"/>
      <point x="296.4" y="369.4"/>
      <point x="252.8" y="440.6"/>
      <point x="177.8" y="440.6" type="curve" smooth="yes"/>
      <point x="125.6" y="440.6"/>
      <point x="86.0" y="414.0"/>
      <point x="77.80000000000001" y="407.0" type="curve"/>
      <point x="49.4" y="231.0" type="line"/>
      <point x="69.2" y="244.4"/>
      <point x="103.2" y="263.0"/>
      <point x="149.4" y="263.0" type="curve" smooth="yes"/>
      <point x="241.20000000000002" y="263.0"/>
      <point x="282.4" y="191.79999999999998"/>
      <point x="373.8" y="191.79999999999998" type="curve" smooth="yes"/>
      <point x="404.0" y="191.79999999999998"/>
      <point x="441.6" y="204.20000000000002"/>
    </contour>
  </outline>
</glyph>
<glyph name="cent" format="2">
  <advance width="672.0"/>
  <unicode hex="00A2"/>
  <outline>
    <contour>
      <point x="211.2" y="-105.2" type="line"/>
      <point x="373.0" y="-105.2" type="line"/>
      <point x="389.0" y="-4.800000000000001" type="line"/>
      <point x="436.80000000000007" y="-1.6000000000000005"/>
      <point x="482.2" y="4.799999999999997"/>
      <point x="523.0" y="18.0" type="curve"/>
      <point x="523.0" y="195.6" type="line"/>
      <point x="467.20000000000005" y="186.0"/>
      <point x="437.00000000000006" y="182.0"/>
      <point x="406.6" y="182.0" type="curve" smooth="yes"/>
      <point x="351.0" y="182.0"/>
      <point x="327.0" y="206.8"/>
      <point x="327.0" y="242.0" type="curve" smooth="yes"/>
      <point x="327.0" y="307.0"/>
      <point x="367.2" y="365.4"/>
      <point x="429.20000000000005" y="365.4" type="curve" smooth="yes"/>
      <point x="463.80000000000007" y="365.4"/>
      <point x="488.4" y="361.8"/>
      <point x="538.8" y="350.0" type="curve"/>
      <point x="597.2" y="536.6" type="line"/>
      <point x="559.4" y="546.8"/>
      <point x="527.0" y="554.4"/>
      <point x="478.6" y="557.0" type="curve"/>
      <point x="495.0" y="654.4" type="line"/>
      <point x="333.20000000000005" y="654.4" type="line"/>
      <point x="314.4" y="541.0" type="line"/>
      <point x="175.40000000000003" y="483.0"/>
      <point x="105.6" y="321.40000000000003"/>
      <point x="105.6" y="176.4" type="curve" smooth="yes"/>
      <point x="105.6" y="82.4"/>
      <point x="146.79999999999998" y="27.200000000000003"/>
      <point x="228.59999999999997" y="4.199999999999999" type="curve"/>
    </contour>
  </outline>
</glyph>
<glyph name="sterling" format="2">
  <advance width="672.0"/>
  <unicode hex="00A3"/>
  <outline>
    <contour>
      <point x="52.6" y="0.0" type="line"/>
      <point x="531.6" y="0.0" type="line"/>
      <point x="558.6" y="172.0" type="line"/>
      <point x="323.6" y="172.0" type="line"/>
      <point x="356.2" y="203.20000000000002"/>
      <point x="381.6" y="242.4"/>
      <point x="381.6" y="297.0" type="curve" smooth="yes"/>
      <point x="381.6" y="335.4"/>
      <point x="360.79999999999995" y="396.0"/>
      <point x="360.79999999999995" y="440.2" type="curve" smooth="yes"/>
      <point x="360.79999999999995" y="495.40000000000003"/>
      <point x="397.6" y="523.0"/>
      <point x="462.40000000000003" y="523.0" type="curve" smooth="yes"/>
      <point x="507.99999999999994" y="523.0"/>
      <point x="541.2" y="518.4"/>
      <point x="582.2" y="503.4" type="curve"/>
      <point x="637.5999999999999" y="671.4" type="line"/>
      <point x="581.2" y="697.0"/>
      <point x="530.4" y="710.0"/>
      <point x="452.20000000000005" y="710.0" type="curve" smooth="yes"/>
      <point x="297.8" y="710.0"/>
      <point x="158.4" y="610.8"/>
      <point x="158.4" y="471.8" type="curve" smooth="yes"/>
      <point x="158.4" y="401.20000000000005"/>
      <point x="187.0" y="338.79999999999995"/>
      <point x="187.0" y="285.4" type="curve" smooth="yes"/>
      <point x="187.0" y="222.39999999999998"/>
      <point x="140.00000000000003" y="172.6"/>
      <point x="73.4" y="134.0" type="curve"/>
    </contour>
    <contour>
      <point x="95.2" y="305.20000000000005" type="line"/>
      <point x="503.79999999999995" y="305.2" type="line"/>
      <point x="519.4" y="404.20000000000005" type="line"/>
      <point x="110.4" y="404.20000000000005" type="line"/>
    </contour>
  </outline>
</glyph>
<glyph name="currency" format="2">
  <advance width="461.6"/>
  <unicode hex="00A4"/>
  <outline>
    <contour>
      <point x="113.2" y="90.4" type="line"/>
      <point x="180.0" y="153.2" type="line"/>
      <point x="189.20000000000002" y="151.2"/>
      <point x="199.8" y="150.8"/>
      <point x="211.0" y="150.8" type="curve" smooth="yes"/>
      <point x="221.8" y="150.8"/>
      <point x="232.2" y="151.20000000000002"/>
      <point x="242.6" y="153.0" type="curve"/>
      <point x="290.8" y="90.4" type="line"/>
      <point x="411.6" y="204.6" type="line"/>
      <point x="374.0" y="254.2" type="line"/>
      <point x="383.20000000000005" y="273.79999999999995"/>
      <point x="388.8" y="294.6"/>
      <point x="390.0" y="317.0" type="curve" smooth="yes"/>
      <point x="391.20000000000005" y="327.8"/>
      <point x="390.8" y="339.2"/>
      <point x="389.8" y="350.2" type="curve"/>
      <point x="442.8" y="399.8" type="line"/>
      <point x="358.6" y="514.0" type="line"/>
      <point x="292.2" y="453.2" type="line"/>
      <point x="282.2" y="455.0"/>
      <point x="271.2" y="456.0"/>
      <point x="259.4" y="456.0" type="curve" smooth="yes"/>
      <point x="247.60000000000002" y="456.0"/>
      <point x="236.4" y="454.4"/>
      <point x="225.60000000000002" y="453.0" type="curve"/>
      <point x="180.60000000000002" y="514.0" type="line"/>
      <point x="58.599999999999994" y="399.8" type="line"/>
      <point x="96.0" y="349.20000000000005" type="line"/>
      <point x="87.2" y="331.4"/>
      <point x="82.2" y="311.6"/>
      <point x="81.0" y="291.0" type="curve" smooth="yes"/>
      <point x="79.8" y="279.0"/>
      <point x="79.6" y="266.4"/>
      <point x="81.0" y="255.2" type="curve"/>
      <point x="27.0" y="204.6" type="line"/>
    </contour>
    <contour>
      <point x="230.4" y="271.8" type="curve" smooth="yes"/>
      <point x="213.8" y="271.8"/>
      <point x="204.6" y="282.2"/>
      <point x="206.39999999999998" y="300.0" type="curve" smooth="yes"/>
      <point x="208.2" y="319.4"/>
      <point x="222.0" y="334.4"/>
      <point x="240.20000000000002" y="334.4" type="curve" smooth="yes"/>
      <point x="257.2" y="334.4"/>
      <point x="265.8" y="321.4"/>
      <point x="264.0" y="305.2" type="curve" smooth="yes"/>
      <point x="262.2" y="283.4"/>
      <point x="247.8" y="271.8"/>
    </contour>
  </outline>
</glyph>
<glyph name="yen" format="2">
  <advance width="734.0"/>
  <unicode hex="00A5"/>
  <outline>
    <contour>
      <point x="100.0" y="285.0" type="line"/>
      <point x="289.0" y="285.0" type="line"/>
      <point x="284.0" y="249.0" type="line"/>
      <point x="94.0" y="249.0" type="line"/>
      <point x="80.0" y="158.0" type="line"/>
      <point x="270.0" y="158.0" type="line"/>
      <point x="244.0" y="0.0" type="line"/>
      <point x="406.0" y="0.0" type="line"/>
      <point x="433.0" y="158.0" type="line"/>
      <point x="620.0" y="158.0" type="line"/>
      <point x="634.0" y="249.0" type="line"/>
      <point x="446.0" y="249.0" type="line"/>
      <point x="451.0" y="285.0" type="line"/>
      <point x="640.0" y="285.0" type="line"/>
      <point x="654.0" y="377.0" type="line"/>
      <point x="465.0" y="377.0" type="line"/>
      <point x="753.0" y="697.0" type="line"/>
      <point x="581.0" y="700.0" type="line"/>
      <point x="399.0" y="477.0" type="line"/>
      <point x="290.0" y="702.0" type="line"/>
      <point x="115.0" y="697.0" type="line"/>
      <point x="304.0" y="377.0" type="line"/>
      <point x="114.0" y="377.0" type="line"/>
    </contour>
  </outline>
</glyph>
<glyph name="brokenbar" format="2">
  <advance width="237.8"/>
  <unicode hex="00A6"/>
  <outline>
    <contour>
      <point x="222.2" y="391.0" type="line"/>
      <point x="287.8" y="790.6" type="line"/>
      <point x="118.79999999999998" y="790.6" type="line"/>
      <point x="53.2" y="391.0" type="line"/>
    </contour>
    <contour>
      <point x="20.000000000000004" y="190.6" type="line"/>
      <point x="-45.0" y="-210.0" type="line"/>
      <point x="123.60000000000001" y="-210.0" type="line"/>
      <point x="189.2" y="190.6" type="line"/>
    </contour>
  </outline>
</glyph>
<glyph name="section" format="2">
  <advance width="530.8"/>
  <unicode hex="00A7"/>
  <outline>
    <contour>
      <point x="23.6" y="5.399999999999999" type="curve"/>
      <point x="-46.6" y="-188.6" type="line"/>
      <point x="4.2" y="-206.4"/>
      <point x="78.6" y="-220.0"/>
      <point x="125.0" y="-220.0" type="curve" smooth="yes"/>
      <point x="346.0" y="-220.0"/>
      <point x="484.6" y="-33.2"/>
      <point x="484.6" y="164.8" type="curve" smooth="yes"/>
      <point x="484.6" y="301.6"/>
      <point x="397.2" y="388.0"/>
      <point x="397.2" y="474.2" type="curve" smooth="yes"/>
      <point x="397.2" y="514.8"/>
      <point x="420.2" y="540.4"/>
      <point x="452.2" y="540.4" type="curve" smooth="yes"/>
      <point x="463.4" y="540.4"/>
      <point x="471.8" y="536.6"/>
      <point x="485.4" y="530.0" type="curve"/>
      <point x="550.0" y="727.8" type="line"/>
      <point x="513.4" y="742.4"/>
      <point x="451.2" y="749.6"/>
      <point x="410.6" y="749.6" type="curve" smooth="yes"/>
      <point x="173.6" y="749.6"/>
      <point x="46.4" y="572.8"/>
      <point x="46.4" y="384.0" type="curve" smooth="yes"/>
      <point x="46.4" y="227.0"/>
      <point x="136.4" y="120.2"/>
      <point x="136.4" y="32.8" type="curve" smooth="yes"/>
      <point x="136.4" y="10.4"/>
      <point x="125.0" y="-14.2"/>
      <point x="95.2" y="-14.2" type="curve" smooth="yes"/>
      <point x="73.8" y="-14.2"/>
      <point x="49.8" y="-9.0"/>
    </contour>
    <contour>
      <point x="335.2" y="625.2" type="curve"/>
      <point x="267.4" y="579.6"/>
      <point x="247.4" y="509.8"/>
      <point x="247.4" y="446.8" type="curve" smooth="yes"/>
      <point x="247.4" y="343.6"/>
      <point x="325.2" y="222.0"/>
      <point x="325.2" y="124.8" type="curve" smooth="yes"/>
      <point x="325.2" y="21.4"/>
      <point x="277.2" y="-107.4"/>
      <point x="152.8" y="-113.6" type="curve"/>
      <point x="246.4" y="-86.0"/>
      <point x="287.8" y="3.2"/>
      <point x="287.8" y="82.4" type="curve" smooth="yes"/>
      <point x="287.8" y="189.2"/>
      <point x="209.2" y="303.0"/>
      <point x="209.2" y="410.0" type="curve" smooth="yes"/>
      <point x="209.2" y="497.4"/>
      <point x="243.4" y="598.0"/>
    </contour>
  </outline>
</glyph>
<glyph name="copyright" format="2">
  <advance width="800.8"/>
  <unicode hex="00A9"/>
  <outline>
    <contour>
      <point x="388.6" y="-10.4" type="curve" smooth="yes"/>
      <point x="653.6" y="-11.6"/>
      <point x="765.4" y="118.60000000000001"/>
      <point x="765.4" y="343.0" type="curve" smooth="yes"/>
      <point x="765.4" y="554.4"/>
      <point x="671.0" y="707.4"/>
      <point x="439.0" y="708.6" type="curve" smooth="yes"/>
      <point x="173.4" y="709.8"/>
      <point x="58.8" y="580.8"/>
      <point x="58.8" y="355.6" type="curve" smooth="yes"/>
      <point x="58.8" y="144.6"/>
      <point x="154.0" y="-9.2"/>
    </contour>
    <contour>
      <point x="400.8" y="137.6" type="curve" smooth="yes"/>
      <point x="445.6" y="137.6"/>
      <point x="491.6" y="148.0"/>
      <point x="522.4" y="162.4" type="curve"/>
      <point x="517.2" y="258.4" type="line"/>
      <point x="490.0" y="249.8"/>
      <point x="460.2" y="244.4"/>
      <point x="436.4" y="244.4" type="curve" smooth="yes"/>
      <point x="394.4" y="244.4"/>
      <point x="371.4" y="270.2"/>
      <point x="371.4" y="316.8" type="curve" smooth="yes"/>
      <point x="371.4" y="392.0"/>
      <point x="402.4" y="449.4"/>
      <point x="461.2" y="449.4" type="curve" smooth="yes"/>
      <point x="486.2" y="449.4"/>
      <point x="508.4" y="446.8"/>
      <point x="533.6" y="440.0" type="curve"/>
      <point x="563.6" y="549.0" type="line"/>
      <point x="538.6" y="558.2"/>
      <point x="505.4" y="564.4"/>
      <point x="462.2" y="564.4" type="curve" smooth="yes"/>
      <point x="344.2" y="564.4"/>
      <point x="247.39999999999998" y="470.6"/>
      <point x="247.39999999999998" y="312.6" type="curve" smooth="yes"/>
      <point x="247.39999999999998" y="196.8"/>
      <point x="305.4" y="137.6"/>
    </contour>
    <contour>
      <point x="397.6" y="57.0" type="curve" smooth="yes"/>
      <point x="203.8" y="57.0"/>
      <point x="133.4" y="176.2"/>
      <point x="133.4" y="357.8" type="curve" smooth="yes"/>
      <point x="133.4" y="539.4"/>
      <point x="207.2" y="641.2"/>
      <point x="430.2" y="641.2" type="curve" smooth="yes"/>
      <point x="618.0" y="641.2"/>
      <point x="690.8" y="522.0"/>
      <point x="690.8" y="341.6" type="curve" smooth="yes"/>
      <point x="690.8" y="160.8"/>
      <point x="619.8" y="57.0"/>
    </contour>
  </outline>
</glyph>
<glyph name="ordfeminine" format="2">
  <advance width="403.40000000000003"/>
  <unicode hex="00AA"/>
  <outline>
    <contour>
      <point x="20.8" y="212.6" type="line"/>
      <point x="361.6" y="212.6" type="line"/>
      <point x="377.8" y="318.2" type="line"/>
      <point x="37.0" y="318.2" type="line"/>
    </contour>
    <component base="a.superior" xOffset="7.999999999999999"/>
  </outline>
</glyph>
<glyph name="logicalnot" format="2">
  <advance width="528.6"/>
  <unicode hex="00AC"/>
  <outline>
    <contour>
      <point x="51.4" y="290.59999999999997" type="line"/>
      <point x="312.2" y="290.59999999999997" type="line"/>
      <point x="294.0" y="168.2" type="line"/>
      <point x="462.4" y="168.2" type="line"/>
      <point x="509.20000000000005" y="462.59999999999997" type="line"/>
      <point x="80.0" y="462.59999999999997" type="line"/>
    </contour>
  </outline>
</glyph>
<glyph name="registered" format="2">
  <advance width="692.4"/>
  <unicode hex="00AE"/>
  <outline>
    <contour>
      <point x="343.8" y="208.8" type="curve" smooth="yes"/>
      <point x="566.8" y="208.8"/>
      <point x="695.4" y="353.4"/>
      <point x="695.4" y="589.2" type="curve" smooth="yes"/>
      <point x="695.4" y="770.6"/>
      <point x="604.2" y="893.0"/>
      <point x="434.4" y="893.0" type="curve" smooth="yes"/>
      <point x="211.4" y="893.0"/>
      <point x="84.8" y="747.4"/>
      <point x="84.8" y="512.6" type="curve" smooth="yes"/>
      <point x="84.8" y="331.2"/>
      <point x="174.0" y="208.8"/>
    </contour>
    <contour>
      <point x="350.6" y="272.6" type="curve" smooth="yes"/>
      <point x="218.8" y="272.6"/>
      <point x="152.2" y="373.6"/>
      <point x="152.2" y="511.0" type="curve" smooth="yes"/>
      <point x="152.2" y="716.8"/>
      <point x="249.4" y="828.2"/>
      <point x="427.6" y="828.2" type="curve" smooth="yes"/>
      <point x="559.4" y="828.2"/>
      <point x="628.0" y="728.2"/>
      <point x="628.0" y="589.8" type="curve" smooth="yes"/>
      <point x="628.0" y="384.0"/>
      <point x="528.8" y="272.6"/>
    </contour>
    <contour>
      <point x="227.2" y="364.2" type="line"/>
      <point x="335.8" y="364.2" type="line"/>
      <point x="353.0" y="474.4" type="line"/>
      <point x="360.2" y="474.0"/>
      <point x="366.6" y="473.6"/>
      <point x="374.6" y="473.6" type="curve"/>
      <point x="421.6" y="492.6" type="line"/>
      <point x="498.6" y="492.4"/>
      <point x="559.6" y="541.0"/>
      <point x="559.6" y="639.8" type="curve" smooth="yes"/>
      <point x="559.6" y="708.8"/>
      <point x="517.0" y="746.0"/>
      <point x="420.6" y="746.0" type="curve" smooth="yes"/>
      <point x="386.4" y="746.0"/>
      <point x="343.2" y="744.0"/>
      <point x="287.6" y="739.2" type="curve"/>
    </contour>
    <contour>
      <point x="387.2" y="554.2" type="curve" smooth="yes"/>
      <point x="382.4" y="554.2"/>
      <point x="378.2" y="554.6"/>
      <point x="366.2" y="555.2" type="curve"/>
      <point x="382.0" y="653.8" type="line"/>
      <point x="399.8" y="654.6"/>
      <point x="404.8" y="655.6"/>
      <point x="417.2" y="655.6" type="curve" smooth="yes"/>
      <point x="442.0" y="655.6"/>
      <point x="450.4" y="646.4"/>
      <point x="450.4" y="629.8" type="curve" smooth="yes"/>
      <point x="450.4" y="588.4"/>
      <point x="433.8" y="554.2"/>
    </contour>
    <contour>
      <point x="497.2" y="358.8" type="curve" smooth="yes"/>
      <point x="501.6" y="358.8"/>
      <point x="514.2" y="360.0"/>
      <point x="520.8" y="362.8" type="curve"/>
      <point x="535.0" y="469.6" type="line"/>
      <point x="532.6" y="469.8"/>
      <point x="530.2" y="469.8"/>
      <point x="527.8" y="469.8" type="curve" smooth="yes"/>
      <point x="510.0" y="469.8"/>
      <point x="482.2" y="488.0"/>
      <point x="466.2" y="519.8" type="curve"/>
      <point x="360.0" y="490.6" type="line"/>
      <point x="407.2" y="385.4"/>
      <point x="446.0" y="358.8"/>
    </contour>
  </outline>
</glyph>
<glyph name="degree" format="2">
  <advance width="367.2"/>
  <unicode hex="00B0"/>
  <outline>
    <contour>
      <point x="198.8" y="347.2" type="curve" smooth="yes"/>
      <point x="317.6" y="347.2"/>
      <point x="380.8" y="463.0"/>
      <point x="380.8" y="571.8" type="curve" smooth="yes"/>
      <point x="380.8" y="645.4"/>
      <point x="346.6" y="709.2"/>
      <point x="249.0" y="709.2" type="curve" smooth="yes"/>
      <point x="130.8" y="709.2"/>
      <point x="66.4" y="594.5999999999999"/>
      <point x="66.4" y="485.8" type="curve" smooth="yes"/>
      <point x="66.4" y="409.8"/>
      <point x="103.6" y="347.2"/>
    </contour>
    <contour>
      <point x="216.60000000000002" y="482.8" type="curve" smooth="yes"/>
      <point x="200.4" y="482.8"/>
      <point x="191.60000000000002" y="494.79999999999995"/>
      <point x="191.60000000000002" y="513.8" type="curve" smooth="yes"/>
      <point x="191.60000000000002" y="542.0"/>
      <point x="204.8" y="571.2"/>
      <point x="230.0" y="571.2" type="curve" smooth="yes"/>
      <point x="246.8" y="571.2"/>
      <point x="255.60000000000002" y="559.2"/>
      <point x="255.60000000000002" y="540.8000000000001" type="curve" smooth="yes"/>
      <point x="255.60000000000002" y="513.2"/>
      <point x="241.8" y="482.8"/>
    </contour>
  </outline>
</glyph>
<glyph name="plusminus" format="2">
  <advance width="529.4"/>
  <unicode hex="00B1"/>
  <outline>
    <contour>
      <point x="435.0" y="-0.4" type="line"/>
      <point x="463.6" y="177.6" type="line"/>
      <point x="337.79999999999995" y="177.6" type="line"/>
      <point x="352.4" y="268.2" type="line"/>
      <point x="478.2" y="268.2" type="line"/>
      <point x="506.8" y="446.20000000000005" type="line"/>
      <point x="381.0" y="446.20000000000005" type="line"/>
      <point x="397.4" y="550.2" type="line"/>
      <point x="219.4" y="550.2" type="line"/>
      <point x="202.2" y="446.20000000000005" type="line"/>
      <point x="77.6" y="446.20000000000005" type="line"/>
      <point x="49.0" y="268.2" type="line"/>
      <point x="174.4" y="268.2" type="line"/>
      <point x="159.0" y="177.6" type="line"/>
      <point x="34.4" y="177.6" type="line"/>
      <point x="5.800000000000001" y="-0.4" type="line"/>
    </contour>
  </outline>
</glyph>
<glyph name="uni00B2" format="2">
  <advance width="372.0"/>
  <unicode hex="00B2"/>
  <outline>
    <contour>
      <point x="36.0" y="369.8" type="line"/>
      <point x="364.6" y="369.8" type="line"/>
      <point x="381.8" y="464.8" type="line"/>
      <point x="248.60000000000002" y="464.8" type="line"/>
      <point x="325.8" y="521.2"/>
      <point x="390.6" y="583.6"/>
      <point x="390.6" y="669.2" type="curve" smooth="yes"/>
      <point x="390.6" y="739.8"/>
      <point x="325.4" y="773.8"/>
      <point x="251.8" y="773.8" type="curve" smooth="yes"/>
      <point x="197.0" y="773.8"/>
      <point x="128.4" y="756.4"/>
      <point x="85.0" y="732.2" type="curve"/>
      <point x="109.6" y="623.6" type="line"/>
      <point x="140.6" y="638.8"/>
      <point x="167.6" y="647.8"/>
      <point x="193.0" y="647.8" type="curve" smooth="yes"/>
      <point x="215.8" y="647.8"/>
      <point x="230.4" y="635.6"/>
      <point x="230.4" y="615.8" type="curve" smooth="yes"/>
      <point x="230.0" y="568.0"/>
      <point x="152.6" y="497.0"/>
      <point x="49.6" y="450.2" type="curve"/>
    </contour>
  </outline>
</glyph>
<glyph name="uni00B5" format="2">
  <advance width="580.2"/>
  <unicode hex="00B5"/>
  <outline>
    <contour>
      <point x="-42.0" y="-210.0" type="line"/>
      <point x="167.2" y="-210.0" type="line"/>
      <point x="199.6" y="-9.2" type="line"/>
      <point x="204.20000000000002" y="-9.6"/>
      <point x="208.6" y="-10.0"/>
      <point x="213.6" y="-10.0" type="curve" smooth="yes"/>
      <point x="244.60000000000002" y="-10.0"/>
      <point x="285.0" y="7.2"/>
      <point x="319.6" y="47.6" type="curve"/>
      <point x="336.2" y="18.2"/>
      <point x="375.8" y="-10.0"/>
      <point x="427.6" y="-10.0" type="curve" smooth="yes"/>
      <point x="466.8" y="-10.0"/>
      <point x="509.99999999999994" y="2.4000000000000004"/>
      <point x="538.8000000000001" y="23.8" type="curve"/>
      <point x="551.1999999999999" y="171.2" type="line"/>
      <point x="544.2" y="169.0"/>
      <point x="539.4" y="169.0"/>
      <point x="537.0" y="169.0" type="curve" smooth="yes"/>
      <point x="528.8000000000001" y="169.0"/>
      <point x="523.0" y="174.4"/>
      <point x="523.0" y="187.79999999999998" type="curve" smooth="yes"/>
      <point x="523.0" y="192.4"/>
      <point x="524.0" y="200.4"/>
      <point x="581.0" y="550.0" type="curve"/>
      <point x="371.6" y="550.0" type="line"/>
      <point x="312.4" y="181.6" type="line"/>
      <point x="298.40000000000003" y="173.79999999999998"/>
      <point x="277.8" y="167.4"/>
      <point x="261.2" y="167.4" type="curve" smooth="yes"/>
      <point x="242.0" y="167.4"/>
      <point x="231.2" y="176.4"/>
      <point x="232.4" y="197.6" type="curve" smooth="yes"/>
      <point x="246.2" y="278.4"/>
      <point x="259.40000000000003" y="373.2"/>
      <point x="289.2" y="550.0" type="curve"/>
      <point x="79.19999999999999" y="550.0" type="line"/>
    </contour>
  </outline>
</glyph>
<glyph name="paragraph" format="2">
  <advance width="649.6"/>
  <unicode hex="00B6"/>
  <outline>
    <contour>
      <point x="372.0" y="-210.0" type="line"/>
      <point x="529.2" y="-210.0" type="line"/>
      <point x="681.4" y="740.0" type="line"/>
      <point x="524.2" y="740.0" type="line"/>
    </contour>
    <contour>
      <point x="267.0" y="361.0" type="line"/>
      <point x="252.4" y="366.2"/>
      <point x="239.6" y="390.2"/>
      <point x="239.6" y="429.8" type="curve" smooth="yes"/>
      <point x="239.6" y="479.4"/>
      <point x="253.00000000000003" y="559.6"/>
      <point x="311.59999999999997" y="560.8000000000001" type="curve"/>
      <point x="188.8" y="-210.0" type="line"/>
      <point x="346.0" y="-210.0" type="line"/>
      <point x="498.2" y="740.0" type="line"/>
      <point x="391.40000000000003" y="740.0" type="line" smooth="yes"/>
      <point x="179.4" y="740.0"/>
      <point x="64.80000000000001" y="617.2"/>
      <point x="64.80000000000001" y="423.8" type="curve" smooth="yes"/>
      <point x="64.80000000000001" y="320.2"/>
      <point x="116.0" y="252.00000000000003"/>
      <point x="227.0" y="233.2" type="curve"/>
    </contour>
  </outline>
</glyph>
<glyph name="periodcentered" format="2">
  <advance width="267.6"/>
  <unicode hex="00B7"/>
  <outline>
    <contour>
      <point x="25.6" y="292.0" type="curve" smooth="yes"/>
      <point x="25.6" y="236.39999999999998"/>
      <point x="56.0" y="207.4"/>
      <point x="123.0" y="207.4" type="curve" smooth="yes"/>
      <point x="214.4" y="207.4"/>
      <point x="256.40000000000003" y="280.8"/>
      <point x="256.4" y="355.8" type="curve" smooth="yes"/>
      <point x="256.40000000000003" y="411.0"/>
      <point x="226.0" y="440.0"/>
      <point x="160.0" y="440.0" type="curve" smooth="yes"/>
      <point x="69.6" y="440.0"/>
      <point x="25.6" y="365.4"/>
    </contour>
  </outline>
</glyph>
<glyph name="uni00B9" format="2">
  <advance width="354.40000000000003"/>
  <unicode hex="00B9"/>
  <outline>
    <contour>
      <point x="50.6" y="370.0" type="line"/>
      <point x="348.2" y="370.0" type="line"/>
      <point x="366.4" y="470.6" type="line"/>
      <point x="294.6" y="470.6" type="line"/>
      <point x="345.2" y="766.4000000000001" type="line"/>
      <point x="267.40000000000003" y="766.4000000000001" type="line"/>
      <point x="93.2" y="713.2" type="line"/>
      <point x="102.0" y="598.5999999999999" type="line"/>
      <point x="175.0" y="619.8000000000001" type="line"/>
      <point x="148.4" y="470.6" type="line"/>
      <point x="67.6" y="470.6" type="line"/>
    </contour>
  </outline>
</glyph>
<glyph name="ordmasculine" format="2">
  <advance width="379.4"/>
  <unicode hex="00BA"/>
  <outline>
    <contour>
      <point x="21.6" y="212.6" type="line"/>
      <point x="341.0" y="212.6" type="line"/>
      <point x="357.2" y="318.2" type="line"/>
      <point x="37.800000000000004" y="318.2" type="line"/>
    </contour>
    <component base="o.superior" xOffset="8.0"/>
  </outline>
</glyph>
<glyph name="AE" format="2">
  <advance width="936.0000000000001"/>
  <unicode hex="00C6"/>
  <anchor x="440.4664" y="0.0" name="bottom"/>
  <anchor x="595.8" y="700.0" name="top"/>
  <outline>
    <contour>
      <point x="356.8" y="0.0" type="line"/>
      <point x="869.6" y="0.0" type="line"/>
      <point x="898.2" y="176.8" type="line"/>
      <point x="589.4" y="176.8" type="line"/>
      <point x="603.8" y="268.8" type="line"/>
      <point x="871.2" y="268.8" type="line"/>
      <point x="898.2" y="429.59999999999997" type="line"/>
      <point x="630.1999999999999" y="429.59999999999997" type="line"/>
      <point x="644.6" y="520.2" type="line"/>
      <point x="936.8000000000001" y="520.2" type="line"/>
      <point x="966.6" y="700.0" type="line"/>
      <point x="330.80000000000007" y="700.0" type="line"/>
      <point x="-44.0" y="0.0" type="line"/>
      <point x="189.2" y="0.0" type="line"/>
      <point x="250.8" y="118.0" type="line"/>
      <point x="375.40000000000003" y="118.0" type="line"/>
    </contour>
    <contour>
      <point x="331.4" y="286.4" type="line"/>
      <point x="444.79999999999995" y="556.4000000000001" type="line"/>
      <point x="401.2" y="286.4" type="line"/>
    </contour>
  </outline>
</glyph>
<glyph name="multiply" format="2">
  <advance width="482.0"/>
  <unicode hex="00D7"/>
  <outline>
    <contour>
      <point x="127.2" y="124.0" type="line"/>
      <point x="231.8" y="212.4" type="line"/>
      <point x="313.59999999999997" y="117.6" type="line"/>
      <point x="442.2" y="248.99999999999997" type="line"/>
      <point x="371.0" y="332.20000000000005" type="line"/>
      <point x="468.40000000000003" y="415.0" type="line"/>
      <point x="374.0" y="542.0" type="line"/>
      <point x="269.0" y="452.8" type="line"/>
      <point x="186.8" y="546.8" type="line"/>
      <point x="58.8" y="419.0" type="line"/>
      <point x="131.4" y="333.40000000000003" type="line"/>
      <point x="31.799999999999997" y="248.99999999999997" type="line"/>
    </contour>
  </outline>
</glyph>
<glyph name="Thorn" format="2">
  <advance width="673"/>
  <unicode hex="00DE"/>
  <outline>
    <contour>
      <point x="-2" y="0" type="line"/>
      <point x="215" y="0" type="line"/>
      <point x="229" y="84" type="line"/>
      <point x="282" y="80"/>
      <point x="296" y="79"/>
      <point x="323" y="79" type="curve" smooth="yes"/>
      <point x="562" y="79"/>
      <point x="674" y="193"/>
      <point x="674" y="406" type="curve" smooth="yes"/>
      <point x="674" y="552"/>
      <point x="600" y="633"/>
      <point x="383" y="633" type="curve" smooth="yes"/>
      <point x="369" y="633"/>
      <point x="347" y="632"/>
      <point x="318" y="632" type="curve"/>
      <point x="329" y="700" type="line"/>
      <point x="112" y="700" type="line"/>
    </contour>
    <contour>
      <point x="312" y="255" type="curve" smooth="yes"/>
      <point x="298" y="255"/>
      <point x="287" y="255"/>
      <point x="258" y="258" type="curve"/>
      <point x="289" y="454" type="line"/>
      <point x="334" y="457"/>
      <point x="341" y="458"/>
      <point x="373" y="458" type="curve" smooth="yes"/>
      <point x="436" y="458"/>
      <point x="454" y="418"/>
      <point x="454" y="380" type="curve" smooth="yes"/>
      <point x="454" y="294"/>
      <point x="412" y="255"/>
    </contour>
  </outline>
</glyph>
<glyph name="germandbls" format="2">
  <advance width="744.0"/>
  <unicode hex="00DF"/>
  <outline>
    <contour>
      <point x="29.4" y="17.200000000000003" type="line" smooth="yes"/>
      <point x="22.6" y="-21.2"/>
      <point x="7.4" y="-37.0"/>
      <point x="-14.2" y="-37.0" type="curve" smooth="yes"/>
      <point x="-23.8" y="-37.0"/>
      <point x="-34.8" y="-36.2"/>
      <point x="-47.8" y="-32.4" type="curve"/>
      <point x="-93.2" y="-198.8" type="line"/>
      <point x="-55.8" y="-213.6"/>
      <point x="-19.8" y="-220.0"/>
      <point x="24.400000000000002" y="-220.0" type="curve" smooth="yes"/>
      <point x="143.8" y="-220.0"/>
      <point x="210.4" y="-145.0"/>
      <point x="233.2" y="0.0" type="curve" smooth="yes"/>
      <point x="308.4" y="486.6" type="line" smooth="yes"/>
      <point x="319.0" y="550.4"/>
      <point x="371.4" y="579.4"/>
      <point x="452.0" y="579.4" type="curve" smooth="yes"/>
      <point x="515.6" y="579.4"/>
      <point x="531.8" y="559.4"/>
      <point x="531.8" y="545.8" type="curve" smooth="yes"/>
      <point x="531.8" y="527.2"/>
      <point x="520.6" y="521.4"/>
      <point x="450.0" y="501.6" type="curve" smooth="yes"/>
      <point x="376.4" y="481.0"/>
      <point x="333.4" y="439.2"/>
      <point x="333.4" y="345.4" type="curve" smooth="yes"/>
      <point x="333.4" y="261.2"/>
      <point x="377.0" y="226.4"/>
      <point x="446.6" y="206.0" type="curve" smooth="yes"/>
      <point x="509.6" y="186.0"/>
      <point x="521.2" y="184.6"/>
      <point x="521.2" y="162.4" type="curve" smooth="yes"/>
      <point x="521.2" y="160.0"/>
      <point x="505.0" y="147.2"/>
      <point x="471.6" y="147.2" type="curve" smooth="yes"/>
      <point x="423.4" y="147.2"/>
      <point x="356.4" y="158.6"/>
      <point x="311.2" y="171.2" type="curve"/>
      <point x="270.4" y="21.4" type="line"/>
      <point x="323.6" y="2.8"/>
      <point x="386.2" y="-9.6"/>
      <point x="460.6" y="-9.6" type="curve" smooth="yes"/>
      <point x="647.6" y="-9.6"/>
      <point x="729.2" y="61.2"/>
      <point x="729.2" y="183.4" type="curve" smooth="yes"/>
      <point x="729.2" y="278.0"/>
      <point x="685.4" y="320.4"/>
      <point x="607.2" y="337.8" type="curve" smooth="yes"/>
      <point x="538.2" y="351.8"/>
      <point x="527.8" y="357.2"/>
      <point x="527.8" y="371.0" type="curve" smooth="yes"/>
      <point x="527.8" y="383.2"/>
      <point x="536.4" y="382.2"/>
      <point x="597.6" y="394.2" type="curve" smooth="yes"/>
      <point x="688.6" y="413.6"/>
      <point x="731.0" y="461.8"/>
      <point x="731.0" y="560.4" type="curve" smooth="yes"/>
      <point x="731.0" y="674.4"/>
      <point x="638.0" y="750.0"/>
      <point x="453.4" y="750.0" type="curve" smooth="yes"/>
      <point x="243.2" y="750.0"/>
      <point x="133.4" y="673.4"/>
      <point x="109.0" y="517.2" type="curve" smooth="yes"/>
      <point x="108.6" y="511.0" type="line"/>
      <point x="44.8" y="499.0" type="line"/>
      <point x="19.4" y="348.8" type="line"/>
      <point x="81.2" y="348.8" type="line"/>
    </contour>
  </outline>
</glyph>
<glyph name="ae" format="2">
  <advance width="846"/>
  <unicode hex="00E6"/>
  <anchor x="386" y="0" name="bottom"/>
  <anchor x="473" y="550" name="top"/>
  <outline>
    <contour>
      <point x="169" y="-10" type="curve" smooth="yes"/>
      <point x="213" y="-10"/>
      <point x="254" y="4"/>
      <point x="301" y="44" type="curve"/>
      <point x="293" y="0" type="line"/>
      <point x="479" y="0" type="line"/>
      <point x="486" y="42" type="line"/>
      <point x="521" y="10"/>
      <point x="569" y="-9"/>
      <point x="629" y="-9" type="curve" smooth="yes"/>
      <point x="684" y="-9"/>
      <point x="739" y="2"/>
      <point x="790" y="25" type="curve"/>
      <point x="770" y="189" type="line"/>
      <point x="707" y="169"/>
      <point x="648" y="161"/>
      <point x="618" y="161" type="curve" smooth="yes"/>
      <point x="549" y="161"/>
      <point x="521" y="173"/>
      <point x="521" y="239" type="curve" smooth="yes"/>
      <point x="521" y="316"/>
      <point x="552" y="405"/>
      <point x="611" y="405" type="curve" smooth="yes"/>
      <point x="629" y="405"/>
      <point x="640" y="397"/>
      <point x="640" y="379" type="curve" smooth="yes"/>
      <point x="640" y="346"/>
      <point x="609" y="313"/>
      <point x="549" y="301" type="curve" smooth="yes"/>
      <point x="526" y="296"/>
      <point x="506" y="294"/>
      <point x="484" y="296" type="curve"/>
      <point x="474" y="192" type="line"/>
      <point x="515" y="187"/>
      <point x="560" y="189"/>
      <point x="612" y="197" type="curve" smooth="yes"/>
      <point x="759" y="220"/>
      <point x="845" y="304"/>
      <point x="845" y="419" type="curve" smooth="yes"/>
      <point x="845" y="506"/>
      <point x="788" y="560"/>
      <point x="688" y="560" type="curve" smooth="yes"/>
      <point x="638" y="560"/>
      <point x="597" y="547"/>
      <point x="562" y="527" type="curve"/>
      <point x="567" y="556" type="line"/>
      <point x="381" y="556" type="line"/>
      <point x="376" y="525" type="line"/>
      <point x="352" y="548"/>
      <point x="317" y="560"/>
      <point x="274" y="560" type="curve" smooth="yes"/>
      <point x="110" y="560"/>
      <point x="13" y="398"/>
      <point x="13" y="180" type="curve" smooth="yes"/>
      <point x="13" y="56"/>
      <point x="73" y="-10"/>
    </contour>
    <contour>
      <point x="271" y="152" type="curve" smooth="yes"/>
      <point x="249" y="152"/>
      <point x="226" y="163"/>
      <point x="226" y="212" type="curve" smooth="yes"/>
      <point x="226" y="313"/>
      <point x="273" y="399"/>
      <point x="318" y="399" type="curve" smooth="yes"/>
      <point x="331" y="399"/>
      <point x="343" y="397"/>
      <point x="353" y="393" type="curve"/>
      <point x="318" y="162" type="line"/>
      <point x="302" y="156"/>
      <point x="287" y="152"/>
    </contour>
  </outline>
</glyph>
<glyph name="eth" format="2">
  <advance width="577"/>
  <unicode hex="00F0"/>
  <outline>
    <contour>
      <point x="384" y="364" type="curve"/>
      <point x="412" y="501" type="line"/>
      <point x="377" y="515"/>
      <point x="329" y="523"/>
      <point x="288" y="523" type="curve" smooth="yes"/>
      <point x="106" y="523"/>
      <point x="5" y="394"/>
      <point x="5" y="221" type="curve" smooth="yes"/>
      <point x="5" y="53"/>
      <point x="111" y="-10"/>
      <point x="245" y="-10" type="curve" smooth="yes"/>
      <point x="420" y="-10"/>
      <point x="526" y="82"/>
      <point x="567" y="330" type="curve" smooth="yes"/>
      <point x="574" y="372"/>
      <point x="577" y="412"/>
      <point x="577" y="447" type="curve" smooth="yes"/>
      <point x="577" y="669"/>
      <point x="436" y="759"/>
      <point x="203" y="759" type="curve" smooth="yes"/>
      <point x="152" y="759"/>
      <point x="107" y="749"/>
      <point x="67" y="741" type="curve"/>
      <point x="62" y="613" type="line"/>
      <point x="91" y="617"/>
      <point x="113" y="625"/>
      <point x="169" y="625" type="curve" smooth="yes"/>
      <point x="317" y="625"/>
      <point x="367" y="588"/>
      <point x="367" y="490" type="curve" smooth="yes"/>
      <point x="367" y="458"/>
      <point x="364" y="418"/>
      <point x="356" y="368" type="curve" smooth="yes"/>
      <point x="325" y="174"/>
      <point x="301" y="139"/>
      <point x="259" y="139" type="curve" smooth="yes"/>
      <point x="227" y="139"/>
      <point x="217" y="165"/>
      <point x="217" y="205" type="curve" smooth="yes"/>
      <point x="217" y="298"/>
      <point x="258" y="379"/>
      <point x="325" y="379" type="curve" smooth="yes"/>
      <point x="347" y="379"/>
      <point x="367" y="370"/>
    </contour>
    <contour>
      <point x="217" y="545" type="line"/>
      <point x="402" y="637" type="line"/>
      <point x="402" y="642" type="line"/>
      <point x="630" y="756" type="line"/>
      <point x="462" y="757" type="line"/>
      <point x="326" y="690" type="line"/>
      <point x="325" y="684" type="line"/>
      <point x="49" y="545" type="line"/>
    </contour>
  </outline>
</glyph>
<glyph name="divide" format="2">
  <advance width="529.4"/>
  <unicode hex="00F7"/>
  <outline>
    <contour>
      <point x="139.8" y="86.0" type="curve" smooth="yes"/>
      <point x="139.8" y="42.8"/>
      <point x="165.8" y="20.0"/>
      <point x="223.8" y="20.0" type="curve" smooth="yes"/>
      <point x="289.8" y="20.0"/>
      <point x="334.6" y="54.599999999999994"/>
      <point x="334.6" y="131.6" type="curve" smooth="yes"/>
      <point x="334.6" y="174.79999999999998"/>
      <point x="309.0" y="196.6"/>
      <point x="252.2" y="196.6" type="curve" smooth="yes"/>
      <point x="183.2" y="196.6"/>
      <point x="139.8" y="152.0"/>
    </contour>
    <contour>
      <point x="210.6" y="520.0" type="curve" smooth="yes"/>
      <point x="210.6" y="477.2"/>
      <point x="235.2" y="455.0"/>
      <point x="293.6" y="455.0" type="curve" smooth="yes"/>
      <point x="360.0" y="455.0"/>
      <point x="404.6" y="490.4"/>
      <point x="404.6" y="566.4" type="curve" smooth="yes"/>
      <point x="404.6" y="610.1999999999999"/>
      <point x="378.8" y="631.6"/>
      <point x="321.6" y="631.6" type="curve" smooth="yes"/>
      <point x="250.0" y="631.6"/>
      <point x="210.6" y="584.0"/>
    </contour>
    <contour>
      <point x="43.8" y="237.0" type="line"/>
      <point x="473.0" y="237.0" type="line"/>
      <point x="502.0" y="415.0" type="line"/>
      <point x="72.8" y="415.0" type="line"/>
    </contour>
  </outline>
</glyph>
<glyph name="oslash" format="2">
  <advance width="572"/>
  <unicode hex="00F8"/>
  <anchor x="317" y="550" name="top"/>
  <outline>
    <contour>
      <point x="480" y="561" type="line"/>
      <point x="394" y="463" type="line"/>
      <point x="389" y="466" type="line"/>
      <point x="142" y="168" type="line"/>
      <point x="139" y="172" type="line"/>
      <point x="-22" y="-10" type="line"/>
      <point x="88" y="-10" type="line"/>
      <point x="174" y="86" type="line"/>
      <point x="179" y="83" type="line"/>
      <point x="441" y="397" type="line"/>
      <point x="444" y="393" type="line"/>
      <point x="592" y="561" type="line"/>
    </contour>
    <contour>
      <point x="270" y="-10" type="curve" smooth="yes"/>
      <point x="468" y="-10"/>
      <point x="551" y="124"/>
      <point x="551" y="325" type="curve" smooth="yes"/>
      <point x="551" y="479"/>
      <point x="461" y="561"/>
      <point x="309" y="561" type="curve" smooth="yes"/>
      <point x="103" y="561"/>
      <point x="19" y="428"/>
      <point x="19" y="226" type="curve" smooth="yes"/>
      <point x="19" y="72"/>
      <point x="109" y="-10"/>
    </contour>
    <contour>
      <point x="276" y="148" type="curve" smooth="yes"/>
      <point x="243" y="147"/>
      <point x="223" y="166"/>
      <point x="221" y="199" type="curve" smooth="yes"/>
      <point x="214" y="315"/>
      <point x="245" y="401"/>
      <point x="294" y="403" type="curve" smooth="yes"/>
      <point x="326" y="404"/>
      <point x="347" y="385"/>
      <point x="349" y="352" type="curve" smooth="yes"/>
      <point x="356" y="236"/>
      <point x="325" y="149"/>
    </contour>
  </outline>
</glyph>
<glyph name="thorn" format="2">
  <advance width="587"/>
  <unicode hex="00FE"/>
  <outline>
    <contour>
      <point x="-41" y="-210" type="line"/>
      <point x="169" y="-210" type="line"/>
      <point x="202" y="-1" type="line"/>
      <point x="221" y="-5"/>
      <point x="250" y="-9"/>
      <point x="283" y="-9" type="curve" smooth="yes"/>
      <point x="484" y="-9"/>
      <point x="575" y="155"/>
      <point x="575" y="365" type="curve" smooth="yes"/>
      <point x="575" y="490"/>
      <point x="525" y="560"/>
      <point x="428" y="560" type="curve" smooth="yes"/>
      <point x="361" y="560"/>
      <point x="319" y="536"/>
      <point x="282" y="507" type="curve"/>
      <point x="318" y="740" type="line"/>
      <point x="109" y="740" type="line"/>
    </contour>
    <contour>
      <point x="266" y="154" type="curve" smooth="yes"/>
      <point x="253" y="154"/>
      <point x="240" y="156"/>
      <point x="228" y="160" type="curve"/>
      <point x="261" y="363" type="line"/>
      <point x="275" y="369"/>
      <point x="296" y="375"/>
      <point x="316" y="375" type="curve" smooth="yes"/>
      <point x="349" y="375"/>
      <point x="361" y="358"/>
      <point x="361" y="311" type="curve" smooth="yes"/>
      <point x="361" y="243"/>
      <point x="336" y="154"/>
    </contour>
  </outline>
</glyph>
<glyph name="Dcroat" format="2">
  <advance width="690.5999999999999"/>
  <unicode hex="0110"/>
  <outline>
    <contour>
      <point x="10.4" y="266.0" type="line"/>
      <point x="358.2" y="266.0" type="line"/>
      <point x="387.6" y="437.8" type="line"/>
      <point x="38.6" y="437.8" type="line"/>
    </contour>
    <component base="D" xOffset="11.2"/>
  </outline>
</glyph>
<glyph name="dcroat" format="2">
  <advance width="607.1999999999999"/>
  <unicode hex="0111"/>
  <outline>
    <contour>
      <point x="271.0" y="605.1999999999999" type="line"/>
      <point x="647.2" y="605.1999999999999" type="line"/>
      <point x="662.6" y="705.2" type="line"/>
      <point x="287.0" y="705.2" type="line"/>
    </contour>
    <component base="d"/>
  </outline>
</glyph>
<glyph name="Hbar" format="2">
  <advance width="681.0"/>
  <unicode hex="0126"/>
  <outline>
    <contour>
      <point x="43.0" y="496.0" type="line"/>
      <point x="709.6" y="496.0" type="line"/>
      <point x="734.8000000000001" y="652.6" type="line"/>
      <point x="68.2" y="652.6" type="line"/>
    </contour>
    <component base="H" xOffset="3.4"/>
  </outline>
</glyph>
<glyph name="hbar" format="2">
  <advance width="580.4"/>
  <unicode hex="0127"/>
  <outline>
    <contour>
      <point x="43.0" y="605.1999999999999" type="line"/>
      <point x="398.79999999999995" y="605.1999999999999" type="line"/>
      <point x="414.2" y="705.2" type="line"/>
      <point x="58.39999999999999" y="705.2" type="line"/>
    </contour>
    <component base="h" xOffset="2.3999999999999995"/>
  </outline>
</glyph>
<glyph name="Idotaccent" format="2">
  <advance width="302.8"/>
  <unicode hex="0130"/>
  <outline>
    <contour>
      <point x="257.59999999999997" y="940.0" type="curve" smooth="yes"/>
      <point x="158.79999999999998" y="940.0"/>
      <point x="115.39999999999999" y="879.8"/>
      <point x="115.4" y="804.0" type="curve" smooth="yes"/>
      <point x="115.4" y="749.0"/>
      <point x="149.0" y="719.4"/>
      <point x="221.20000000000002" y="719.4" type="curve" smooth="yes"/>
      <point x="309.4" y="719.4"/>
      <point x="363.0" y="775.2"/>
      <point x="363.0" y="856.4" type="curve" smooth="yes"/>
      <point x="363.0" y="911.0"/>
      <point x="328.8" y="940.0"/>
    </contour>
    <component base="I"/>
  </outline>
</glyph>
<glyph name="dotlessi" format="2">
  <advance width="281.40000000000003"/>
  <unicode hex="0131"/>
  <anchor x="97.1776" y="0.0" name="bottom"/>
  <anchor x="202.8" y="0.0" name="ogonek"/>
  <anchor x="184.2224" y="550.0" name="top"/>
  <outline>
    <contour>
      <point x="202.8" y="0.0" type="line"/>
      <point x="289.40000000000003" y="550.0" type="line"/>
      <point x="79.0" y="550.0" type="line"/>
      <point x="-8.399999999999999" y="0.4" type="line"/>
    </contour>
  </outline>
</glyph>
<glyph name="Ldot" format="2">
  <advance width="554.0"/>
  <unicode hex="013F"/>
  <outline>
    <contour>
      <point x="352.9988" y="397.7772" type="curve" smooth="yes"/>
      <point x="352.9988" y="352.5812"/>
      <point x="378.9972" y="328.58340000000004"/>
      <point x="435.793" y="328.58340000000004" type="curve" smooth="yes"/>
      <point x="510.1866" y="328.58340000000004"/>
      <point x="547.3848" y="382.97540000000004"/>
      <point x="547.3848" y="444.97040000000004" type="curve" smooth="yes"/>
      <point x="547.3848" y="490.1666"/>
      <point x="521.3864" y="514.1644"/>
      <point x="465.3902" y="514.1644" type="curve" smooth="yes"/>
      <point x="391.7968" y="514.1644"/>
      <point x="352.9988" y="458.1722"/>
    </contour>
    <component base="L"/>
  </outline>
</glyph>
<glyph name="ldot" format="2">
  <advance width="413.8"/>
  <unicode hex="0140"/>
  <outline>
    <contour>
      <point x="297.45300000000003" y="375.515" type="curve" smooth="yes"/>
      <point x="297.453" y="338.4828"/>
      <point x="315.9006" y="319.1428"/>
      <point x="356.6784" y="319.1428" type="curve" smooth="yes"/>
      <point x="413.0402" y="319.1428"/>
      <point x="438.223" y="367.7264"/>
      <point x="438.223" y="417.73960000000005" type="curve" smooth="yes"/>
      <point x="438.223" y="454.52479999999997"/>
      <point x="419.7754" y="473.8648"/>
      <point x="379.61800000000005" y="473.8648" type="curve" smooth="yes"/>
      <point x="323.8756" y="473.8648"/>
      <point x="297.453" y="424.4454"/>
    </contour>
    <component base="l"/>
  </outline>
</glyph>
<glyph name="Lslash" format="2">
  <advance width="563.6"/>
  <unicode hex="0141"/>
  <outline>
    <contour>
      <point x="7.600000000000001" y="0.0" type="line"/>
      <point x="499.20000000000005" y="0.0" type="line"/>
      <point x="530.2" y="184.8" type="line"/>
      <point x="254.4" y="184.8" type="line"/>
      <point x="275.8" y="320.8" type="line"/>
      <point x="434.0" y="390.8" type="line"/>
      <point x="466.2" y="584.0" type="line"/>
      <point x="306.8" y="513.4" type="line"/>
      <point x="337.40000000000003" y="700.0" type="line"/>
      <point x="120.8" y="700.0" type="line"/>
      <point x="73.19999999999999" y="408.6" type="line"/>
      <point x="19.0" y="383.8" type="line"/>
      <point x="-10.600000000000001" y="192.6" type="line"/>
      <point x="42.199999999999996" y="217.0" type="line"/>
    </contour>
  </outline>
</glyph>
<glyph name="lslash" format="2">
  <advance width="349.4"/>
  <unicode hex="0142"/>
  <outline>
    <contour>
      <point x="-8.0" y="206.0" type="line"/>
      <point x="341.6" y="387.4" type="line"/>
      <point x="368.0" y="551.8" type="line"/>
      <point x="17.4" y="370.4" type="line"/>
    </contour>
    <component base="l" xOffset="12.0"/>
  </outline>
</glyph>
<glyph name="eng" format="2">
  <advance width="570.4"/>
  <unicode hex="014B"/>
  <outline>
    <contour>
      <point x="495.40000000000003" y="41.400000000000006" type="curve" smooth="yes"/>
      <point x="498.0" y="58.19999999999999"/>
      <point x="561.5999999999999" y="425.8"/>
      <point x="561.5999999999999" y="446.2" type="curve" smooth="yes"/>
      <point x="561.5999999999999" y="514.4"/>
      <point x="514.1999999999999" y="560.0"/>
      <point x="427.4" y="560.0" type="curve" smooth="yes"/>
      <point x="373.0" y="560.0"/>
      <point x="327.20000000000005" y="545.0"/>
      <point x="259.4" y="502.8" type="curve"/>
      <point x="266.40000000000003" y="550.0" type="line"/>
      <point x="78.6" y="550.0" type="line"/>
      <point x="-8.399999999999999" y="0.0" type="line"/>
      <point x="200.0" y="0.0" type="line"/>
      <point x="260.2" y="368.0" type="line"/>
      <point x="279.4" y="376.2"/>
      <point x="295.8" y="381.0"/>
      <point x="310.6" y="381.0" type="curve" smooth="yes"/>
      <point x="330.0" y="381.0"/>
      <point x="342.6" y="372.2"/>
      <point x="339.4" y="350.2" type="curve" smooth="yes"/>
      <point x="334.6" y="319.0"/>
      <point x="328.6" y="283.0"/>
      <point x="289.0" y="40.6" type="curve" smooth="yes"/>
      <point x="282.40000000000003" y="0.40000000000000036"/>
      <point x="265.59999999999997" y="-18.599999999999998"/>
      <point x="236.40000000000003" y="-18.599999999999998" type="curve" smooth="yes"/>
      <point x="233.80000000000004" y="-18.599999999999998"/>
      <point x="229.40000000000003" y="-18.6"/>
      <point x="225.60000000000002" y="-17.4" type="curve"/>
      <point x="184.4" y="-213.8" type="line"/>
      <point x="204.59999999999997" y="-217.0"/>
      <point x="238.8" y="-220.0"/>
      <point x="272.6" y="-220.0" type="curve" smooth="yes"/>
      <point x="387.0" y="-220.0"/>
      <point x="468.0" y="-153.6"/>
    </contour>
  </outline>
</glyph>
<glyph name="oe" format="2">
  <advance width="865"/>
  <unicode hex="0153"/>
  <outline>
    <contour>
      <point x="264" y="-10" type="curve" smooth="yes"/>
      <point x="336" y="-10"/>
      <point x="386" y="8"/>
      <point x="430" y="41" type="curve"/>
      <point x="470" y="8"/>
      <point x="524" y="-10"/>
      <point x="592" y="-10" type="curve" smooth="yes"/>
      <point x="665" y="-10"/>
      <point x="741" y="2"/>
      <point x="809" y="25" type="curve"/>
      <point x="783" y="192" type="line"/>
      <point x="720" y="172"/>
      <point x="661" y="164"/>
      <point x="631" y="164" type="curve" smooth="yes"/>
      <point x="562" y="164"/>
      <point x="542" y="175"/>
      <point x="542" y="241" type="curve" smooth="yes"/>
      <point x="542" y="340"/>
      <point x="581" y="399"/>
      <point x="628" y="399" type="curve" smooth="yes"/>
      <point x="645" y="399"/>
      <point x="655" y="396"/>
      <point x="655" y="377" type="curve" smooth="yes"/>
      <point x="655" y="346"/>
      <point x="625" y="314"/>
      <point x="569" y="303" type="curve" smooth="yes"/>
      <point x="546" y="298"/>
      <point x="525" y="295"/>
      <point x="504" y="297" type="curve"/>
      <point x="493" y="190" type="line"/>
      <point x="534" y="186"/>
      <point x="578" y="188"/>
      <point x="631" y="196" type="curve" smooth="yes"/>
      <point x="778" y="219"/>
      <point x="864" y="298"/>
      <point x="864" y="406" type="curve" smooth="yes"/>
      <point x="864" y="499"/>
      <point x="790" y="560"/>
      <point x="655" y="560" type="curve" smooth="yes"/>
      <point x="582" y="560"/>
      <point x="520" y="540"/>
      <point x="474" y="499" type="curve"/>
      <point x="432" y="542"/>
      <point x="377" y="561"/>
      <point x="310" y="561" type="curve" smooth="yes"/>
      <point x="104" y="561"/>
      <point x="20" y="428"/>
      <point x="20" y="226" type="curve" smooth="yes"/>
      <point x="20" y="72"/>
      <point x="113" y="-10"/>
    </contour>
    <contour>
      <point x="277" y="152" type="curve" smooth="yes"/>
      <point x="254" y="151"/>
      <point x="234" y="161"/>
      <point x="232" y="194" type="curve" smooth="yes"/>
      <point x="228" y="268"/>
      <point x="244" y="397"/>
      <point x="295" y="399" type="curve" smooth="yes"/>
      <point x="317" y="400"/>
      <point x="338" y="390"/>
      <point x="340" y="357" type="curve" smooth="yes"/>
      <point x="344" y="283"/>
      <point x="328" y="154"/>
    </contour>
  </outline>
</glyph>
<glyph name="uni0162" format="2">
  <advance width="609.6"/>
  <unicode hex="0162"/>
  <anchor x="261.09340000000003" y="0.0" name="_bottom"/>
  <anchor x="183.00000000000003" y="-220.0" name="bottom"/>
  <outline>
    <contour>
      <point x="103.80000000000001" y="-208.6" type="line"/>
      <point x="130.60000000000002" y="-216.0"/>
      <point x="154.60000000000002" y="-220.0"/>
      <point x="183.0" y="-220.0" type="curve" smooth="yes"/>
      <point x="275.40000000000003" y="-220.0"/>
      <point x="351.0" y="-163.20000000000002"/>
      <point x="351.0" y="-60.8" type="curve" smooth="yes"/>
      <point x="351.0" y="-35.4"/>
      <point x="347.59999999999997" y="-11.2"/>
      <point x="339.8" y="8.8" type="curve"/>
      <point x="193.00000000000003" y="8.2" type="line"/>
      <point x="199.79999999999998" y="-5.6"/>
      <point x="203.20000000000002" y="-15.8"/>
      <point x="203.20000000000002" y="-33.800000000000004" type="curve" smooth="yes"/>
      <point x="203.20000000000002" y="-70.0"/>
      <point x="179.60000000000002" y="-80.8"/>
      <point x="152.0" y="-80.8" type="curve" smooth="yes"/>
      <point x="144.20000000000002" y="-80.8"/>
      <point x="135.0" y="-79.8"/>
      <point x="127.8" y="-77.60000000000001" type="curve"/>
    </contour>
    <component base="T"/>
  </outline>
</glyph>
<glyph name="Tbar" format="2">
  <advance width="617.5999999999999"/>
  <unicode hex="0166"/>
  <outline>
    <contour>
      <point x="640.2" y="524.8" type="line"/>
      <point x="670.8000000000001" y="700.0" type="line"/>
      <point x="84.2" y="700.0" type="line"/>
      <point x="53.2" y="524.8" type="line"/>
      <point x="239.4" y="524.8" type="line"/>
      <point x="217.6" y="391.0" type="line"/>
      <point x="107.60000000000001" y="391.0" type="line"/>
      <point x="78.2" y="218.2" type="line"/>
      <point x="190.4" y="218.2" type="line"/>
      <point x="155.8" y="0.0" type="line"/>
      <point x="371.8" y="0.0" type="line"/>
      <point x="406.40000000000003" y="218.2" type="line"/>
      <point x="517.6" y="218.2" type="line"/>
      <point x="547.0" y="391.0" type="line"/>
      <point x="433.6" y="391.0" type="line"/>
      <point x="455.0" y="524.8" type="line"/>
    </contour>
  </outline>
</glyph>
<glyph name="uogonek" format="2">
  <advance width="578.4000000000001"/>
  <unicode hex="0173"/>
  <outline>
    <contour>
      <point x="445.8" y="-200.6" type="curve" smooth="yes"/>
      <point x="471.40000000000003" y="-200.6"/>
      <point x="497.40000000000003" y="-195.4"/>
      <point x="522.2" y="-187.4" type="curve"/>
      <point x="538.1999999999999" y="-51.6" type="line"/>
      <point x="535.0" y="-52.0"/>
      <point x="528.0" y="-53.6"/>
      <point x="519.4000000000001" y="-53.6" type="curve" smooth="yes"/>
      <point x="502.59999999999997" y="-53.6"/>
      <point x="493.0" y="-45.8"/>
      <point x="493.0" y="-33.4" type="curve" smooth="yes"/>
      <point x="493.0" y="-13.0"/>
      <point x="506.8" y="8.600000000000001"/>
      <point x="537.0" y="23.8" type="curve"/>
      <point x="549.4000000000001" y="171.2" type="line"/>
      <point x="542.4" y="169.0"/>
      <point x="537.6" y="169.0"/>
      <point x="535.1999999999999" y="169.0" type="curve" smooth="yes"/>
      <point x="527.0" y="169.0"/>
      <point x="521.2" y="174.4"/>
      <point x="521.2" y="187.79999999999998" type="curve" smooth="yes"/>
      <point x="521.2" y="192.4"/>
      <point x="522.1999999999999" y="200.4"/>
      <point x="579.2" y="550.0" type="curve"/>
      <point x="369.8" y="550.0" type="line"/>
      <point x="310.6" y="181.6" type="line"/>
      <point x="296.6" y="173.79999999999998"/>
      <point x="276.0" y="167.4"/>
      <point x="259.40000000000003" y="167.4" type="curve" smooth="yes"/>
      <point x="240.2" y="167.4"/>
      <point x="229.4" y="176.4"/>
      <point x="230.60000000000002" y="197.6" type="curve" smooth="yes"/>
      <point x="241.4" y="278.40000000000003"/>
      <point x="257.6" y="373.2"/>
      <point x="287.4" y="550.0" type="curve"/>
      <point x="77.39999999999999" y="550.0" type="line"/>
      <point x="26.4" y="237.6"/>
      <point x="10.399999999999999" y="158.8"/>
      <point x="10.399999999999999" y="111.60000000000001" type="curve" smooth="yes"/>
      <point x="10.399999999999999" y="38.6"/>
      <point x="59.20000000000001" y="-10.0"/>
      <point x="152.8" y="-10.0" type="curve" smooth="yes"/>
      <point x="206.40000000000003" y="-10.0"/>
      <point x="260.0" y="11.399999999999999"/>
      <point x="312.4" y="54.8" type="curve"/>
      <point x="328.00000000000006" y="20.0"/>
      <point x="369.2" y="-9.2"/>
      <point x="424.20000000000005" y="-9.2" type="curve" smooth="yes"/>
      <point x="450.20000000000005" y="-9.2"/>
      <point x="474.6" y="26.799999999999997"/>
      <point x="424.0" y="41.8" type="curve"/>
      <point x="365.0" y="10.4"/>
      <point x="321.0" y="-37.0"/>
      <point x="321.0" y="-96.2" type="curve" smooth="yes"/>
      <point x="321.0" y="-155.39999999999998"/>
      <point x="363.6" y="-200.6"/>
    </contour>
  </outline>
</glyph>
<glyph name="longs" format="2">
  <advance width="386.0"/>
  <unicode hex="017F"/>
  <outline>
    <contour>
      <point x="25.8" y="-220.0" type="curve" smooth="yes"/>
      <point x="145.4" y="-220.0"/>
      <point x="215.0" y="-144.6"/>
      <point x="238.2" y="0.0" type="curve" smooth="yes"/>
      <point x="317.4" y="499.0" type="line" smooth="yes"/>
      <point x="326.0" y="554.8000000000001"/>
      <point x="347.2" y="567.0"/>
      <point x="383.2" y="567.0" type="curve" smooth="yes"/>
      <point x="406.0" y="567.0"/>
      <point x="437.6" y="561.6"/>
      <point x="456.59999999999997" y="555.0" type="curve"/>
      <point x="510.2" y="719.0" type="line"/>
      <point x="469.20000000000005" y="737.0"/>
      <point x="417.2" y="750.0"/>
      <point x="357.2" y="750.0" type="curve" smooth="yes"/>
      <point x="222.8" y="750.0"/>
      <point x="129.60000000000002" y="666.4"/>
      <point x="108.6" y="511.0" type="curve"/>
      <point x="46.0" y="498.79999999999995" type="line"/>
      <point x="21.2" y="349.4" type="line"/>
      <point x="82.6" y="349.4" type="line"/>
      <point x="32.8" y="32.199999999999996" type="line" smooth="yes"/>
      <point x="26.599999999999998" y="-6.6"/>
      <point x="10.8" y="-22.2"/>
      <point x="-11.0" y="-22.2" type="curve" smooth="yes"/>
      <point x="-20.0" y="-22.2"/>
      <point x="-29.799999999999997" y="-21.4"/>
      <point x="-42.2" y="-17.2" type="curve"/>
      <point x="-92.2" y="-198.4" type="line"/>
      <point x="-54.8" y="-213.2"/>
      <point x="-18.199999999999996" y="-220.0"/>
    </contour>
  </outline>
</glyph>
<glyph name="uni018F" format="2">
  <advance width="683.0"/>
  <unicode hex="018F"/>
  <outline>
    <contour>
      <point x="258.0" y="-10.0" type="curve" smooth="yes"/>
      <point x="512.0" y="-10.0"/>
      <point x="663.0" y="128.0"/>
      <point x="663.0" y="421.0" type="curve" smooth="yes"/>
      <point x="663.0" y="591.0"/>
      <point x="570.0" y="710.0"/>
      <point x="378.0" y="710.0" type="curve" smooth="yes"/>
      <point x="257.0" y="710.0"/>
      <point x="156.0" y="688.0"/>
      <point x="64.0" y="642.0" type="curve"/>
      <point x="99.0" y="480.0" type="line"/>
      <point x="176.0" y="521.0"/>
      <point x="262.0" y="534.0"/>
      <point x="337.0" y="534.0" type="curve" smooth="yes"/>
      <point x="435.0" y="534.0"/>
      <point x="502.0" y="507.0"/>
      <point x="502.0" y="380.0" type="curve" smooth="yes"/>
      <point x="502.0" y="294.0"/>
      <point x="410.0" y="164.0"/>
      <point x="288.0" y="164.0" type="curve" smooth="yes"/>
      <point x="215.0" y="164.0"/>
      <point x="176.0" y="201.0"/>
      <point x="176.0" y="246.0" type="curve" smooth="yes"/>
      <point x="176.0" y="302.0"/>
      <point x="258.0" y="349.0"/>
      <point x="361.0" y="349.0" type="curve" smooth="yes"/>
      <point x="411.0" y="349.0"/>
      <point x="466.0" y="344.0"/>
      <point x="508.0" y="335.0" type="curve"/>
      <point x="516.0" y="456.0" type="line"/>
      <point x="469.0" y="463.0"/>
      <point x="412.0" y="469.0"/>
      <point x="366.0" y="469.0" type="curve" smooth="yes"/>
      <point x="145.0" y="469.0"/>
      <point x="18.0" y="392.0"/>
      <point x="18.0" y="209.0" type="curve" smooth="yes"/>
      <point x="18.0" y="83.0"/>
      <point x="103.0" y="-10.0"/>
    </contour>
  </outline>
</glyph>
<glyph name="florin" format="2">
  <advance width="672.0"/>
  <unicode hex="0192"/>
  <outline>
    <contour>
      <point x="398.4" y="248.0" type="line"/>
      <point x="534.6" y="248.0" type="line"/>
      <point x="560.2" y="409.6" type="line"/>
      <point x="424.4" y="409.6" type="line"/>
      <point x="431.8" y="455.2" type="line" smooth="yes"/>
      <point x="439.40000000000003" y="494.79999999999995"/>
      <point x="454.0" y="514.4"/>
      <point x="493.2" y="514.4" type="curve" smooth="yes"/>
      <point x="528.8" y="514.4"/>
      <point x="555.8" y="508.4"/>
      <point x="591.5999999999999" y="496.20000000000005" type="curve"/>
      <point x="650.0" y="673.4" type="line"/>
      <point x="601.8" y="698.6"/>
      <point x="532.6" y="710.0"/>
      <point x="471.40000000000003" y="710.0" type="curve" smooth="yes"/>
      <point x="353.0" y="710.0"/>
      <point x="244.0" y="638.4"/>
      <point x="218.8" y="486.40000000000003" type="curve" smooth="yes"/>
      <point x="206.60000000000002" y="409.6" type="line"/>
      <point x="136.4" y="397.40000000000003" type="line"/>
      <point x="112.00000000000001" y="248.0" type="line"/>
      <point x="180.60000000000002" y="248.0" type="line"/>
      <point x="107.2" y="-210.0" type="line"/>
      <point x="325.4" y="-210.0" type="line"/>
    </contour>
  </outline>
</glyph>
<glyph name="uni0237" format="2">
  <advance width="294.0"/>
  <unicode hex="0237"/>
  <anchor x="3.6000000000000023" y="-214.0" name="bottom"/>
  <anchor x="196.8" y="550.0" name="top"/>
  <outline>
    <contour>
      <point x="303.4" y="550.0" type="line"/>
      <point x="92.0" y="550.0" type="line"/>
      <point x="10.600000000000001" y="37.0" type="line" smooth="yes"/>
      <point x="4.0" y="-4.6"/>
      <point x="-8.799999999999997" y="-23.4"/>
      <point x="-34.6" y="-23.4" type="curve" smooth="yes"/>
      <point x="-42.6" y="-23.4"/>
      <point x="-52.4" y="-23.0"/>
      <point x="-63.400000000000006" y="-19.200000000000003" type="curve"/>
      <point x="-113.2" y="-206.0" type="line"/>
      <point x="-75.39999999999999" y="-216.0"/>
      <point x="-33.400000000000006" y="-220.0"/>
      <point x="-8.399999999999999" y="-220.0" type="curve" smooth="yes"/>
      <point x="135.2" y="-220.0"/>
      <point x="193.60000000000002" y="-136.39999999999998"/>
      <point x="220.60000000000002" y="34.2" type="curve" smooth="yes"/>
    </contour>
  </outline>
</glyph>
<glyph name="uni0259" format="2">
  <advance width="580.0"/>
  <unicode hex="0259"/>
  <outline>
    <contour>
      <point x="431.0" y="257.0" type="curve"/>
      <point x="463.0" y="363.0" type="line"/>
      <point x="394.0" y="374.0"/>
      <point x="329.0" y="373.0"/>
      <point x="280.0" y="369.0" type="curve" smooth="yes"/>
      <point x="112.0" y="351.0"/>
      <point x="16.0" y="267.0"/>
      <point x="16.0" y="150.0" type="curve" smooth="yes"/>
      <point x="16.0" y="54.0"/>
      <point x="81.0" y="-10.0"/>
      <point x="207.0" y="-10.0" type="curve" smooth="yes"/>
      <point x="444.0" y="-10.0"/>
      <point x="553.0" y="150.0"/>
      <point x="553.0" y="322.0" type="curve" smooth="yes"/>
      <point x="553.0" y="456.0"/>
      <point x="484.0" y="560.0"/>
      <point x="311.0" y="560.0" type="curve" smooth="yes"/>
      <point x="224.0" y="560.0"/>
      <point x="138.0" y="543.0"/>
      <point x="57.0" y="505.0" type="curve"/>
      <point x="85.0" y="350.0" type="line"/>
      <point x="155.0" y="382.0"/>
      <point x="224.0" y="393.0"/>
      <point x="283.0" y="393.0" type="curve" smooth="yes"/>
      <point x="367.0" y="393.0"/>
      <point x="396.0" y="355.0"/>
      <point x="396.0" y="291.0" type="curve" smooth="yes"/>
      <point x="396.0" y="178.0"/>
      <point x="332.0" y="140.0"/>
      <point x="235.0" y="140.0" type="curve" smooth="yes"/>
      <point x="195.0" y="140.0"/>
      <point x="166.0" y="153.0"/>
      <point x="166.0" y="186.0" type="curve" smooth="yes"/>
      <point x="166.0" y="230.0"/>
      <point x="214.0" y="270.0"/>
      <point x="312.0" y="273.0" type="curve" smooth="yes"/>
      <point x="341.0" y="272.0"/>
      <point x="385.0" y="268.0"/>
    </contour>
  </outline>
</glyph>
<glyph name="gravecomb" format="2">
  <unicode hex="0300"/>
  <anchor x="-253.0" y="550.0" name="_top"/>
  <anchor x="-251.0" y="789.4" name="top"/>
  <outline>
    <contour>
      <point x="-304.2" y="595.4" type="line"/>
      <point x="-146.40000000000003" y="595.4" type="line"/>
      <point x="-189.40000000000003" y="789.4" type="line"/>
      <point x="-385.6" y="789.4" type="line"/>
    </contour>
  </outline>
</glyph>
<glyph name="acutecomb" format="2">
  <unicode hex="0301"/>
  <anchor x="-253.0" y="550.0" name="_top"/>
  <anchor x="-175.4" y="789.4" name="top"/>
  <outline>
    <contour>
      <point x="-340.4" y="595.4" type="line"/>
      <point x="-182.0" y="595.4" type="line"/>
      <point x="-42.0" y="789.4" type="line"/>
      <point x="-249.0" y="789.4" type="line"/>
    </contour>
  </outline>
</glyph>
<glyph name="uni0302" format="2">
  <unicode hex="0302"/>
  <anchor x="-253.0" y="550.0" name="_top"/>
  <anchor x="-216.0" y="784.6" name="top"/>
  <anchor x="18.200000000000003" y="655.0" name="top_viet"/>
  <outline>
    <contour>
      <point x="-442.20000000000005" y="595.4" type="line"/>
      <point x="-276.4" y="595.4" type="line"/>
      <point x="-231.2" y="688.2" type="line"/>
      <point x="-215.20000000000002" y="595.4" type="line"/>
      <point x="-49.400000000000006" y="595.4" type="line"/>
      <point x="-97.40000000000002" y="789.4" type="line"/>
      <point x="-326.6" y="789.4" type="line"/>
    </contour>
  </outline>
</glyph>
<glyph name="tildecomb" format="2">
  <unicode hex="0303"/>
  <anchor x="-253.0" y="550.0" name="_top"/>
  <anchor x="-219.40000000000003" y="774.6" name="top"/>
  <outline>
    <contour>
      <point x="-432.20000000000005" y="595.4000000000001" type="curve"/>
      <point x="-324.8" y="595.4000000000001" type="line"/>
      <point x="-324.8" y="595.4"/>
      <point x="-323.79999999999995" y="600.4"/>
      <point x="-323.79999999999995" y="600.4" type="curve" smooth="yes"/>
      <point x="-321.4" y="614.0"/>
      <point x="-311.2" y="628.1999999999999"/>
      <point x="-296.2" y="628.1999999999999" type="curve" smooth="yes"/>
      <point x="-263.40000000000003" y="628.1999999999999"/>
      <point x="-227.79999999999998" y="599.6"/>
      <point x="-177.20000000000002" y="599.6" type="curve" smooth="yes"/>
      <point x="-94.4" y="599.6"/>
      <point x="-50.39999999999999" y="640.6"/>
      <point x="-34.8" y="734.6" type="curve" smooth="yes"/>
      <point x="-32.800000000000004" y="749.5999999999999"/>
      <point x="-30.799999999999997" y="766.6"/>
      <point x="-29.599999999999998" y="784.6" type="curve"/>
      <point x="-137.4" y="784.6" type="line"/>
      <point x="-137.4" y="784.5999999999999"/>
      <point x="-138.4" y="779.6"/>
      <point x="-138.40000000000003" y="779.6" type="curve" smooth="yes"/>
      <point x="-140.8" y="766.0"/>
      <point x="-150.6" y="751.8000000000001"/>
      <point x="-165.60000000000002" y="751.8000000000001" type="curve" smooth="yes"/>
      <point x="-197.60000000000002" y="751.8000000000001"/>
      <point x="-236.4" y="780.4"/>
      <point x="-285.0" y="780.4" type="curve" smooth="yes"/>
      <point x="-367.8" y="780.4"/>
      <point x="-411.40000000000003" y="739.4"/>
      <point x="-427.0" y="645.4" type="curve" smooth="yes"/>
      <point x="-429.0" y="630.4"/>
      <point x="-431.00000000000006" y="613.4000000000001"/>
    </contour>
  </outline>
</glyph>
<glyph name="uni0304" format="2">
  <unicode hex="0304"/>
  <anchor x="-253.0" y="550.0" name="_top"/>
  <anchor x="-219.4" y="764.4000000000001" name="top"/>
  <outline>
    <contour>
      <point x="-396.2" y="602.4" type="line"/>
      <point x="-93.6" y="602.4" type="line"/>
      <point x="-70.8" y="752.4000000000001" type="line"/>
      <point x="-372.8" y="752.4000000000001" type="line"/>
    </contour>
  </outline>
</glyph>
<glyph name="uni0306" format="2">
  <unicode hex="0306"/>
  <anchor x="-253.0" y="550.0" name="_top"/>
  <anchor x="-219.39999999999998" y="766.0" name="top"/>
  <outline>
    <contour>
      <point x="-246.6" y="598.4000000000001" type="curve" smooth="yes"/>
      <point x="-112.2" y="598.4000000000001"/>
      <point x="-50.6" y="635.8000000000001"/>
      <point x="-36.800000000000004" y="780.4" type="curve"/>
      <point x="-145.0" y="780.4" type="line"/>
      <point x="-149.00000000000003" y="756.4"/>
      <point x="-154.6" y="733.4"/>
      <point x="-225.0" y="733.4" type="curve" smooth="yes"/>
      <point x="-259.80000000000007" y="733.4"/>
      <point x="-294.2" y="743.4"/>
      <point x="-294.20000000000005" y="765.1999999999999" type="curve" smooth="yes"/>
      <point x="-294.20000000000005" y="768.0"/>
      <point x="-293.8" y="772.2"/>
      <point x="-292.2" y="780.4" type="curve"/>
      <point x="-400.0" y="780.4" type="line"/>
      <point x="-406.4" y="753.0"/>
      <point x="-409.8" y="727.8"/>
      <point x="-409.8" y="705.8" type="curve" smooth="yes"/>
      <point x="-409.8" y="617.4000000000001"/>
      <point x="-352.59999999999997" y="598.4000000000001"/>
    </contour>
  </outline>
</glyph>
<glyph name="uni0307" format="2">
  <unicode hex="0307"/>
  <anchor x="-253.0" y="550.0" name="_top"/>
  <anchor x="-215.0" y="772.6" name="top"/>
  <outline>
    <contour>
      <point x="-246.2" y="591.0" type="curve" smooth="yes"/>
      <point x="-172.4" y="591.0"/>
      <point x="-145.4" y="651.8000000000001"/>
      <point x="-145.4" y="717.0" type="curve" smooth="yes"/>
      <point x="-145.4" y="763.4"/>
      <point x="-170.60000000000002" y="781.0"/>
      <point x="-216.8" y="781.0" type="curve" smooth="yes"/>
      <point x="-289.2" y="781.0"/>
      <point x="-318.0" y="717.0"/>
      <point x="-318.0" y="654.4" type="curve" smooth="yes"/>
      <point x="-318.0" y="608.0"/>
      <point x="-292.8" y="591.0"/>
    </contour>
  </outline>
</glyph>
<glyph name="uni0308" format="2">
  <unicode hex="0308"/>
  <anchor x="-253.0" y="550.0" name="_top"/>
  <anchor x="-219.79999999999998" y="765.4" name="top"/>
  <outline>
    <contour>
      <point x="-151.00000000000003" y="587.4" type="curve" smooth="yes"/>
      <point x="-92.6" y="587.4"/>
      <point x="-58.20000000000001" y="617.8"/>
      <point x="-51.60000000000001" y="693.8" type="curve" smooth="yes"/>
      <point x="-44.400000000000006" y="756.8"/>
      <point x="-70.0" y="777.4"/>
      <point x="-120.00000000000001" y="777.4" type="curve" smooth="yes"/>
      <point x="-177.8" y="777.4"/>
      <point x="-213.20000000000002" y="746.4"/>
      <point x="-220.4" y="669.4" type="curve" smooth="yes"/>
      <point x="-227.0" y="607.4"/>
      <point x="-199.6" y="587.4"/>
    </contour>
    <contour>
      <point x="-344.4" y="587.4" type="curve" smooth="yes"/>
      <point x="-286.00000000000006" y="587.4"/>
      <point x="-250.6" y="615.4"/>
      <point x="-244.0" y="693.8" type="curve" smooth="yes"/>
      <point x="-236.8" y="756.8"/>
      <point x="-264.2" y="777.4"/>
      <point x="-313.4" y="777.4" type="curve" smooth="yes"/>
      <point x="-370.8" y="777.4"/>
      <point x="-405.6" y="746.0"/>
      <point x="-412.8" y="667.4" type="curve" smooth="yes"/>
      <point x="-419.4" y="607.4"/>
      <point x="-393.80000000000007" y="587.4"/>
    </contour>
  </outline>
</glyph>
<glyph name="hookabovecomb" format="2">
  <unicode hex="0309"/>
  <anchor x="-253" y="550" name="_top"/>
  <anchor x="-229" y="807" name="top"/>
  <outline>
    <contour>
      <point x="-306" y="587" type="line"/>
      <point x="-179" y="599"/>
      <point x="-106" y="638"/>
      <point x="-106" y="719" type="curve" smooth="yes"/>
      <point x="-106" y="783"/>
      <point x="-159" y="810"/>
      <point x="-242" y="810" type="curve" smooth="yes"/>
      <point x="-272" y="810"/>
      <point x="-312" y="804"/>
      <point x="-333" y="798" type="curve"/>
      <point x="-348" y="698" type="line"/>
      <point x="-329" y="701"/>
      <point x="-315" y="703"/>
      <point x="-295" y="703" type="curve" smooth="yes"/>
      <point x="-267" y="703"/>
      <point x="-252" y="696"/>
      <point x="-252" y="683" type="curve" smooth="yes"/>
      <point x="-252" y="666"/>
      <point x="-269" y="659"/>
      <point x="-306" y="657" type="curve"/>
    </contour>
  </outline>
</glyph>
<glyph name="uni030A" format="2">
  <unicode hex="030A"/>
  <anchor x="-253.0" y="550.0" name="_top"/>
  <anchor x="-215.4" y="786.4" name="top"/>
  <outline>
    <contour>
      <point x="-237.40000000000003" y="586.5999999999999" type="curve" smooth="yes"/>
      <point x="-149.0" y="586.5999999999999"/>
      <point x="-104.6" y="631.8000000000001"/>
      <point x="-104.6" y="706.6" type="curve" smooth="yes"/>
      <point x="-104.6" y="764.5999999999999"/>
      <point x="-146.60000000000002" y="800.5999999999999"/>
      <point x="-222.59999999999997" y="800.5999999999999" type="curve" smooth="yes"/>
      <point x="-311.0" y="800.5999999999999"/>
      <point x="-355.40000000000003" y="755.4"/>
      <point x="-355.40000000000003" y="680.6" type="curve" smooth="yes"/>
      <point x="-355.40000000000003" y="622.6"/>
      <point x="-313.4" y="586.5999999999999"/>
    </contour>
    <contour>
      <point x="-232.00000000000003" y="671.1999999999999" type="curve" smooth="yes"/>
      <point x="-246.8" y="671.1999999999999"/>
      <point x="-253.80000000000004" y="679.1999999999999"/>
      <point x="-253.80000000000004" y="690.8000000000001" type="curve" smooth="yes"/>
      <point x="-253.80000000000004" y="706.8"/>
      <point x="-244.8" y="716.0"/>
      <point x="-227.99999999999997" y="716.0" type="curve" smooth="yes"/>
      <point x="-213.2" y="716.0"/>
      <point x="-206.20000000000002" y="708.0"/>
      <point x="-206.20000000000002" y="696.4000000000001" type="curve" smooth="yes"/>
      <point x="-206.20000000000002" y="680.4"/>
      <point x="-214.8" y="671.1999999999999"/>
    </contour>
  </outline>
</glyph>
<glyph name="uni030B" format="2">
  <unicode hex="030B"/>
  <anchor x="-253.0" y="550.0" name="_top"/>
  <anchor x="-187.0" y="789.4" name="top"/>
  <outline>
    <contour>
      <point x="-229.4" y="595.4" type="line"/>
      <point x="-80.19999999999999" y="595.4" type="line"/>
      <point x="36.0" y="789.4" type="line"/>
      <point x="-152.20000000000002" y="789.4" type="line"/>
    </contour>
    <contour>
      <point x="-441.0" y="595.4" type="line"/>
      <point x="-291.79999999999995" y="595.4" type="line"/>
      <point x="-175.60000000000002" y="789.4" type="line"/>
      <point x="-364.4" y="789.4" type="line"/>
    </contour>
  </outline>
</glyph>
<glyph name="uni030F" format="2">
  <unicode hex="030F"/>
  <anchor x="-253.0" y="550.0" name="_top"/>
  <anchor x="-267.0" y="789.4" name="top"/>
  <outline>
    <contour>
      <point x="-418.20000000000005" y="595.4" type="line"/>
      <point x="-272.4" y="595.4" type="line"/>
      <point x="-315.4" y="789.4" type="line"/>
      <point x="-499.59999999999997" y="789.4" type="line"/>
    </contour>
    <contour>
      <point x="-210.8" y="595.4" type="line"/>
      <point x="-65.0" y="595.4" type="line"/>
      <point x="-108.00000000000001" y="789.4" type="line"/>
      <point x="-292.20000000000005" y="789.4" type="line"/>
    </contour>
  </outline>
</glyph>
<glyph name="uni0312" format="2">
  <unicode hex="0312"/>
  <anchor x="-253.0" y="550.0" name="_top"/>
  <outline>
    <contour>
      <point x="-140.60000000000002" y="593.2" type="line"/>
      <point x="-142.6" y="603.5999999999999"/>
      <point x="-145.0" y="616.4"/>
      <point x="-143.2" y="638.6" type="curve" smooth="yes"/>
      <point x="-140.2" y="676.5999999999999"/>
      <point x="-120.80000000000001" y="719.8"/>
      <point x="-91.0" y="759.4" type="curve"/>
      <point x="-250.4" y="759.4" type="line"/>
      <point x="-303.2" y="714.8"/>
      <point x="-332.40000000000003" y="670.8"/>
      <point x="-334.8" y="618.2" type="curve" smooth="yes"/>
      <point x="-334.8" y="610.1999999999999"/>
      <point x="-334.00000000000006" y="601.2"/>
      <point x="-331.59999999999997" y="593.2" type="curve"/>
    </contour>
  </outline>
</glyph>
<glyph name="uni031B" format="2">
  <unicode hex="031B"/>
  <anchor x="-120" y="550" name="_topright"/>
  <anchor x="73" y="655" name="topright"/>
  <outline>
    <contour>
      <point x="-205" y="412" type="line"/>
      <point x="-173" y="412" type="line"/>
      <point x="-38" y="412"/>
      <point x="44" y="485"/>
      <point x="53" y="655" type="curve"/>
      <point x="-135" y="655" type="line"/>
      <point x="-144" y="569"/>
      <point x="-160" y="550"/>
      <point x="-198" y="550" type="curve"/>
      <point x="-211" y="550" type="line"/>
    </contour>
  </outline>
</glyph>
<glyph name="uni0326" format="2">
  <unicode hex="0326"/>
  <anchor x="-329.0" y="0.0" name="_bottom"/>
  <anchor x="-374.0" y="-188.8" name="bottom"/>
  <outline>
    <contour>
      <point x="-430.8" y="-41.8" type="line"/>
      <point x="-430.8" y="-50.2"/>
      <point x="-431.0" y="-58.800000000000004"/>
      <point x="-432.2" y="-67.8" type="curve" smooth="yes"/>
      <point x="-437.0" y="-114.2"/>
      <point x="-455.59999999999997" y="-158.6"/>
      <point x="-483.2" y="-200.8" type="curve"/>
      <point x="-320.2" y="-200.8" type="line"/>
      <point x="-277.59999999999997" y="-164.79999999999998"/>
      <point x="-242.0" y="-114.80000000000001"/>
      <point x="-233.0" y="-55.0" type="curve" smooth="yes"/>
      <point x="-232.4" y="-50.6"/>
      <point x="-232.20000000000002" y="-46.199999999999996"/>
      <point x="-233.0" y="-41.8" type="curve"/>
    </contour>
  </outline>
</glyph>
<glyph name="uni0327" format="2">
  <unicode hex="0327"/>
  <anchor x="-329" y="0" name="_bottom"/>
  <anchor x="-407" y="-220" name="bottom"/>
  <outline>
    <contour>
      <point x="-486" y="-209" type="line"/>
      <point x="-459" y="-216"/>
      <point x="-435" y="-220"/>
      <point x="-407" y="-220" type="curve" smooth="yes"/>
      <point x="-314" y="-220"/>
      <point x="-239" y="-163"/>
      <point x="-239" y="-61" type="curve" smooth="yes"/>
      <point x="-239" y="-35"/>
      <point x="-242" y="-11"/>
      <point x="-250" y="9" type="curve"/>
      <point x="-397" y="8" type="line"/>
      <point x="-390" y="-6"/>
      <point x="-387" y="-16"/>
      <point x="-387" y="-34" type="curve" smooth="yes"/>
      <point x="-387" y="-70"/>
      <point x="-410" y="-81"/>
      <point x="-438" y="-81" type="curve" smooth="yes"/>
      <point x="-446" y="-81"/>
      <point x="-455" y="-80"/>
      <point x="-462" y="-78" type="curve"/>
    </contour>
  </outline>
</glyph>
<glyph name="uni0328" format="2">
  <unicode hex="0328"/>
  <anchor x="-236.2" y="0.0" name="_ogonek"/>
  <outline>
    <contour>
      <point x="-355.8" y="21.2" type="line"/>
      <point x="-410.6" y="-7.799999999999997"/>
      <point x="-452.2" y="-57.8"/>
      <point x="-452.2" y="-115.6" type="curve" smooth="yes"/>
      <point x="-452.2" y="-174.79999999999998"/>
      <point x="-409.6" y="-220.0"/>
      <point x="-327.4" y="-220.0" type="curve" smooth="yes"/>
      <point x="-301.8" y="-220.0"/>
      <point x="-275.8" y="-214.8"/>
      <point x="-251.0" y="-206.79999999999998" type="curve"/>
      <point x="-235.0" y="-71.0" type="line"/>
      <point x="-238.2" y="-71.4"/>
      <point x="-245.20000000000002" y="-73.0"/>
      <point x="-253.79999999999998" y="-73.0" type="curve" smooth="yes"/>
      <point x="-270.6" y="-73.0"/>
      <point x="-280.2" y="-65.2"/>
      <point x="-280.2" y="-52.8" type="curve" smooth="yes"/>
      <point x="-280.2" y="-32.4"/>
      <point x="-266.40000000000003" y="-10.799999999999999"/>
      <point x="-236.2" y="0.0" type="curve"/>
    </contour>
  </outline>
</glyph>
<glyph name="uni0335" format="2">
  <unicode hex="0335"/>
  <anchor x="-138.6" y="350.0" name="_center"/>
  <outline>
    <contour>
      <point x="-345.20000000000005" y="266.0" type="line"/>
      <point x="40.6" y="266.0" type="line"/>
      <point x="67.4" y="434.0" type="line"/>
      <point x="-318.40000000000003" y="434.0" type="line"/>
    </contour>
  </outline>
</glyph>
<glyph name="pi" format="2">
  <advance width="577.8"/>
  <unicode hex="03C0"/>
  <outline>
    <contour>
      <point x="388.80000000000007" y="-10.0" type="curve" smooth="yes"/>
      <point x="435.4" y="-10.0"/>
      <point x="474.4" y="3.6"/>
      <point x="506.4" y="23.8" type="curve"/>
      <point x="519.0" y="191.79999999999998" type="line"/>
      <point x="513.5999999999999" y="189.6"/>
      <point x="508.2" y="188.2"/>
      <point x="503.0" y="188.2" type="curve" smooth="yes"/>
      <point x="493.79999999999995" y="188.2"/>
      <point x="489.59999999999997" y="195.0"/>
      <point x="489.59999999999997" y="205.8" type="curve" smooth="yes"/>
      <point x="489.59999999999997" y="212.6"/>
      <point x="491.00000000000006" y="219.79999999999998"/>
      <point x="509.99999999999994" y="343.4" type="curve"/>
      <point x="553.1999999999999" y="343.4" type="line"/>
      <point x="586.4000000000001" y="550.0" type="line"/>
      <point x="220.8" y="550.0" type="line" smooth="yes"/>
      <point x="152.0" y="550.0"/>
      <point x="116.6" y="537.2"/>
      <point x="77.6" y="508.0" type="curve"/>
      <point x="43.0" y="319.0" type="line"/>
      <point x="56.60000000000001" y="328.59999999999997"/>
      <point x="83.40000000000002" y="335.40000000000003"/>
      <point x="104.60000000000001" y="339.0" type="curve"/>
      <point x="70.8" y="226.2"/>
      <point x="38.0" y="112.8"/>
      <point x="4.200000000000003" y="0.0" type="curve"/>
      <point x="202.2" y="0.0" type="line"/>
      <point x="231.4" y="114.0"/>
      <point x="261.6" y="226.6"/>
      <point x="292.8" y="343.4" type="curve"/>
      <point x="318.2" y="343.4" type="line"/>
      <point x="285.4" y="133.2"/>
      <point x="282.8" y="111.8"/>
      <point x="282.8" y="93.0" type="curve" smooth="yes"/>
      <point x="282.8" y="21.8"/>
      <point x="313.6" y="-10.0"/>
    </contour>
  </outline>
</glyph>
<glyph name="endash" format="2">
  <advance width="425.2"/>
  <unicode hex="2013"/>
  <outline>
    <contour>
      <point x="14.000000000000002" y="234.0" type="line"/>
      <point x="397.0" y="234.0" type="line"/>
      <point x="425.2" y="402.0" type="line"/>
      <point x="42.2" y="402.0" type="line"/>
    </contour>
  </outline>
</glyph>
<glyph name="emdash" format="2">
  <advance width="739.4"/>
  <unicode hex="2014"/>
  <outline>
    <contour>
      <point x="13.999999999999998" y="234.0" type="line"/>
      <point x="711.2" y="234.0" type="line"/>
      <point x="739.4" y="402.0" type="line"/>
      <point x="42.199999999999996" y="402.0" type="line"/>
    </contour>
  </outline>
</glyph>
<glyph name="quoteleft" format="2">
  <advance width="242.2"/>
  <unicode hex="2018"/>
  <outline>
    <contour>
      <point x="47.0" y="430.0" type="curve"/>
      <point x="232.8" y="430.0" type="line"/>
      <point x="241.60000000000002" y="524.4"/>
      <point x="256.40000000000003" y="584.1999999999999"/>
      <point x="289.8" y="678.0" type="curve"/>
      <point x="141.6" y="700.0" type="line"/>
      <point x="87.0" y="619.6"/>
      <point x="64.0" y="545.1999999999999"/>
    </contour>
  </outline>
</glyph>
<glyph name="quoteright" format="2">
  <advance width="242.2"/>
  <unicode hex="2019"/>
  <outline>
    <contour>
      <point x="287.2" y="700.0" type="curve"/>
      <point x="101.39999999999999" y="700.0" type="line"/>
      <point x="92.60000000000001" y="605.6"/>
      <point x="77.80000000000001" y="545.8000000000001"/>
      <point x="44.400000000000006" y="452.0" type="curve"/>
      <point x="192.60000000000002" y="430.0" type="line"/>
      <point x="247.2" y="510.40000000000003"/>
      <point x="270.2" y="584.8000000000001"/>
    </contour>
  </outline>
</glyph>
<glyph name="dagger" format="2">
  <advance width="477.6"/>
  <unicode hex="2020"/>
  <outline>
    <contour>
      <point x="69.0" y="-210.0" type="line"/>
      <point x="251.6" y="-210.0" type="line"/>
      <point x="343.2" y="360.0" type="line"/>
      <point x="451.8" y="360.0" type="line"/>
      <point x="481.8" y="550.0" type="line"/>
      <point x="374.2" y="550.0" type="line"/>
      <point x="404.20000000000005" y="740.0" type="line"/>
      <point x="220.79999999999998" y="740.0" type="line"/>
      <point x="190.2" y="550.0" type="line"/>
      <point x="83.2" y="550.0" type="line"/>
      <point x="52.6" y="360.0" type="line"/>
      <point x="160.2" y="360.0" type="line"/>
    </contour>
  </outline>
</glyph>
<glyph name="daggerdbl" format="2">
  <advance width="477.6"/>
  <unicode hex="2021"/>
  <outline>
    <contour>
      <point x="392.79999999999995" y="-14.0" type="line"/>
      <point x="422.59999999999997" y="176.4" type="line"/>
      <point x="314.4" y="176.4" type="line"/>
      <point x="344.4" y="360.0" type="line"/>
      <point x="453.4" y="360.0" type="line"/>
      <point x="483.4" y="550.0" type="line"/>
      <point x="375.4" y="550.0" type="line"/>
      <point x="405.4" y="740.0" type="line"/>
      <point x="222.39999999999998" y="740.0" type="line"/>
      <point x="191.79999999999998" y="550.0" type="line"/>
      <point x="84.8" y="550.0" type="line"/>
      <point x="53.800000000000004" y="360.0" type="line"/>
      <point x="161.79999999999998" y="360.0" type="line"/>
      <point x="131.39999999999998" y="176.4" type="line"/>
      <point x="24.400000000000002" y="176.4" type="line"/>
      <point x="-6.199999999999998" y="-14.0" type="line"/>
      <point x="101.8" y="-14.0" type="line"/>
      <point x="69.8" y="-210.0" type="line"/>
      <point x="252.79999999999998" y="-210.0" type="line"/>
      <point x="284.4" y="-14.0" type="line"/>
    </contour>
  </outline>
</glyph>
<glyph name="bullet" format="2">
  <advance width="440.0"/>
  <unicode hex="2022"/>
  <outline>
    <contour>
      <point x="198.4" y="146.0" type="curve" smooth="yes"/>
      <point x="312.59999999999997" y="146.0"/>
      <point x="390.59999999999997" y="247.2"/>
      <point x="390.59999999999997" y="347.59999999999997" type="curve" smooth="yes"/>
      <point x="390.59999999999997" y="429.59999999999997"/>
      <point x="335.2" y="492.40000000000003"/>
      <point x="256.59999999999997" y="492.40000000000003" type="curve" smooth="yes"/>
      <point x="144.60000000000002" y="492.40000000000003"/>
      <point x="63.8" y="391.8"/>
      <point x="63.8" y="290.0" type="curve" smooth="yes"/>
      <point x="63.8" y="209.0"/>
      <point x="119.8" y="146.0"/>
    </contour>
  </outline>
</glyph>
<glyph name="minute" format="2">
  <advance width="245.2"/>
  <unicode hex="2032"/>
  <outline>
    <contour>
      <point x="32.8" y="427.0" type="line"/>
      <point x="204.4" y="427.0" type="line"/>
      <point x="301.8" y="700.0" type="line"/>
      <point x="110.8" y="700.0" type="line"/>
    </contour>
  </outline>
</glyph>
<glyph name="guilsinglleft" format="2">
  <advance width="295.0"/>
  <unicode hex="2039"/>
  <outline>
    <contour>
      <point x="220.99999999999997" y="-11.0" type="line"/>
      <point x="261.0" y="231.4" type="line"/>
      <point x="144.8" y="273.4" type="line"/>
      <point x="274.0" y="312.4" type="line"/>
      <point x="314.0" y="552.8000000000001" type="line"/>
      <point x="40.0" y="406.8" type="line"/>
      <point x="-4.599999999999999" y="138.4" type="line"/>
    </contour>
  </outline>
</glyph>
<glyph name="guilsinglright" format="2">
  <advance width="293.2"/>
  <unicode hex="203A"/>
  <outline>
    <contour>
      <point x="19.200000000000003" y="231.39999999999998" type="line"/>
      <point x="-20.2" y="-11.0" type="line"/>
      <point x="253.0" y="138.4" type="line"/>
      <point x="297.0" y="406.8" type="line"/>
      <point x="72.2" y="552.8000000000001" type="line"/>
      <point x="32.2" y="310.4" type="line"/>
      <point x="146.0" y="268.0" type="line"/>
    </contour>
  </outline>
</glyph>
<glyph name="fraction" format="2">
  <advance width="159.60000000000002"/>
  <unicode hex="2044"/>
  <outline>
    <contour>
      <point x="-96.39999999999999" y="-4.0" type="line"/>
      <point x="424.0" y="716.0" type="line"/>
      <point x="280.2" y="716.0" type="line"/>
      <point x="-239.0" y="-4.0" type="line"/>
    </contour>
  </outline>
</glyph>
<glyph name="uni2052" format="2">
  <advance width="672.0"/>
  <unicode hex="2052"/>
  <outline>
    <contour>
      <point x="-21.0" y="0.0" type="line"/>
      <point x="170.4" y="0.0" type="line"/>
      <point x="716.0" y="700.0" type="line"/>
      <point x="524.6" y="700.0" type="line"/>
    </contour>
    <component base="period" xOffset="83.39999999999999" yOffset="483.6"/>
    <component base="period" xOffset="396.6"/>
  </outline>
</glyph>
<glyph name="uni2070" format="2">
  <advance width="426"/>
  <unicode hex="2070"/>
  <outline>
    <contour>
      <point x="66" y="547" type="curve" smooth="yes"/>
      <point x="66" y="426"/>
      <point x="137" y="365"/>
      <point x="253" y="365" type="curve" smooth="yes"/>
      <point x="379" y="365"/>
      <point x="453" y="468"/>
      <point x="453" y="596" type="curve" smooth="yes"/>
      <point x="453" y="717"/>
      <point x="382" y="778"/>
      <point x="266" y="778" type="curve" smooth="yes"/>
      <point x="140" y="778"/>
      <point x="66" y="675"/>
    </contour>
    <contour>
      <point x="278" y="678" type="curve" smooth="yes"/>
      <point x="297" y="678"/>
      <point x="307" y="666"/>
      <point x="307" y="639" type="curve" smooth="yes"/>
      <point x="307" y="563"/>
      <point x="281" y="465"/>
      <point x="241" y="465" type="curve" smooth="yes"/>
      <point x="222" y="465"/>
      <point x="212" y="477"/>
      <point x="212" y="504" type="curve" smooth="yes"/>
      <point x="212" y="580"/>
      <point x="238" y="678"/>
    </contour>
  </outline>
</glyph>
<glyph name="uni2074" format="2">
  <advance width="418"/>
  <unicode hex="2074"/>
  <outline>
    <contour>
      <point x="37" y="412" type="line"/>
      <point x="211" y="412" type="line"/>
      <point x="203" y="370" type="line"/>
      <point x="352" y="370" type="line"/>
      <point x="359" y="412" type="line"/>
      <point x="408" y="412" type="line"/>
      <point x="423" y="504" type="line"/>
      <point x="374" y="504" type="line"/>
      <point x="417" y="766" type="line"/>
      <point x="289" y="766" type="line"/>
      <point x="51" y="495" type="line"/>
    </contour>
    <contour>
      <point x="149" y="504" type="line"/>
      <point x="251" y="618" type="line"/>
      <point x="230" y="504" type="line"/>
    </contour>
  </outline>
</glyph>
<glyph name="uni2075" format="2">
  <advance width="398.6"/>
  <unicode hex="2075"/>
  <outline>
    <contour>
      <point x="37.4" y="389.59999999999997" type="line"/>
      <point x="80.6" y="371.40000000000003"/>
      <point x="139.2" y="364.4"/>
      <point x="200.20000000000002" y="364.4" type="curve" smooth="yes"/>
      <point x="342.4" y="364.4"/>
      <point x="412.20000000000005" y="434.0"/>
      <point x="412.20000000000005" y="523.8" type="curve" smooth="yes"/>
      <point x="412.20000000000005" y="588.8"/>
      <point x="366.2" y="618.6"/>
      <point x="282.0" y="620.4" type="curve" smooth="yes"/>
      <point x="226.20000000000002" y="621.0" type="line"/>
      <point x="238.79999999999998" y="667.5999999999999" type="line"/>
      <point x="419.6" y="667.5999999999999" type="line"/>
      <point x="437.6" y="774.4000000000001" type="line"/>
      <point x="155.8" y="774.4000000000001" type="line"/>
      <point x="84.8" y="534.0" type="line"/>
      <point x="89.0" y="528.2" type="line"/>
      <point x="224.8" y="528.2" type="line" smooth="yes"/>
      <point x="266.8" y="528.2"/>
      <point x="278.20000000000005" y="519.6"/>
      <point x="278.20000000000005" y="501.2" type="curve" smooth="yes"/>
      <point x="278.20000000000005" y="485.0"/>
      <point x="249.79999999999998" y="472.40000000000003"/>
      <point x="195.2" y="472.40000000000003" type="curve" smooth="yes"/>
      <point x="151.20000000000002" y="472.40000000000003"/>
      <point x="104.6" y="480.4"/>
      <point x="78.2" y="488.4" type="curve"/>
    </contour>
  </outline>
</glyph>
<glyph name="uni2076" format="2">
  <advance width="408"/>
  <unicode hex="2076"/>
  <outline>
    <contour>
      <point x="242" y="365" type="curve" smooth="yes"/>
      <point x="336" y="365"/>
      <point x="427" y="402"/>
      <point x="427" y="518" type="curve" smooth="yes"/>
      <point x="427" y="587"/>
      <point x="380" y="631"/>
      <point x="304" y="631" type="curve" smooth="yes"/>
      <point x="265" y="631"/>
      <point x="225" y="623"/>
      <point x="194" y="600" type="curve"/>
      <point x="187" y="525" type="line"/>
      <point x="204" y="535"/>
      <point x="226" y="545"/>
      <point x="253" y="545" type="curve" smooth="yes"/>
      <point x="286" y="545"/>
      <point x="299" y="529"/>
      <point x="299" y="508" type="curve" smooth="yes"/>
      <point x="299" y="481"/>
      <point x="274" y="463"/>
      <point x="243" y="463" type="curve" smooth="yes"/>
      <point x="213" y="463"/>
      <point x="191" y="482"/>
      <point x="191" y="521" type="curve" smooth="yes"/>
      <point x="191" y="560"/>
      <point x="204" y="604"/>
      <point x="233" y="634" type="curve" smooth="yes"/>
      <point x="256" y="657"/>
      <point x="293" y="672"/>
      <point x="338" y="672" type="curve" smooth="yes"/>
      <point x="369" y="672"/>
      <point x="390" y="667"/>
      <point x="414" y="659" type="curve"/>
      <point x="457" y="752" type="line"/>
      <point x="435" y="762"/>
      <point x="385" y="775"/>
      <point x="327" y="775" type="curve" smooth="yes"/>
      <point x="161" y="775"/>
      <point x="64" y="670"/>
      <point x="64" y="538" type="curve" smooth="yes"/>
      <point x="64" y="429"/>
      <point x="128" y="365"/>
    </contour>
  </outline>
</glyph>
<glyph name="uni2077" format="2">
  <advance width="393.4"/>
  <unicode hex="2077"/>
  <outline>
    <contour>
      <point x="89.20000000000002" y="370.0" type="curve"/>
      <point x="245.60000000000002" y="370.0" type="line"/>
      <point x="259.8" y="432.59999999999997"/>
      <point x="280.2" y="473.0"/>
      <point x="346.0" y="563.4" type="curve" smooth="yes"/>
      <point x="432.6" y="682.0" type="line"/>
      <point x="446.6" y="764.8000000000001" type="line"/>
      <point x="105.60000000000001" y="764.8000000000001" type="line"/>
      <point x="88.60000000000001" y="662.1999999999999" type="line"/>
      <point x="262.59999999999997" y="662.1999999999999" type="line"/>
      <point x="188.39999999999998" y="568.4" type="line" smooth="yes"/>
      <point x="128.2" y="492.20000000000005"/>
      <point x="101.0" y="439.6"/>
    </contour>
  </outline>
</glyph>
<glyph name="uni2078" format="2">
  <advance width="444"/>
  <unicode hex="2078"/>
  <outline>
    <contour>
      <point x="242" y="364" type="curve" smooth="yes"/>
      <point x="361" y="364"/>
      <point x="447" y="407"/>
      <point x="447" y="497" type="curve" smooth="yes"/>
      <point x="447" y="618"/>
      <point x="244" y="613"/>
      <point x="244" y="659" type="curve" smooth="yes"/>
      <point x="244" y="672"/>
      <point x="262" y="684"/>
      <point x="287" y="684" type="curve" smooth="yes"/>
      <point x="311" y="684"/>
      <point x="324" y="675"/>
      <point x="324" y="659" type="curve" smooth="yes"/>
      <point x="324" y="640"/>
      <point x="312" y="628"/>
      <point x="293" y="617" type="curve"/>
      <point x="385" y="577" type="line"/>
      <point x="431" y="599"/>
      <point x="460" y="628"/>
      <point x="460" y="673" type="curve" smooth="yes"/>
      <point x="460" y="733"/>
      <point x="397" y="775"/>
      <point x="300" y="775" type="curve" smooth="yes"/>
      <point x="183" y="775"/>
      <point x="108" y="734"/>
      <point x="108" y="644" type="curve" smooth="yes"/>
      <point x="108" y="524"/>
      <point x="300" y="532"/>
      <point x="300" y="483" type="curve" smooth="yes"/>
      <point x="300" y="465"/>
      <point x="289" y="455"/>
      <point x="257" y="455" type="curve" smooth="yes"/>
      <point x="216" y="455"/>
      <point x="203" y="471"/>
      <point x="203" y="487" type="curve" smooth="yes"/>
      <point x="203" y="507"/>
      <point x="218" y="520"/>
      <point x="232" y="526" type="curve"/>
      <point x="153" y="577" type="line"/>
      <point x="92" y="556"/>
      <point x="61" y="523"/>
      <point x="61" y="474" type="curve" smooth="yes"/>
      <point x="61" y="405"/>
      <point x="144" y="364"/>
    </contour>
  </outline>
</glyph>
<glyph name="uni2079" format="2">
  <advance width="409"/>
  <unicode hex="2079"/>
  <outline>
    <contour>
      <point x="260" y="775" type="curve" smooth="yes"/>
      <point x="145" y="775"/>
      <point x="75" y="721"/>
      <point x="75" y="630" type="curve" smooth="yes"/>
      <point x="75" y="550"/>
      <point x="128" y="509"/>
      <point x="206" y="509" type="curve" smooth="yes"/>
      <point x="245" y="509"/>
      <point x="282" y="517"/>
      <point x="313" y="540" type="curve"/>
      <point x="320" y="615" type="line"/>
      <point x="303" y="605"/>
      <point x="275" y="596"/>
      <point x="252" y="596" type="curve" smooth="yes"/>
      <point x="215" y="596"/>
      <point x="203" y="612"/>
      <point x="203" y="633" type="curve" smooth="yes"/>
      <point x="203" y="659"/>
      <point x="225" y="677"/>
      <point x="259" y="677" type="curve" smooth="yes"/>
      <point x="294" y="677"/>
      <point x="316" y="659"/>
      <point x="316" y="620" type="curve" smooth="yes"/>
      <point x="316" y="581"/>
      <point x="307" y="535"/>
      <point x="278" y="505" type="curve" smooth="yes"/>
      <point x="255" y="482"/>
      <point x="209" y="468"/>
      <point x="164" y="468" type="curve" smooth="yes"/>
      <point x="133" y="468"/>
      <point x="112" y="474"/>
      <point x="88" y="482" type="curve"/>
      <point x="45" y="388" type="line"/>
      <point x="67" y="378"/>
      <point x="117" y="365"/>
      <point x="175" y="365" type="curve" smooth="yes"/>
      <point x="341" y="365"/>
      <point x="438" y="465"/>
      <point x="438" y="607" type="curve" smooth="yes"/>
      <point x="438" y="707"/>
      <point x="379" y="775"/>
    </contour>
  </outline>
</glyph>
<glyph name="uni207A" format="2">
  <advance width="336.6"/>
  <unicode hex="207A"/>
  <outline>
    <contour>
      <point x="143.0" y="442.8" type="line"/>
      <point x="245.0" y="442.8" type="line"/>
      <point x="254.20000000000002" y="502.0" type="line"/>
      <point x="326.0" y="502.0" type="line"/>
      <point x="343.0" y="604.0" type="line"/>
      <point x="271.2" y="604.0" type="line"/>
      <point x="280.8" y="663.2" type="line"/>
      <point x="179.20000000000002" y="663.2" type="line"/>
      <point x="169.20000000000002" y="604.0" type="line"/>
      <point x="98.2" y="604.0" type="line"/>
      <point x="81.60000000000001" y="502.0" type="line"/>
      <point x="153.0" y="502.0" type="line"/>
    </contour>
  </outline>
</glyph>
<glyph name="uni207B" format="2">
  <advance width="336.6"/>
  <unicode hex="207B"/>
  <outline>
    <contour>
      <point x="81.60000000000001" y="502.0" type="line"/>
      <point x="326.0" y="502.0" type="line"/>
      <point x="343.0" y="604.0" type="line"/>
      <point x="98.19999999999999" y="604.0" type="line"/>
    </contour>
  </outline>
</glyph>
<glyph name="uni207C" format="2">
  <advance width="330.4"/>
  <unicode hex="207C"/>
  <outline>
    <contour>
      <point x="325.0" y="530.2" type="line"/>
      <point x="86.60000000000001" y="530.2" type="line"/>
      <point x="69.60000000000001" y="428.2" type="line"/>
      <point x="308.40000000000003" y="428.2" type="line"/>
    </contour>
    <contour>
      <point x="346.6" y="664.0" type="line"/>
      <point x="107.80000000000001" y="664.0" type="line"/>
      <point x="91.20000000000002" y="562.0" type="line"/>
      <point x="329.6" y="562.0" type="line"/>
    </contour>
  </outline>
</glyph>
<glyph name="uni207D" format="2">
  <advance width="201.0"/>
  <unicode hex="207D"/>
  <outline>
    <contour>
      <point x="64.2" y="459.2" type="curve" smooth="yes"/>
      <point x="64.2" y="363.0"/>
      <point x="99.0" y="293.2"/>
      <point x="185.79999999999998" y="282.6" type="curve"/>
      <point x="200.39999999999998" y="373.0" type="line"/>
      <point x="170.6" y="386.4"/>
      <point x="157.6" y="410.8"/>
      <point x="157.6" y="457.2" type="curve" smooth="yes"/>
      <point x="157.6" y="542.2"/>
      <point x="182.20000000000002" y="711.2"/>
      <point x="259.8" y="742.6" type="curve"/>
      <point x="274.20000000000005" y="834.6" type="line"/>
      <point x="120.0" y="812.6"/>
      <point x="64.2" y="596.0"/>
    </contour>
  </outline>
</glyph>
<glyph name="uni207E" format="2">
  <advance width="200.6"/>
  <unicode hex="207E"/>
  <outline>
    <contour>
      <point x="226.8" y="662.2" type="curve" smooth="yes"/>
      <point x="226.8" y="760.2"/>
      <point x="192.0" y="828.8000000000001"/>
      <point x="105.6" y="839.4" type="curve"/>
      <point x="90.0" y="747.8" type="line"/>
      <point x="119.8" y="734.4"/>
      <point x="132.79999999999998" y="710.0"/>
      <point x="132.79999999999998" y="663.6" type="curve" smooth="yes"/>
      <point x="132.79999999999998" y="576.8000000000001"/>
      <point x="109.4" y="412.0"/>
      <point x="31.200000000000003" y="379.4" type="curve"/>
      <point x="16.8" y="287.40000000000003" type="line"/>
      <point x="171.6" y="302.20000000000005"/>
      <point x="226.8" y="526.8000000000001"/>
    </contour>
  </outline>
</glyph>
<glyph name="n.superior" format="2">
  <advance width="395.4"/>
  <unicode hex="207F"/>
  <outline>
    <contour>
      <point x="331.0" y="364.0" type="curve" smooth="yes"/>
      <point x="353.4" y="364.0"/>
      <point x="386.4" y="367.8"/>
      <point x="405.2" y="375.6" type="curve"/>
      <point x="413.0" y="468.4" type="line"/>
      <point x="410.2" y="468.0"/>
      <point x="406.79999999999995" y="468.0"/>
      <point x="404.40000000000003" y="468.0" type="curve" smooth="yes"/>
      <point x="398.40000000000003" y="468.0"/>
      <point x="395.0" y="471.0"/>
      <point x="395.0" y="475.8" type="curve" smooth="yes"/>
      <point x="395.0" y="487.59999999999997"/>
      <point x="418.6" y="593.4"/>
      <point x="418.6" y="619.0" type="curve" smooth="yes"/>
      <point x="418.6" y="660.6"/>
      <point x="390.6" y="690.0"/>
      <point x="332.8" y="690.0" type="curve" smooth="yes"/>
      <point x="301.59999999999997" y="690.0"/>
      <point x="265.8" y="681.0"/>
      <point x="229.6" y="656.8" type="curve"/>
      <point x="233.6" y="683.0" type="line"/>
      <point x="97.39999999999999" y="683.0" type="line"/>
      <point x="48.2" y="370.0" type="line"/>
      <point x="194.0" y="370.0" type="line"/>
      <point x="225.0" y="569.2" type="line"/>
      <point x="234.6" y="574.4"/>
      <point x="240.6" y="576.8000000000001"/>
      <point x="247.6" y="576.8000000000001" type="curve" smooth="yes"/>
      <point x="260.0" y="576.8000000000001"/>
      <point x="266.4" y="571.4"/>
      <point x="266.4" y="559.1999999999999" type="curve" smooth="yes"/>
      <point x="266.4" y="540.6"/>
      <point x="246.8" y="456.8"/>
      <point x="246.8" y="427.2" type="curve" smooth="yes"/>
      <point x="246.8" y="385.8"/>
      <point x="280.2" y="364.0"/>
    </contour>
  </outline>
</glyph>
